<ttFont>
        <CharString name=".notdef">
          -1200 190 901 rmoveto
          -13 0 -9 6 -7 12 -77 219 -38 115 0 13 6 29 17 15 28 0 rrcurveto
          364 hlineto
          22 0 11 -10 0 -19 0 -5 -1 -5 -1 -6 -2 -7 -88 -115 -173 -224 -11 -12 -13 -6 -15 0 rrcurveto
          28 -737 rmoveto
          -365 hlineto
          -23 1 -11 9 0 19 0 4 1 5 1 5 2 9 88 116 173 222 12 14 12 7 13 0 15 0 11 -7 5 -14 77 -217 38 -115 0 -14 -5 -29 -17 -15 -27 0 rrcurveto
          -429 264 rmoveto
          -25 0 -12 9 0 18 rrcurveto
          116 549 rlineto
          6 27 17 13 29 0 14 0 10 -5 7 -11 81 -180 41 -97 0 -13 0 -8 -82 -98 -164 -188 -11 -11 -13 -5 -14 0 rrcurveto
          603 hmoveto
          -12 0 -10 5 -9 11 -79 182 -40 97 0 13 0 7 81 98 162 187 13 11 14 5 13 0 23 0 12 -9 0 -19 rrcurveto
          -116 -549 rlineto
          -5 -26 -18 -13 -29 0 rrcurveto
          -14 -421 rmoveto
          32 0 29 12 25 23 25 23 15 24 5 27 177 833 89 420 0 9 0 19 -5 18 -11 16 -15 23 -24 11 -32 0 rrcurveto
          -756 hlineto
          -30 0 -27 -11 -25 -22 -25 -22 -16 -26 -6 -31 -177 -832 -89 -420 0 -7 0 -18 6 -17 11 -17 15 -23 23 -12 30 0 rrcurveto
          endchar
        </CharString>
        <CharString name="A">
          0 875 512 rmoveto
          -332 hlineto
          -21 0 -10 10 0 19 0 7 2 6 3 7 rrcurveto
          281 539 rlineto
          10 18 14 9 18 0 18 0 10 -9 2 -18 rrcurveto
          51 -539 1 -5 rlineto
          -1 -13 -5 -10 -9 -9 -9 -8 -11 -4 -12 0 rrcurveto
          168 -542 rmoveto
          26 0 24 9 21 19 28 24 14 28 0 33 rrcurveto
          -120 1227 rlineto
          -4 36 -14 29 -24 22 -25 22 -30 11 -35 0 -35 0 -34 -11 -34 -22 -34 -22 -27 -29 -20 -36 rrcurveto
          -638 -1220 rlineto
          -8 -16 -4 -16 0 -15 0 -17 5 -14 10 -14 14 -19 20 -9 26 0 20 0 20 6 19 12 19 11 14 16 10 20 rrcurveto
          142 266 rlineto
          12 21 17 11 22 0 rrcurveto
          462 hlineto
          22 0 12 -11 3 -21 rrcurveto
          28 -266 rlineto
          3 -20 9 -16 13 -11 13 -12 17 -6 21 0 rrcurveto
          endchar
        </CharString>
        <CharString name="B">
          0 676 180 rmoveto
          -224 hlineto
          -12 0 -9 4 -5 7 -6 8 -3 7 0 9 0 3 27 125 52 248 3 12 6 10 10 8 10 8 11 4 12 0 rrcurveto
          226 1 rlineto
          77 -4 54 -20 33 -36 32 -36 17 -38 0 -40 0 -12 -2 -12 -2 -12 -16 -67 -37 -58 -59 -47 -59 -48 -65 -24 -71 0 rrcurveto
          135 634 rmoveto
          -225 hlineto
          -22 0 -12 11 0 22 0 4 23 110 46 216 3 12 6 10 10 8 10 8 11 4 11 0 rrcurveto
          225 hlineto
          55 0 42 -15 28 -30 28 -30 14 -34 0 -39 0 -12 -2 -13 -2 -13 -14 -57 -32 -50 -49 -45 -49 -45 -52 -22 -53 0 rrcurveto
          -174 -814 rmoveto
          80 0 77 19 74 38 73 38 63 51 53 64 52 63 35 71 18 79 6 27 3 26 0 25 0 85 -35 67 -70 48 rrcurveto
          -12 8 rlineto
          -8 5 -4 6 0 7 0 7 3 6 6 5 7 5 5 3 5 3 5 3 3 2 2 2 84 59 54 90 23 122 4 21 2 21 0 20 0 37 -6 36 -14 36 -21 55 -36 47 -50 37 rrcurveto
          -50 37 -61 19 -73 0 rrcurveto
          -353 hlineto
          -26 0 -24 -9 -22 -18 -22 -19 -14 -22 -6 -26 -172 -814 -87 -410 0 -7 0 -19 6 -15 10 -14 14 -18 20 -9 26 0 rrcurveto
          endchar
        </CharString>
        <CharString name="C">
          0 729 -30 rmoveto
          88 0 85 13 81 26 60 19 30 39 0 59 0 42 -21 21 -43 0 -9 0 -8 -2 -9 -4 -49 -23 -70 -11 -90 0 -114 3 -82 48 -51 94 -28 54 -14 68 0 80 0 60 8 68 16 75 rrcurveto
          38 179 67 137 97 94 96 94 99 48 103 3 105 0 66 -8 27 -17 9 -5 8 -3 8 0 18 0 17 6 16 12 31 24 15 29 0 34 0 69 -96 35 -193 0 -168 0 -149 -66 -130 -133 rrcurveto
          -125 -133 -89 -180 -52 -227 -18 -81 -8 -76 0 -70 0 -112 22 -98 44 -85 73 -133 121 -66 168 0 rrcurveto
          endchar
        </CharString>
        <CharString name="D">
          0 483 180 rmoveto
          -32 hlineto
          -12 0 -9 4 -5 7 -5 7 -3 8 0 8 0 4 68 321 135 638 3 12 6 10 10 8 10 8 11 4 12 0 51 0 49 -1 45 -3 45 -3 41 -9 37 -13 89 -34 45 -73 0 -112 rrcurveto
          0 -74 -15 -107 -32 -138 -34 -167 -60 -120 -85 -74 -86 -74 -122 -37 -157 0 rrcurveto
          -38 -180 rmoveto
          143 0 123 22 101 43 101 43 83 70 65 96 65 96 48 126 33 156 rrcurveto
          29 136 rlineto
          17 80 9 72 0 64 0 160 -56 111 -112 62 -77 42 -104 21 -131 0 rrcurveto
          -201 hlineto
          -25 0 -24 -9 -22 -18 -22 -19 -14 -22 -6 -26 -173 -813 -87 -411 0 -7 0 -19 6 -15 10 -14 14 -18 20 -9 26 0 rrcurveto
          endchar
        </CharString>
        <CharString name="E">
          0 967 hmoveto
          25 0 24 9 21 17 28 23 14 28 0 32 0 17 -5 15 -10 13 -14 17 -19 9 -25 0 rrcurveto
          -525 hlineto
          -22 0 -12 11 0 22 0 4 25 118 49 233 3 12 6 10 10 8 10 8 11 4 12 0 rrcurveto
          468 hlineto
          25 0 23 9 21 17 28 23 14 28 0 32 0 17 -5 15 -10 13 -13 17 -20 9 -25 0 rrcurveto
          -468 hlineto
          -12 0 -9 4 -5 7 -6 8 -3 7 0 9 0 3 25 118 50 231 3 12 6 10 10 9 9 8 11 4 12 0 rrcurveto
          525 hlineto
          25 0 23 9 21 17 28 23 14 28 0 32 0 17 -5 15 -10 13 -13 17 -20 9 -25 0 rrcurveto
          -653 hlineto
          -26 0 -24 -9 -22 -18 -22 -18 -14 -22 -6 -26 -173 -815 -87 -411 0 -7 0 -18 6 -15 10 -14 14 -18 20 -9 26 0 rrcurveto
          endchar
        </CharString>
        <CharString name="F">
          0 304 -30 rmoveto
          25 0 23 9 21 17 21 17 13 22 6 25 rrcurveto
          108 508 rlineto
          3 12 6 10 10 8 10 8 11 4 12 0 rrcurveto
          460 hlineto
          25 0 23 9 21 17 28 23 14 28 0 32 0 17 -5 15 -10 13 -13 17 -20 9 -25 0 rrcurveto
          -460 hlineto
          -12 0 -9 4 -5 7 -6 8 -3 7 0 9 0 3 25 118 50 231 3 12 6 10 10 9 9 8 11 4 12 0 rrcurveto
          537 hlineto
          25 0 23 9 21 17 28 23 14 28 0 32 0 17 -5 15 -10 13 -13 17 -20 9 -25 0 rrcurveto
          -665 hlineto
          -26 0 -24 -9 -22 -18 -22 -18 -14 -22 -6 -26 -178 -837 -89 -422 0 -6 0 -18 6 -15 10 -13 13 -17 19 -9 25 0 rrcurveto
          endchar
        </CharString>
        <CharString name="G">
          0 600 -30 rmoveto
          146 0 134 55 121 110 30 28 19 34 9 40 64 303 32 153 0 4 0 9 -2 7 -4 6 -7 9 -9 5 -12 0 rrcurveto
          -320 hlineto
          -21 0 -20 -7 -21 -15 -28 -21 -14 -29 0 -36 0 -20 6 -16 11 -12 15 -18 18 -9 21 0 rrcurveto
          150 hlineto
          22 0 11 -9 0 -18 0 -4 -18 -84 -35 -165 -5 -23 -12 -18 -20 -14 -65 -43 -68 -21 -70 0 -108 0 -70 42 -33 85 -17 45 -9 53 0 62 0 54 7 60 13 66 rrcurveto
          35 167 rlineto
          15 72 24 70 32 67 39 86 47 64 55 43 54 42 62 21 71 0 114 0 62 -69 9 -138 3 -43 24 -22 46 0 23 0 22 9 19 17 27 23 13 28 0 33 rrcurveto
          12 vlineto
          -10 220 -108 110 -205 0 -126 0 -103 -33 -81 -66 -150 -122 -103 -183 -55 -243 rrcurveto
          -35 -165 rlineto
          -12 -64 -6 -62 0 -62 0 -160 37 -122 74 -84 55 -63 82 -31 109 0 rrcurveto
          endchar
        </CharString>
        <CharString name="H">
          0 944 -30 rmoveto
          25 0 23 9 21 17 21 17 13 22 6 25 183 859 91 433 0 7 0 17 -5 15 -10 13 -13 17 -20 9 -25 0 -25 0 -22 -9 -21 -17 -21 -17 -14 -22 -6 -25 rrcurveto
          -108 -507 rlineto
          -3 -12 -6 -10 -10 -8 -10 -9 -11 -4 -12 0 rrcurveto
          -434 hlineto
          -12 0 -9 4 -5 7 -5 7 -3 8 0 8 0 3 18 88 37 172 36 175 19 91 0 6 0 17 -5 15 -10 13 -13 17 -20 9 -25 0 -25 0 -22 -9 -21 -17 -21 -17 -14 -22 -6 -25 rrcurveto
          -182 -859 -92 -433 0 -6 0 -18 6 -15 10 -13 13 -17 19 -9 25 0 25 0 23 9 21 17 21 17 13 22 6 25 rrcurveto
          108 508 rlineto
          3 12 6 10 10 8 10 8 11 4 12 0 rrcurveto
          434 hlineto
          12 0 9 -3 5 -7 6 -7 3 -8 0 -8 0 -3 -18 -88 -37 -172 -37 -176 -19 -90 0 -6 0 -18 6 -15 10 -13 13 -17 19 -9 25 0 rrcurveto
          endchar
        </CharString>
        <CharString name="I">
          0 920 hmoveto
          25 0 23 9 21 17 28 23 14 28 0 32 0 17 -5 15 -10 13 -14 17 -19 9 -25 0 rrcurveto
          -187 hlineto
          -12 0 -9 4 -5 7 -6 8 -3 7 0 9 0 3 68 321 136 638 3 12 6 10 10 8 10 8 11 4 12 0 rrcurveto
          187 hlineto
          25 0 23 9 21 17 28 23 14 28 0 32 0 18 -5 15 -10 13 -13 17 -20 9 -25 0 rrcurveto
          -640 hlineto
          -25 0 -22 -9 -21 -17 -29 -23 -14 -28 0 -32 0 -18 6 -15 10 -13 13 -17 19 -9 25 0 rrcurveto
          187 hlineto
          12 0 9 -3 5 -7 6 -7 3 -8 0 -8 0 -4 -68 -321 -136 -638 -3 -12 -6 -10 -10 -8 -10 -9 -11 -4 -12 0 rrcurveto
          -187 hlineto
          -25 0 -22 -9 -21 -17 -29 -23 -14 -28 0 -31 0 -18 6 -15 10 -13 13 -17 19 -9 25 0 rrcurveto
          endchar
        </CharString>
        <CharString name="J">
          0 583 -30 rmoveto
          110 0 101 37 93 73 93 73 60 93 27 115 135 637 68 322 0 6 0 18 -5 16 -11 13 -15 18 -20 9 -25 0 rrcurveto
          -403 hlineto
          -25 0 -23 -9 -21 -17 -28 -23 -15 -27 0 -32 0 -17 6 -15 10 -14 13 -18 19 -9 25 0 rrcurveto
          276 hlineto
          22 0 11 -10 0 -20 0 -4 -58 -275 -116 -549 -13 -57 -31 -50 -49 -42 -34 -28 -33 -18 -32 -8 -32 -9 -37 -4 -42 0 -63 0 -48 15 -33 29 -33 29 -19 37 -3 45 -2 19 -8 16 -13 12 rrcurveto
          -14 11 -17 6 -21 0 -25 0 -24 -9 -21 -18 -29 -25 -15 -33 0 -41 0 -50 22 -51 45 -51 47 -59 63 -36 80 -12 39 -6 43 -3 48 0 rrcurveto
          endchar
        </CharString>
        <CharString name="K">
          0 995 -30 rmoveto
          26 0 23 9 21 18 27 23 14 27 0 30 0 9 -1 8 -3 9 -180 459 -91 232 0 4 1 13 5 11 11 11 rrcurveto
          426 451 rlineto
          22 23 11 25 0 25 0 17 -5 15 -9 14 -13 18 -19 9 -26 0 -28 0 -26 -11 -24 -23 rrcurveto
          -519 -544 rlineto
          -12 -11 -12 -5 -12 0 -11 0 -9 3 -7 7 -6 7 -3 7 0 9 0 3 17 80 33 158 34 160 17 83 0 6 0 17 -5 15 -10 13 -13 17 -20 9 -25 0 -25 0 -22 -9 -21 -17 rrcurveto
          -21 -17 -14 -22 -6 -25 -183 -859 -92 -433 0 -7 0 -17 6 -15 10 -13 14 -17 19 -9 25 0 25 0 23 9 21 17 21 17 13 21 6 25 rrcurveto
          77 362 rlineto
          3 21 11 19 17 17 rrcurveto
          118 130 rlineto
          13 11 12 5 13 0 15 0 11 -7 6 -15 rrcurveto
          236 -586 rlineto
          14 -31 23 -15 33 0 rrcurveto
          endchar
        </CharString>
        <CharString name="L">
          0 982 hmoveto
          25 0 22 9 21 17 27 24 14 27 0 32 0 17 -5 15 -9 13 -13 17 -20 9 -27 0 rrcurveto
          -462 hlineto
          -25 0 -17 7 -11 15 -11 14 -5 16 0 16 0 6 38 186 77 363 77 364 39 185 0 6 0 17 -4 15 -9 13 -12 18 -20 9 -27 0 -27 0 -23 -9 -21 -17 -21 -17 -13 -22 -5 -25 rrcurveto
          -172 -811 -86 -411 0 -10 0 -26 7 -23 16 -19 21 -27 29 -13 39 0 rrcurveto
          endchar
        </CharString>
        <CharString name="M">
          0 962 -30 rmoveto
          24 0 23 9 21 18 21 17 14 22 6 25 180 847 90 428 0 8 0 21 -6 18 -12 16 -17 21 -24 10 -29 0 -21 0 -21 -6 -21 -12 -21 -12 -17 -16 -13 -20 -225 -377 -115 -191 -7 -7 rrcurveto
          -7 -7 -10 -3 -11 0 -11 0 -8 3 -4 6 -3 7 -35 191 -65 378 -4 20 -10 16 -15 12 -16 12 -19 6 -22 0 -29 0 -28 -10 -25 -21 -25 -21 -16 -26 -7 -31 -180 -845 -90 -427 0 -6 rrcurveto
          0 -18 6 -15 10 -13 13 -18 19 -9 25 0 23 0 23 9 21 18 21 17 14 22 7 25 rrcurveto
          177 833 rlineto
          4 14 8 7 12 0 8 0 5 -4 2 -8 rrcurveto
          58 -348 rlineto
          5 -23 11 -17 17 -12 17 -12 20 -6 23 0 23 0 24 6 23 13 23 13 18 17 13 21 rrcurveto
          206 348 rlineto
          6 8 7 4 8 0 11 0 6 -5 0 -10 rrcurveto
          -89 -422 rlineto
          -61 -284 -30 -145 0 -6 0 -18 6 -15 10 -13 13 -18 19 -9 25 0 rrcurveto
          endchar
        </CharString>
        <CharString name="N">
          0 934 -30 rmoveto
          30 0 28 11 26 21 25 21 17 26 7 31 180 846 90 426 0 7 0 17 -5 15 -10 13 -13 17 -20 9 -25 0 -25 0 -22 -9 -21 -17 -21 -17 -14 -22 -6 -25 rrcurveto
          -187 -880 rlineto
          -3 -14 -8 -7 -14 0 -7 0 -4 4 -3 8 rrcurveto
          -279 916 rlineto
          -16 42 -29 21 -41 0 -30 0 -28 -10 -25 -21 -26 -21 -17 -26 -7 -31 -180 -845 -90 -427 0 -6 0 -18 6 -15 10 -13 13 -18 19 -9 25 0 25 0 23 9 21 18 21 17 13 22 6 25 rrcurveto
          188 880 rlineto
          3 13 7 7 13 0 9 0 5 -4 2 -7 rrcurveto
          278 -916 rlineto
          17 -43 28 -21 41 0 rrcurveto
          endchar
        </CharString>
        <CharString name="O">
          0 632 150 rmoveto
          -47 0 -37 12 -27 23 -28 23 -20 30 -13 39 -13 38 -7 34 -1 29 -1 30 -1 20 0 11 0 74 11 87 21 100 30 143 44 121 57 99 72 125 89 62 105 0 46 0 37 -12 28 -23 rrcurveto
          27 -23 20 -31 13 -39 13 -39 7 -33 1 -29 1 -29 0 -19 0 -10 0 -82 -10 -88 -20 -93 -29 -140 -43 -120 -58 -100 -73 -127 -89 -63 -105 0 rrcurveto
          -38 -180 rmoveto
          79 0 69 16 61 31 61 31 53 41 45 51 45 51 38 58 33 63 32 63 27 66 21 67 21 67 17 64 13 61 13 61 9 57 6 53 5 53 3 46 0 37 0 282 -113 141 -227 0 rrcurveto
          -145 0 -122 -57 -100 -113 -84 -95 -66 -123 -48 -150 -58 -182 -29 -166 0 -150 0 -102 15 -85 30 -66 51 -114 99 -57 146 0 rrcurveto
          endchar
        </CharString>
        <CharString name="P">
          0 835 740 rmoveto
          -235 hlineto
          -12 0 -9 4 -5 7 -5 7 -3 8 0 8 0 4 29 134 56 265 3 12 6 10 10 8 9 8 11 4 12 0 rrcurveto
          235 hlineto
          55 0 41 -16 26 -32 26 -32 13 -37 0 -42 0 -21 -2 -22 -5 -24 -19 -91 -34 -64 -47 -37 -49 -41 -52 -20 -55 0 rrcurveto
          -531 -770 rmoveto
          25 0 23 9 21 17 21 17 13 22 6 25 rrcurveto
          97 457 rlineto
          3 12 7 10 10 9 9 8 11 4 12 0 rrcurveto
          234 hlineto
          105 0 97 40 91 79 91 79 60 104 31 131 9 42 4 37 0 34 0 68 -21 60 -41 52 -59 76 -83 38 -105 0 rrcurveto
          -364 hlineto
          -25 0 -24 -9 -21 -18 -22 -19 -14 -22 -7 -26 -178 -836 -89 -422 0 -6 0 -18 6 -15 10 -13 13 -17 19 -9 25 0 rrcurveto
          endchar
        </CharString>
        <CharString name="Q">
          0 632 150 rmoveto
          -47 0 -37 12 -27 23 -28 23 -20 30 -13 39 -13 38 -7 34 -1 29 -1 30 -1 20 0 11 0 74 11 87 21 100 30 143 44 121 57 99 72 125 89 62 105 0 46 0 37 -12 28 -23 rrcurveto
          27 -23 20 -31 13 -39 13 -39 7 -33 1 -29 1 -29 0 -19 0 -10 0 -82 -10 -88 -20 -93 -29 -140 -43 -120 -58 -100 -73 -127 -89 -63 -105 0 rrcurveto
          -38 -180 rmoveto
          79 0 69 16 61 31 61 31 53 41 45 51 45 51 38 58 33 63 32 63 27 66 21 67 21 67 17 64 13 61 13 61 9 57 6 53 5 53 3 46 0 37 0 282 -113 141 -227 0 rrcurveto
          -145 0 -122 -57 -100 -113 -84 -95 -66 -123 -48 -150 -58 -182 -29 -166 0 -150 0 -102 15 -85 30 -66 51 -114 99 -57 146 0 rrcurveto
          303 -391 rmoveto
          25 0 23 9 21 18 28 24 14 27 0 31 0 33 -14 22 -29 11 rrcurveto
          -360 142 rlineto
          -9 4 -10 2 -10 0 -25 0 -23 -9 -21 -18 -28 -24 -15 -27 0 -29 0 -12 3 -11 5 -11 7 -16 12 -11 16 -7 rrcurveto
          360 -142 rlineto
          10 -4 10 -2 10 0 rrcurveto
          endchar
        </CharString>
        <CharString name="R">
          0 798 750 rmoveto
          -224 hlineto
          -12 0 -9 4 -5 7 -6 8 -3 7 0 9 0 3 28 131 55 258 3 12 6 10 10 8 9 8 11 4 12 0 rrcurveto
          225 hlineto
          37 0 32 -8 27 -15 44 -26 22 -43 0 -62 0 -21 -3 -24 -5 -26 -19 -79 -33 -60 -49 -42 -49 -42 -51 -21 -53 0 rrcurveto
          163 -780 rmoveto
          26 0 23 9 21 18 28 24 14 29 0 33 0 7 -1 7 -3 6 -126 296 -63 150 0 4 rrcurveto
          1 10 rlineto
          5 19 11 13 17 8 73 29 65 47 59 67 58 67 40 82 23 99 10 44 4 39 0 34 0 65 -21 58 -42 52 -60 76 -83 38 -105 0 rrcurveto
          -353 hlineto
          -26 0 -24 -9 -22 -18 -22 -19 -14 -22 -6 -26 -178 -835 -89 -422 0 -7 0 -18 6 -15 10 -13 14 -17 20 -9 25 0 24 0 23 9 21 18 21 17 13 22 6 25 rrcurveto
          99 466 rlineto
          3 12 6 10 11 9 10 8 11 4 12 0 rrcurveto
          108 hlineto
          15 0 11 -7 6 -15 rrcurveto
          216 -532 rlineto
          14 -31 23 -15 32 0 rrcurveto
          endchar
        </CharString>
        <CharString name="S">
          0 604 -30 rmoveto
          82 0 72 14 63 29 63 28 60 43 58 58 57 57 38 71 18 85 6 27 3 27 0 25 0 104 -50 86 -100 69 -45 31 -64 31 -83 31 -127 47 -64 70 0 94 0 14 2 15 3 16 rrcurveto
          14 66 33 52 53 37 53 37 60 18 69 0 58 0 49 -11 40 -23 39 -23 23 -30 7 -37 7 -49 23 -24 40 0 51 0 32 29 12 59 2 9 1 10 0 11 -1 74 -30 61 -61 49 rrcurveto
          -61 49 -88 24 -114 0 -74 0 -70 -15 -65 -29 -65 -30 -59 -45 -53 -60 -53 -60 -36 -77 -21 -93 -5 -26 -3 -25 0 -24 0 -149 103 -113 205 -79 38 -14 38 -18 38 -21 78 -40 39 -50 0 -60 rrcurveto
          0 -10 -2 -11 -2 -11 -17 -82 -49 -61 -80 -39 -49 -23 -50 -12 -50 0 -106 3 -83 52 -61 101 -18 32 -23 16 -28 0 -26 0 -23 -9 -19 -19 -19 -19 -13 -24 -6 -28 -1 -6 -1 -6 0 -5 rrcurveto
          0 -5 1 -5 1 -5 14 -61 43 -57 73 -55 72 -55 85 -28 99 0 rrcurveto
          endchar
        </CharString>
        <CharString name="T">
          0 594 -30 rmoveto
          25 0 23 9 21 17 21 17 13 22 6 25 rrcurveto
          237 1117 rlineto
          3 13 7 10 10 8 9 8 11 4 12 0 rrcurveto
          248 hlineto
          25 0 23 9 21 17 28 22 14 28 0 32 0 18 -5 15 -10 13 -14 17 -19 9 -25 0 rrcurveto
          -761 hlineto
          -25 0 -22 -9 -21 -17 -29 -23 -14 -28 0 -32 0 -18 6 -14 10 -13 13 -17 19 -9 25 0 rrcurveto
          248 hlineto
          23 0 11 -10 0 -21 0 -4 -40 -190 -80 -378 -80 -378 -40 -191 0 -6 0 -18 6 -15 10 -13 13 -17 19 -9 25 0 rrcurveto
          endchar
        </CharString>
        <CharString name="U">
          0 593 -30 rmoveto
          137 0 118 48 98 96 98 95 67 129 35 163 121 568 60 287 0 7 0 17 -5 15 -10 13 -13 17 -20 9 -25 0 -25 0 -22 -9 -21 -17 -21 -17 -14 -22 -6 -25 rrcurveto
          -179 -843 rlineto
          -14 -67 -22 -59 -30 -51 -31 -52 -37 -41 -45 -30 -45 -31 -52 -15 -58 0 -57 0 -45 16 -31 31 -32 31 -19 33 -6 36 -5 37 -3 29 0 22 0 35 4 37 8 39 121 568 61 287 0 7 rrcurveto
          0 17 -5 15 -10 13 -14 17 -19 9 -25 0 -25 0 -23 -9 -21 -17 -21 -17 -14 -22 -6 -25 rrcurveto
          -179 -843 rlineto
          -12 -59 -7 -55 0 -50 0 -136 42 -100 83 -65 56 -44 74 -22 91 0 rrcurveto
          endchar
        </CharString>
        <CharString name="V">
          0 597 -13 rmoveto
          27 0 25 8 24 17 24 17 19 21 13 26 419 846 209 426 1 7 1 7 1 6 0 6 0 17 -5 15 -9 14 -13 18 -20 9 -25 0 -21 0 -19 -6 -19 -12 -19 -13 -15 -16 -9 -20 rrcurveto
          -482 -984 rlineto
          -4 -9 -8 -4 -11 0 -10 1 -5 4 0 8 rrcurveto
          -65 984 rlineto
          -2 20 -7 16 -13 13 -13 12 -17 6 -20 0 -23 0 -22 -8 -22 -17 -22 -17 -14 -22 -7 -26 -1 -5 -1 -6 0 -6 rrcurveto
          76 -1264 rlineto
          2 -29 10 -22 19 -15 19 -15 24 -8 30 0 rrcurveto
          endchar
        </CharString>
        <CharString name="W">
          0 900 -30 rmoveto
          29 0 28 10 25 20 25 19 16 25 8 30 227 849 113 428 0 8 0 17 -5 15 -11 13 -15 17 -20 9 -25 0 -24 0 -23 -8 -21 -17 -21 -17 -14 -21 -7 -25 -152 -584 -78 -294 -4 -4 rrcurveto
          -3 -3 -5 -2 -5 0 -8 0 -5 5 -2 9 rrcurveto
          -26 459 rlineto
          -3 21 -9 17 -16 13 -16 13 -19 6 -22 0 -22 0 -21 -6 -21 -13 -21 -13 -17 -16 -11 -21 -152 -311 -78 -156 -3 -3 -4 -3 -4 -1 -4 0 -8 0 -4 4 0 9 rrcurveto
          71 440 rlineto
          48 294 24 150 0 5 0 19 -5 16 -11 13 -13 17 -19 8 -25 0 -25 0 -23 -8 -21 -17 -22 -17 -14 -20 -6 -25 -135 -851 -68 -428 0 -6 0 -23 7 -19 14 -16 17 -20 22 -10 29 0 rrcurveto
          23 0 23 7 21 13 21 13 18 18 13 23 rrcurveto
          323 635 rlineto
          5 9 6 4 7 0 7 0 5 -4 1 -9 rrcurveto
          52 -633 rlineto
          3 -23 9 -18 17 -14 17 -14 19 -7 23 0 rrcurveto
          endchar
        </CharString>
        <CharString name="X">
          0 955 -30 rmoveto
          27 0 23 10 21 19 28 25 14 28 0 31 0 9 -1 8 -3 9 -134 392 -67 197 0 4 0 11 3 10 7 10 rrcurveto
          419 557 rlineto
          15 21 8 21 0 23 0 17 -5 16 -9 14 -13 19 -19 9 -27 0 -34 0 -31 -17 -27 -33 rrcurveto
          -336 -459 rlineto
          -6 -7 -6 -4 -6 0 -6 0 -4 4 -3 7 rrcurveto
          -141 459 rlineto
          -13 33 -24 17 -36 0 -27 0 -23 -9 -21 -19 -28 -26 -14 -29 0 -31 0 -8 1 -9 3 -9 123 -375 61 -190 0 -4 0 -10 -4 -10 -7 -9 rrcurveto
          -448 -583 rlineto
          -15 -22 -8 -22 0 -23 0 -17 5 -15 10 -13 14 -18 20 -9 27 0 32 0 30 16 28 33 rrcurveto
          371 505 rlineto
          5 6 5 3 7 0 7 0 5 -3 1 -6 rrcurveto
          154 -505 rlineto
          14 -33 24 -16 34 0 rrcurveto
          endchar
        </CharString>
        <CharString name="Y">
          0 594 -30 rmoveto
          25 0 23 9 21 18 21 17 13 22 6 25 rrcurveto
          134 632 rlineto
          3 14 7 14 10 13 rrcurveto
          435 562 rlineto
          15 21 8 21 0 22 0 16 -5 15 -9 13 -13 17 -19 9 -25 0 -16 0 -16 -4 -17 -7 -17 -8 -13 -11 -11 -14 rrcurveto
          -313 -405 rlineto
          -12 -13 -13 -7 -14 0 -15 0 -10 7 -6 13 rrcurveto
          -137 405 rlineto
          -11 29 -24 15 -38 0 -25 0 -23 -9 -20 -17 -28 -23 -13 -27 0 -30 0 -10 1 -9 4 -9 134 -383 67 -196 0 -7 0 -7 -23 -112 -46 -216 -46 -216 -23 -110 0 -6 0 -18 6 -15 10 -13 rrcurveto
          14 -18 19 -9 25 0 rrcurveto
          endchar
        </CharString>
        <CharString name="Z">
          0 940 hmoveto
          25 0 23 9 21 17 28 23 14 28 0 32 0 17 -5 15 -10 13 -13 17 -20 9 -25 0 rrcurveto
          -482 hlineto
          -23 0 -11 11 0 22 0 12 4 11 7 10 rrcurveto
          792 944 rlineto
          24 31 12 34 0 37 0 26 -7 23 -15 19 -21 27 -30 13 -39 0 rrcurveto
          -630 hlineto
          -24 0 -23 -9 -21 -17 -28 -23 -15 -28 0 -31 0 -18 6 -15 10 -13 14 -18 19 -9 24 0 rrcurveto
          482 hlineto
          24 0 12 -10 0 -21 0 -12 -4 -11 -7 -9 rrcurveto
          -792 -944 rlineto
          -25 -31 -13 -33 0 -36 0 -27 8 -24 16 -20 21 -27 30 -14 39 0 rrcurveto
          endchar
        </CharString>
        <CharString name="a">
          0 478 166 rmoveto
          -79 0 -40 46 0 93 0 30 4 35 9 41 21 93 36 82 49 69 49 69 53 55 55 40 55 39 50 20 47 0 57 0 39 -32 21 -65 7 -24 4 -26 0 -27 0 -20 -2 -20 -4 -21 rrcurveto
          -31 -144 -54 -115 -79 -86 -81 -86 -89 -44 -97 -2 rrcurveto
          493 -196 rmoveto
          81 0 59 20 36 40 9 10 4 11 0 13 0 11 -4 11 -7 9 -8 9 -10 5 -11 0 -9 0 -9 -2 -9 -4 -14 -7 -11 -3 -8 0 -30 0 -15 33 -1 65 0 75 9 83 19 90 rrcurveto
          47 222 49 187 51 151 2 8 1 6 0 5 0 13 -5 12 -10 9 -17 19 -21 10 -23 0 -51 0 -34 -24 -19 -48 -5 -13 -8 -7 -9 0 -8 0 -6 3 -4 7 -35 53 -47 28 -61 1 rrcurveto
          -88 0 -87 -32 -87 -65 -87 -65 -79 -82 -69 -101 -70 -101 -48 -112 -26 -121 -12 -55 -6 -51 0 -45 0 -69 14 -57 28 -45 47 -73 71 -36 97 0 73 0 75 21 75 41 75 41 53 41 31 41 rrcurveto
          7 9 7 5 9 0 12 0 7 -9 1 -19 3 -71 15 -47 26 -25 19 -19 25 -10 31 0 rrcurveto
          endchar
        </CharString>
        <CharString name="ampersand">
          0 507 -30 rmoveto
          91 0 97 32 102 65 102 64 90 86 79 109 78 108 48 97 18 87 1 6 1 5 0 6 0 14 -4 13 -9 12 -12 17 -19 8 -27 0 -43 0 -33 -30 -25 -59 -53 -121 -70 -101 -85 -81 rrcurveto
          -101 -94 -95 -47 -90 0 -105 0 -53 45 0 91 0 21 3 23 5 25 17 81 31 73 44 66 -39 42 -35 43 -29 45 -84 -95 -57 -116 -29 -139 -8 -37 -4 -35 0 -33 0 -69 17 -59 33 -52 rrcurveto
          49 -77 84 -39 119 0 rrcurveto
          510 hmoveto
          25 0 23 9 21 19 28 25 14 30 0 37 0 31 -8 39 -16 48 -47 -65 -48 -51 -47 -38 -2 -9 0 -9 0 -8 0 -39 19 -19 38 0 rrcurveto
          -229 445 rmoveto
          33 23 44 58 55 93 rrcurveto
          -222 277 rlineto
          -53 65 -27 60 0 56 0 12 2 12 2 12 11 48 23 40 35 32 35 31 43 16 51 0 39 0 32 -10 25 -19 24 -20 17 -27 9 -35 9 -35 23 -17 39 0 24 0 22 9 21 18 rrcurveto
          26 23 13 25 0 28 0 7 0 8 -2 10 -13 71 -31 54 -51 36 -51 36 -66 18 -81 0 -92 0 -87 -31 -81 -63 -81 -63 -52 -85 -23 -107 -5 -23 -2 -22 0 -23 0 -86 35 -86 71 -86 rrcurveto
          endchar
        </CharString>
        <CharString name="ampersand_ampersand">
          0 -633 -30 rmoveto
          91 0 97 32 102 65 102 64 90 86 79 109 78 108 48 97 18 87 1 6 1 5 0 6 0 14 -4 13 -9 12 -12 17 -19 8 -27 0 -43 0 -33 -30 -25 -59 -53 -121 -70 -101 -85 -81 rrcurveto
          -101 -94 -95 -47 -90 0 -105 0 -53 45 0 91 0 21 3 23 5 25 17 81 31 73 44 66 -39 42 -35 43 -29 45 -84 -95 -57 -116 -29 -139 -8 -37 -4 -35 0 -33 0 -69 17 -59 33 -52 rrcurveto
          49 -77 84 -39 119 0 rrcurveto
          510 hmoveto
          25 0 23 9 21 19 28 25 14 30 0 37 0 31 -8 39 -16 48 -47 -65 -48 -51 -47 -38 -2 -9 0 -9 0 -8 0 -39 19 -19 38 0 rrcurveto
          851 445 rmoveto
          33 23 44 58 55 93 rrcurveto
          -222 277 rlineto
          -53 65 -27 60 0 56 0 12 2 12 2 12 11 48 23 40 35 32 35 31 43 16 51 0 39 0 32 -10 25 -19 24 -20 17 -27 9 -35 9 -35 23 -17 39 0 24 0 22 9 21 18 rrcurveto
          26 23 13 25 0 28 0 7 0 8 -2 10 -13 71 -31 54 -51 36 -51 36 -66 18 -81 0 -92 0 -87 -31 -81 -63 -81 -63 -52 -85 -23 -107 -5 -23 -2 -22 0 -23 0 -86 35 -86 71 -86 rrcurveto
          -24 -785 rmoveto
          91 0 97 32 102 65 102 64 90 86 79 109 78 108 48 97 18 87 1 6 1 5 0 6 0 14 -4 13 -9 12 -12 17 -19 8 -27 0 -43 0 -33 -30 -25 -59 -53 -121 -70 -101 -85 -81 rrcurveto
          -101 -94 -95 -47 -90 0 -105 0 -53 45 0 91 0 21 3 23 5 25 17 81 31 73 44 66 -39 42 -35 43 -29 45 -84 -95 -57 -116 -29 -139 -8 -37 -4 -35 0 -33 0 -69 17 -59 33 -52 rrcurveto
          49 -77 84 -39 119 0 rrcurveto
          510 hmoveto
          25 0 23 9 21 19 28 25 14 30 0 37 0 31 -8 39 -16 48 -47 -65 -48 -51 -47 -38 -2 -9 0 -9 0 -8 0 -39 19 -19 38 0 rrcurveto
          -1309 445 rmoveto
          33 23 44 58 55 93 rrcurveto
          -222 277 rlineto
          -53 65 -27 60 0 56 0 12 2 12 2 12 11 48 23 40 35 32 35 31 43 16 51 0 39 0 32 -10 25 -19 24 -20 17 -27 9 -35 9 -35 23 -17 39 0 24 0 22 9 21 18 rrcurveto
          26 23 13 25 0 28 0 7 0 8 -2 10 -13 71 -31 54 -51 36 -51 36 -66 18 -81 0 -92 0 -87 -31 -81 -63 -81 -63 -52 -85 -23 -107 -5 -23 -2 -22 0 -23 0 -86 35 -86 71 -86 rrcurveto
          endchar
        </CharString>
        <CharString name="asciicircum">
          0 1061 570 rmoveto
          14 0 14 4 15 7 46 26 22 33 0 41 0 9 -1 9 -4 7 rrcurveto
          -227 519 rlineto
          -16 31 -23 15 -29 0 -32 0 -31 -15 -29 -31 rrcurveto
          -448 -517 rlineto
          -16 -23 -8 -21 0 -20 0 -23 9 -19 19 -17 15 -9 15 -5 16 0 31 0 29 15 27 29 rrcurveto
          317 380 rlineto
          9 9 9 4 9 0 9 0 7 -4 5 -9 rrcurveto
          158 -378 rlineto
          15 -31 23 -16 31 0 rrcurveto
          endchar
        </CharString>
        <CharString name="asciitilde">
          0 890 482 rmoveto
          82 0 72 33 63 65 56 60 35 62 14 64 1 8 1 7 0 7 0 47 -23 23 -45 0 -44 0 -32 -27 -19 -53 -25 -72 -38 -36 -49 0 -25 0 -18 5 -11 10 -26 22 -26 34 -25 46 rrcurveto
          -49 87 -66 44 -81 0 -86 0 -75 -33 -64 -67 -53 -57 -34 -61 -14 -65 -2 -10 -1 -9 0 -9 0 -16 4 -13 7 -11 11 -17 17 -8 24 0 25 0 23 7 19 15 19 15 12 20 7 25 rrcurveto
          20 72 39 36 58 0 39 0 43 -40 45 -79 53 -87 65 -44 77 0 rrcurveto
          endchar
        </CharString>
        <CharString name="asciitilde_at">
          0 1098 288 rmoveto
          59 0 36 25 13 49 27 103 21 89 15 74 58 274 -11 200 -81 126 -89 135 -126 67 -162 0 -206 -1 -189 -83 -173 -165 -132 -123 -103 -141 -74 -159 -59 -125 -74 -63 -90 0 -51 0 -32 5 -12 10 rrcurveto
          -26 22 -25 34 -25 46 -49 87 -66 44 -81 0 -86 0 -75 -33 -64 -67 -54 -57 -37 -75 -19 -93 -6 -29 2 -22 11 -17 11 -17 18 -8 24 0 25 0 22 7 19 15 19 15 13 20 6 25 rrcurveto
          26 100 42 50 58 0 40 0 42 -40 46 -79 53 -87 78 -44 104 0 89 0 77 26 67 52 78 59 57 70 36 83 63 149 91 128 118 106 77 65 69 46 61 25 62 25 66 13 72 0 rrcurveto
          258 -5 102 -183 -53 -361 -10 -54 -17 -92 -26 -129 -14 -78 17 -39 49 0 rrcurveto
          -170 -318 rmoveto
          22 0 20 2 18 4 28 7 18 24 9 42 6 27 -2 19 -10 13 -12 15 -14 7 -17 0 -44 0 -34 2 -23 5 -59 13 -15 89 29 166 19 94 17 88 15 81 15 81 -8 70 -32 60 rrcurveto
          -31 59 -54 30 -76 0 -155 -1 -132 -104 -109 -205 -46 -91 -33 -94 -21 -95 -57 -272 37 -136 133 0 127 2 76 54 22 107 4 18 -1 15 -6 13 -6 12 -10 6 -13 0 -18 0 -16 -7 -15 -15 rrcurveto
          -25 -25 -24 -13 -23 0 -48 0 -7 81 35 162 19 89 26 74 33 59 67 119 67 59 69 0 26 0 20 -13 12 -27 13 -27 1 -36 -8 -47 rrcurveto
          -45 -250 rlineto
          -45 -231 43 -132 129 -33 38 -10 40 -4 41 0 rrcurveto
          endchar
        </CharString>
        <CharString name="asterisk">
          0 621 101 rmoveto
          25 0 23 9 22 18 21 17 14 21 5 25 rrcurveto
          53 252 193 -121 rlineto
          13 -7 14 -4 15 0 25 0 24 9 21 18 28 23 14 27 0 31 0 23 -10 20 -20 16 rrcurveto
          -193 122 244 122 rlineto
          43 26 21 32 0 39 0 16 -5 15 -10 13 -14 17 -20 9 -25 0 -15 0 -15 -4 -16 -7 rrcurveto
          -245 -122 rlineto
          37 175 18 91 0 6 0 16 -5 15 -10 13 -14 17 -19 9 -25 0 -25 0 -23 -9 -21 -17 -21 -18 -14 -21 -5 -25 rrcurveto
          -53 -252 -193 122 rlineto
          -13 7 -14 4 -15 0 -25 0 -23 -9 -21 -17 -29 -24 -14 -28 0 -32 0 -24 10 -19 20 -14 rrcurveto
          194 -122 -245 -122 rlineto
          -43 -26 -21 -33 0 -38 0 -17 5 -14 11 -13 14 -18 19 -9 25 0 15 0 16 4 15 7 rrcurveto
          245 122 rlineto
          -37 -175 -18 -91 0 -6 0 -16 5 -14 10 -13 13 -18 19 -9 25 0 rrcurveto
          endchar
        </CharString>
        <CharString name="asterisk_slash">
          0 -3 -200 rmoveto
          17 0 17 5 18 10 17 9 14 13 11 17 rrcurveto
          1065 1623 rlineto
          12 19 6 18 0 18 0 10 -2 10 -4 10 -11 27 -23 14 -33 0 -17 0 -17 -5 -17 -9 -17 -9 -15 -13 -11 -17 rrcurveto
          -1065 -1623 rlineto
          -11 -18 -6 -19 0 -18 0 -10 2 -10 4 -10 11 -28 22 -14 33 0 rrcurveto
          -603 171 rmoveto
          25 0 23 9 21 18 21 17 14 21 5 25 rrcurveto
          54 252 193 -121 rlineto
          13 -7 13 -4 15 0 25 0 24 9 22 18 27 22 14 27 0 32 0 23 -10 20 -20 16 rrcurveto
          -193 122 245 122 rlineto
          42 26 21 32 0 39 0 16 -5 15 -10 13 -14 17 -20 9 -25 0 -15 0 -15 -4 -16 -7 rrcurveto
          -245 -122 rlineto
          37 174 19 90 0 7 0 17 -5 15 -10 13 -14 17 -19 9 -25 0 -25 0 -23 -9 -21 -17 -22 -18 -13 -21 -5 -25 rrcurveto
          -54 -252 -193 122 rlineto
          -13 7 -14 4 -15 0 -25 0 -23 -9 -21 -17 -29 -24 -14 -28 0 -32 0 -24 10 -19 21 -14 rrcurveto
          193 -122 -245 -122 rlineto
          -42 -26 -22 -32 0 -38 0 -17 6 -15 10 -13 14 -18 19 -9 25 0 15 0 16 4 16 7 rrcurveto
          245 122 rlineto
          -37 -175 -19 -90 0 -7 0 -16 5 -14 10 -13 14 -18 19 -9 25 0 rrcurveto
          endchar
        </CharString>
        <CharString name="at">
          0 1098 288 rmoveto
          59 0 36 25 13 49 27 103 21 89 15 74 58 274 -11 200 -81 126 -89 135 -126 67 -162 0 -206 -1 -179 -85 -152 -167 -14 -16 -9 -20 -6 -24 -7 -35 3 -27 14 -18 15 -18 17 -9 22 0 rrcurveto
          25 0 22 9 19 17 64 59 60 47 55 35 56 35 63 17 72 0 258 -5 102 -183 -53 -361 -10 -54 -17 -92 -26 -129 -14 -78 17 -39 49 0 rrcurveto
          -170 -318 rmoveto
          22 0 20 2 18 4 28 7 18 24 9 42 6 27 -2 19 -10 13 -12 15 -14 7 -17 0 -44 0 -34 2 -23 5 -59 13 -15 89 29 166 19 94 17 88 15 81 15 81 -8 70 -32 60 rrcurveto
          -31 59 -54 30 -76 0 -155 -1 -132 -104 -109 -205 -46 -91 -33 -94 -21 -95 -57 -272 37 -136 133 0 127 2 76 54 22 107 4 18 -1 15 -6 13 -6 12 -10 6 -13 0 -18 0 -16 -7 -15 -15 rrcurveto
          -25 -25 -24 -13 -23 0 -48 0 -7 81 35 162 19 89 26 74 33 59 67 119 67 59 69 0 26 0 20 -13 12 -27 13 -27 1 -36 -8 -47 rrcurveto
          -45 -250 rlineto
          -45 -231 43 -132 129 -33 38 -10 40 -4 41 0 rrcurveto
          endchar
        </CharString>
        <CharString name="b">
          0 651 151 rmoveto
          -14 hlineto
          -54 0 -45 20 -35 39 -36 39 -18 43 0 49 0 20 2 21 5 23 rrcurveto
          45 213 rlineto
          13 61 38 59 63 57 57 49 62 24 67 0 85 0 55 -22 25 -45 24 -45 12 -49 0 -51 0 -45 -6 -52 -13 -60 -53 -228 -111 -116 -168 -4 rrcurveto
          -5 -181 rmoveto
          141 0 113 48 84 96 84 95 62 139 40 181 15 70 7 64 0 58 0 83 -15 71 -31 58 -53 98 -89 49 -125 0 -72 0 -77 -29 -82 -59 -15 -11 -14 -5 -11 0 -17 1 -8 7 0 15 rrcurveto
          0 4 15 70 29 135 34 159 17 84 0 8 0 17 -5 15 -11 12 -14 18 -19 9 -23 0 -23 0 -22 -9 -23 -17 -23 -18 -15 -23 -5 -27 -197 -925 -98 -466 0 -7 0 -16 5 -14 9 -12 rrcurveto
          13 -17 19 -9 25 0 49 0 36 30 21 61 8 23 10 12 12 0 7 0 7 -4 5 -7 63 -77 73 -38 84 0 rrcurveto
          endchar
        </CharString>
        <CharString name="backslash">
          0 917 -200 rmoveto
          33 0 29 14 23 28 18 21 8 22 0 21 0 7 -125 547 -252 1087 -4 17 -9 13 -13 9 -13 9 -15 5 -17 0 -33 0 -28 -14 -23 -27 -18 -21 -9 -22 0 -23 0 -7 126 -546 252 -1086 rrcurveto
          5 -17 8 -13 13 -9 13 -10 14 -5 17 0 rrcurveto
          endchar
        </CharString>
        <CharString name="bar">
          0 551 -230 rmoveto
          24 0 23 9 22 18 22 18 13 21 5 24 239 1127 120 566 0 7 0 16 -5 15 -10 13 -15 17 -19 9 -24 0 -24 0 -23 -9 -21 -17 -22 -18 -14 -21 -5 -25 -239 -1125 -120 -566 0 -6 rrcurveto
          0 -17 6 -15 10 -14 14 -18 19 -9 24 0 rrcurveto
          endchar
        </CharString>
        <CharString name="bar_bar">
          0 351 -230 rmoveto
          24 0 23 9 22 18 22 18 13 21 5 24 239 1127 120 566 0 7 0 16 -5 15 -10 13 -15 17 -19 9 -24 0 -24 0 -23 -9 -21 -17 -22 -18 -14 -21 -5 -25 -239 -1125 -120 -566 0 -6 rrcurveto
          0 -17 6 -15 10 -14 14 -18 19 -9 24 0 rrcurveto
          -800 hmoveto
          24 0 23 9 22 18 22 18 13 21 5 24 239 1127 120 566 0 7 0 16 -5 15 -10 13 -15 17 -19 9 -24 0 -24 0 -23 -9 -21 -17 -22 -18 -14 -21 -5 -25 -239 -1125 -120 -566 0 -6 rrcurveto
          0 -17 6 -15 10 -14 14 -18 19 -9 24 0 rrcurveto
          endchar
        </CharString>
        <CharString name="boxdrawingsdoubledownandhorizontal">
          0 520 -1000 rmoveto
          1620 -530 -160 370 -1460 vlineto
          850 1780 rmoveto
          160 -1220 -160 vlineto
          850 -1780 rmoveto
          1460 370 160 -530 -1620 vlineto
          endchar
        </CharString>
        <CharString name="boxdrawingsdoubledownandleft">
          0 520 -1000 rmoveto
          1620 -530 -160 370 -1460 vlineto
          480 hmoveto
          1940 -850 -160 690 -1780 vlineto
          endchar
        </CharString>
        <CharString name="boxdrawingsdoubledownandright">
          0 840 -1000 rmoveto
          1460 370 160 -530 -1620 vlineto
          -160 hmoveto
          1780 690 160 -850 -1940 vlineto
          endchar
        </CharString>
        <CharString name="boxdrawingsdoublehorizontal">
          0 1210 460 rmoveto
          160 -1220 -160 vlineto
          1220 320 rmoveto
          160 -1220 -160 vlineto
          endchar
        </CharString>
        <CharString name="boxdrawingsdoubleupandhorizontal">
          0 1210 460 rmoveto
          160 -1220 -160 vlineto
          1220 320 rmoveto
          160 -370 1060 -160 -1220 vlineto
          -160 hmoveto
          1220 -160 -1060 -370 -160 vlineto
          endchar
        </CharString>
        <CharString name="boxdrawingsdoubleupandleft">
          0 520 780 rmoveto
          1220 -160 -1060 -370 -160 vlineto
          850 -320 rmoveto
          1540 -160 -1380 -690 -160 vlineto
          endchar
        </CharString>
        <CharString name="boxdrawingsdoubleupandright">
          0 1210 780 rmoveto
          160 -370 1060 -160 -1220 vlineto
          530 -320 rmoveto
          160 -690 1380 -160 -1540 vlineto
          endchar
        </CharString>
        <CharString name="boxdrawingsdoublevertical">
          0 520 -1000 rmoveto
          3000 -160 -3000 vlineto
          480 hmoveto
          3000 -160 -3000 vlineto
          endchar
        </CharString>
        <CharString name="boxdrawingsdoubleverticalandhorizontal">
          0 520 -1000 rmoveto
          1620 -530 -160 370 -1460 vlineto
          160 1780 rmoveto
          1220 -160 -1060 -370 -160 vlineto
          1220 hmoveto
          160 -370 1060 -160 -1220 vlineto
          160 -1780 rmoveto
          1460 370 160 -530 -1620 vlineto
          endchar
        </CharString>
        <CharString name="boxdrawingsdoubleverticalandleft">
          0 520 -1000 rmoveto
          1620 -530 -160 370 -1460 vlineto
          480 hmoveto
          3000 -160 -3000 vlineto
          -160 1780 rmoveto
          1220 -160 -1060 -370 -160 vlineto
          endchar
        </CharString>
        <CharString name="boxdrawingsdoubleverticalandright">
          0 840 -1000 rmoveto
          1460 370 160 -530 -1620 vlineto
          -160 hmoveto
          3000 -160 -3000 vlineto
          850 1780 rmoveto
          160 -370 1060 -160 -1220 vlineto
          endchar
        </CharString>
        <CharString name="boxdrawingsdowndoubleandhorizontalsingle">
          0 840 -1000 rmoveto
          1620 370 160 -1220 -160 370 -1620 160 1620 160 -1620 vlineto
          endchar
        </CharString>
        <CharString name="boxdrawingsdowndoubleandleftsingle">
          0 840 -1000 rmoveto
          1780 -850 -160 370 -1620 160 1620 160 -1620 vlineto
          endchar
        </CharString>
        <CharString name="boxdrawingsdowndoubleandrightsingle">
          0 840 -1000 rmoveto
          1620 370 160 -850 -1780 160 1620 160 -1620 vlineto
          endchar
        </CharString>
        <CharString name="boxdrawingsdownheavyandhorizontallight">
          0 840 -1000 rmoveto
          1620 370 160 -1220 -160 370 -1620 vlineto
          endchar
        </CharString>
        <CharString name="boxdrawingsdownheavyandleftlight">
          0 840 -1000 rmoveto
          1780 -850 -160 370 -1620 vlineto
          endchar
        </CharString>
        <CharString name="boxdrawingsdownheavyandleftuplight">
          0 840 -1000 rmoveto
          1780 -160 1220 -160 -1220 -530 -160 370 -1620 vlineto
          endchar
        </CharString>
        <CharString name="boxdrawingsdownheavyandrightlight">
          0 840 -1000 rmoveto
          1620 370 160 -850 -1780 vlineto
          endchar
        </CharString>
        <CharString name="boxdrawingsdownheavyandrightuplight">
          0 840 -1000 rmoveto
          1620 370 160 -530 1220 -160 -1220 -160 -1780 vlineto
          endchar
        </CharString>
        <CharString name="boxdrawingsdownheavyanduphorizontallight">
          0 840 -1000 rmoveto
          1620 370 160 -530 1220 -160 -1220 -530 -160 370 -1620 vlineto
          endchar
        </CharString>
        <CharString name="boxdrawingsdownlightandhorizontalheavy">
          0 680 -1000 rmoveto
          1460 530 480 -1220 -480 530 -1460 vlineto
          endchar
        </CharString>
        <CharString name="boxdrawingsdownlightandleftheavy">
          0 680 -1000 rmoveto
          1940 -690 -480 530 -1460 vlineto
          endchar
        </CharString>
        <CharString name="boxdrawingsdownlightandleftupheavy">
          0 680 -1000 rmoveto
          1460 160 1540 -480 -1060 -370 -480 530 -1460 vlineto
          endchar
        </CharString>
        <CharString name="boxdrawingsdownlightandrightheavy">
          0 680 -1000 rmoveto
          1460 530 480 -690 -1940 vlineto
          endchar
        </CharString>
        <CharString name="boxdrawingsdownlightandrightupheavy">
          0 680 -1000 rmoveto
          1460 530 480 -370 1060 -480 -1540 160 -1460 vlineto
          endchar
        </CharString>
        <CharString name="boxdrawingsdownlightanduphorizontalheavy">
          0 680 -1000 rmoveto
          1460 530 480 -370 1060 -480 -1060 -370 -480 530 -1460 vlineto
          endchar
        </CharString>
        <CharString name="boxdrawingsdownsingleandhorizontaldouble">
          0 680 -1000 rmoveto
          1460 530 160 -1220 -160 530 -1460 vlineto
          690 1780 rmoveto
          160 -1220 -160 vlineto
          endchar
        </CharString>
        <CharString name="boxdrawingsdownsingleandleftdouble">
          0 680 -1000 rmoveto
          1940 -690 -160 530 -160 -530 -160 530 -1460 vlineto
          endchar
        </CharString>
        <CharString name="boxdrawingsdownsingleandrightdouble">
          0 680 -1000 rmoveto
          1460 530 160 -530 160 530 160 -690 -1940 vlineto
          endchar
        </CharString>
        <CharString name="boxdrawingsheavydoubledashhorizontal">
          0 520 460 rmoveto
          480 -440 -480 vlineto
          1040 hmoveto
          480 -440 -480 vlineto
          endchar
        </CharString>
        <CharString name="boxdrawingsheavydoubledashvertical">
          0 840 -360 rmoveto
          960 -480 -960 vlineto
          480 1440 rmoveto
          960 -480 -960 vlineto
          endchar
        </CharString>
        <CharString name="boxdrawingsheavydown">
          0 840 -1000 rmoveto
          1780 -480 -1780 vlineto
          endchar
        </CharString>
        <CharString name="boxdrawingsheavydownandhorizontal">
          0 840 -1000 rmoveto
          1460 370 480 -1220 -480 370 -1460 vlineto
          endchar
        </CharString>
        <CharString name="boxdrawingsheavydownandleft">
          0 840 -1000 rmoveto
          1940 -850 -480 370 -1460 vlineto
          endchar
        </CharString>
        <CharString name="boxdrawingsheavydownandright">
          0 840 -1000 rmoveto
          1460 370 480 -850 -1940 vlineto
          endchar
        </CharString>
        <CharString name="boxdrawingsheavyhorizontal">
          0 1210 460 rmoveto
          480 -1220 -480 vlineto
          endchar
        </CharString>
        <CharString name="boxdrawingsheavyleft">
          0 680 460 rmoveto
          480 -690 -480 vlineto
          endchar
        </CharString>
        <CharString name="boxdrawingsheavyleftandlightright">
          0 680 460 rmoveto
          160 530 160 -530 160 -690 -480 vlineto
          endchar
        </CharString>
        <CharString name="boxdrawingsheavyquadrupledashhorizontal">
          0 1125 460 rmoveto
          480 -150 -480 vlineto
          -450 hmoveto
          480 -150 -480 vlineto
          450 hmoveto
          480 -150 -480 vlineto
          -450 hmoveto
          480 -150 -480 vlineto
          endchar
        </CharString>
        <CharString name="boxdrawingsheavyquadrupledashvertical">
          0 840 -520 rmoveto
          540 -480 -540 vlineto
          480 2100 rmoveto
          540 -480 -540 vlineto
          480 -700 rmoveto
          540 -480 -540 vlineto
          480 -700 rmoveto
          540 -480 -540 vlineto
          endchar
        </CharString>
        <CharString name="boxdrawingsheavyright">
          0 1210 460 rmoveto
          480 -690 -480 vlineto
          endchar
        </CharString>
        <CharString name="boxdrawingsheavytripledashhorizontal">
          0 1120 460 rmoveto
          480 -240 -480 vlineto
          -560 hmoveto
          480 -240 -480 vlineto
          640 hmoveto
          480 -240 -480 vlineto
          endchar
        </CharString>
        <CharString name="boxdrawingsheavytripledashvertical">
          0 840 -520 rmoveto
          800 -480 -800 vlineto
          480 1920 rmoveto
          800 -480 -800 vlineto
          480 -960 rmoveto
          800 -480 -800 vlineto
          endchar
        </CharString>
        <CharString name="boxdrawingsheavyup">
          0 840 620 rmoveto
          1380 -480 -1380 vlineto
          endchar
        </CharString>
        <CharString name="boxdrawingsheavyupandhorizontal">
          0 1210 460 rmoveto
          480 -370 1060 -480 -1060 -370 -480 vlineto
          endchar
        </CharString>
        <CharString name="boxdrawingsheavyupandleft">
          0 840 460 rmoveto
          1540 -480 -1060 -370 -480 vlineto
          endchar
        </CharString>
        <CharString name="boxdrawingsheavyupandlightdown">
          0 680 -1000 rmoveto
          1620 160 1380 -480 -1380 160 -1620 vlineto
          endchar
        </CharString>
        <CharString name="boxdrawingsheavyupandright">
          0 1210 460 rmoveto
          480 -370 1060 -480 -1540 vlineto
          endchar
        </CharString>
        <CharString name="boxdrawingsheavyvertical">
          0 840 -1000 rmoveto
          3000 -480 -3000 vlineto
          endchar
        </CharString>
        <CharString name="boxdrawingsheavyverticalandhorizontal">
          0 840 -1000 rmoveto
          1460 370 480 -370 1060 -480 -1060 -370 -480 370 -1460 vlineto
          endchar
        </CharString>
        <CharString name="boxdrawingsheavyverticalandleft">
          0 840 -1000 rmoveto
          3000 -480 -1060 -370 -480 370 -1460 vlineto
          endchar
        </CharString>
        <CharString name="boxdrawingsheavyverticalandright">
          0 840 -1000 rmoveto
          1460 370 480 -370 1060 -480 -3000 vlineto
          endchar
        </CharString>
        <CharString name="boxdrawingsleftdownheavyandrightuplight">
          0 840 -1000 rmoveto
          1620 370 160 -370 160 -160 1060 -160 -1060 -530 -480 370 -1460 vlineto
          endchar
        </CharString>
        <CharString name="boxdrawingsleftheavyandrightdownlight">
          0 680 -1000 rmoveto
          1620 530 160 -530 160 -690 -480 530 -1460 vlineto
          endchar
        </CharString>
        <CharString name="boxdrawingsleftheavyandrightuplight">
          0 680 460 rmoveto
          160 530 160 -530 1220 -160 -1060 -530 -480 vlineto
          endchar
        </CharString>
        <CharString name="boxdrawingsleftheavyandrightverticallight">
          0 680 -1000 rmoveto
          1620 530 160 -530 1220 -160 -1060 -530 -480 530 -1460 vlineto
          endchar
        </CharString>
        <CharString name="boxdrawingsleftlightandrightdownheavy">
          0 840 -1000 rmoveto
          1460 370 480 -850 -160 -370 -160 370 -1620 vlineto
          endchar
        </CharString>
        <CharString name="boxdrawingsleftlightandrightupheavy">
          0 1210 460 rmoveto
          480 -370 1060 -480 -1220 -370 -160 370 -160 vlineto
          endchar
        </CharString>
        <CharString name="boxdrawingsleftlightandrightverticalheavy">
          0 840 -1000 rmoveto
          1460 370 480 -370 1060 -480 -1220 -370 -160 370 -1620 vlineto
          endchar
        </CharString>
        <CharString name="boxdrawingsleftupheavyandrightdownlight">
          0 680 -1000 rmoveto
          1460 160 160 370 160 -370 1220 -480 -1060 -370 -480 530 -1460 vlineto
          endchar
        </CharString>
        <CharString name="boxdrawingslightarcdownandleft">
          0 680 -1000 rmoveto
          1240 vlineto
          0 75 -14 70 -28 65 -28 65 -39 57 -49 50 -50 49 -57 39 -65 28 -65 28 -70 14 -75 0 rrcurveto
          -150 -160 150 hlineto
          69 0 64 -17 58 -34 57 -35 46 -46 35 -57 34 -58 17 -64 0 -69 rrcurveto
          -1240 vlineto
          endchar
        </CharString>
        <CharString name="boxdrawingslightarcdownandright">
          0 680 -1000 rmoveto
          1240 vlineto
          0 69 17 64 35 58 34 57 46 46 58 35 57 34 64 17 69 0 rrcurveto
          150 160 -150 hlineto
          -75 0 -69 -14 -65 -28 -65 -28 -58 -39 -49 -49 -50 -50 -39 -57 -28 -65 -28 -65 -14 -70 0 -75 rrcurveto
          -1240 vlineto
          endchar
        </CharString>
        <CharString name="boxdrawingslightarcupandleft">
          0 140 620 rmoveto
          75 0 70 14 65 28 65 28 57 39 50 50 49 49 39 58 28 65 28 65 14 69 0 75 rrcurveto
          1240 -160 -1240 vlineto
          0 -69 -17 -64 -34 -57 -35 -58 -46 -46 -57 -34 -58 -35 -64 -17 -69 0 rrcurveto
          -150 -160 hlineto
          endchar
        </CharString>
        <CharString name="boxdrawingslightarcupandright">
          0 1210 620 rmoveto
          160 -150 vlineto
          -69 0 -64 17 -57 35 -58 34 -46 46 -34 58 -35 57 -17 64 0 69 rrcurveto
          1240 -160 -1240 vlineto
          0 -75 14 -69 28 -65 28 -65 39 -58 50 -49 49 -50 58 -39 65 -28 65 -28 69 -14 75 0 rrcurveto
          endchar
        </CharString>
        <CharString name="boxdrawingslightdiagonalcross">
          0 1130 -635 rmoveto
          -530 1060 -530 -1060 -145 72 585 1169 -580 1160 144 71 526 -1051 526 1051 144 -71 -580 -1160 585 -1169 rlineto
          endchar
        </CharString>
        <CharString name="boxdrawingslightdiagonalupperlefttolowerright">
          0 1130 -635 rmoveto
          -1200 2401 144 71 1201 -2400 rlineto
          endchar
        </CharString>
        <CharString name="boxdrawingslightdiagonalupperrighttolowerleft">
          0 70 -635 rmoveto
          1200 2401 -144 71 -1201 -2400 rlineto
          endchar
        </CharString>
        <CharString name="boxdrawingslightdoubledashhorizontal">
          0 520 620 rmoveto
          160 -440 -160 vlineto
          1040 hmoveto
          160 -440 -160 vlineto
          endchar
        </CharString>
        <CharString name="boxdrawingslightdoubledashvertical">
          0 680 -520 rmoveto
          1280 -160 -1280 vlineto
          160 1440 rmoveto
          1280 -160 -1280 vlineto
          endchar
        </CharString>
        <CharString name="boxdrawingslightdown">
          0 680 -1000 rmoveto
          1780 -160 -1780 vlineto
          endchar
        </CharString>
        <CharString name="boxdrawingslightdownandhorizontal">
          0 680 -1000 rmoveto
          1620 530 160 -1220 -160 530 -1620 vlineto
          endchar
        </CharString>
        <CharString name="boxdrawingslightdownandleft">
          0 680 -1000 rmoveto
          1780 -690 -160 530 -1620 vlineto
          endchar
        </CharString>
        <CharString name="boxdrawingslightdownandright">
          0 680 -1000 rmoveto
          1620 530 160 -690 -1780 vlineto
          endchar
        </CharString>
        <CharString name="boxdrawingslighthorizontal">
          0 1210 620 rmoveto
          160 -1220 -160 vlineto
          endchar
        </CharString>
        <CharString name="boxdrawingslightleft">
          0 680 620 rmoveto
          160 -690 -160 vlineto
          endchar
        </CharString>
        <CharString name="boxdrawingslightleftandheavyright">
          0 1210 460 rmoveto
          480 -690 -160 -530 -160 530 -160 vlineto
          endchar
        </CharString>
        <CharString name="boxdrawingslightquadrupledashhorizontal">
          0 1125 620 rmoveto
          160 -150 -160 vlineto
          -450 hmoveto
          160 -150 -160 vlineto
          450 hmoveto
          160 -150 -160 vlineto
          -450 hmoveto
          160 -150 -160 vlineto
          endchar
        </CharString>
        <CharString name="boxdrawingslightquadrupledashvertical">
          0 680 -520 rmoveto
          540 -160 -540 vlineto
          160 2100 rmoveto
          540 -160 -540 vlineto
          160 -700 rmoveto
          540 -160 -540 vlineto
          160 -700 rmoveto
          540 -160 -540 vlineto
          endchar
        </CharString>
        <CharString name="boxdrawingslightright">
          0 1210 620 rmoveto
          160 -690 -160 vlineto
          endchar
        </CharString>
        <CharString name="boxdrawingslighttripledashhorizontal">
          0 1120 620 rmoveto
          160 -240 -160 vlineto
          -560 hmoveto
          160 -240 -160 vlineto
          640 hmoveto
          160 -240 -160 vlineto
          endchar
        </CharString>
        <CharString name="boxdrawingslighttripledashvertical">
          0 680 -520 rmoveto
          800 -160 -800 vlineto
          160 1920 rmoveto
          800 -160 -800 vlineto
          160 -960 rmoveto
          800 -160 -800 vlineto
          endchar
        </CharString>
        <CharString name="boxdrawingslightup">
          0 680 620 rmoveto
          1380 -160 -1380 vlineto
          endchar
        </CharString>
        <CharString name="boxdrawingslightupandheavydown">
          0 840 -1000 rmoveto
          1780 -160 1220 -160 -1220 -160 -1780 vlineto
          endchar
        </CharString>
        <CharString name="boxdrawingslightupandhorizontal">
          0 1210 620 rmoveto
          160 -530 1220 -160 -1220 -530 -160 vlineto
          endchar
        </CharString>
        <CharString name="boxdrawingslightupandleft">
          0 680 620 rmoveto
          1380 -160 -1220 -530 -160 vlineto
          endchar
        </CharString>
        <CharString name="boxdrawingslightupandright">
          0 1210 620 rmoveto
          160 -530 1220 -160 -1380 vlineto
          endchar
        </CharString>
        <CharString name="boxdrawingslightvertical">
          0 680 -1000 rmoveto
          3000 -160 -3000 vlineto
          endchar
        </CharString>
        <CharString name="boxdrawingslightverticalandhorizontal">
          0 680 -1000 rmoveto
          1620 530 160 -530 1220 -160 -1220 -530 -160 530 -1620 vlineto
          endchar
        </CharString>
        <CharString name="boxdrawingslightverticalandleft">
          0 680 -1000 rmoveto
          3000 -160 -1220 -530 -160 530 -1620 vlineto
          endchar
        </CharString>
        <CharString name="boxdrawingslightverticalandright">
          0 680 -1000 rmoveto
          1620 530 160 -530 1220 -160 -3000 vlineto
          endchar
        </CharString>
        <CharString name="boxdrawingsrightdownheavyandleftuplight">
          0 840 -1000 rmoveto
          1460 370 480 -530 1060 -160 -1060 -160 -160 -370 -160 370 -1620 vlineto
          endchar
        </CharString>
        <CharString name="boxdrawingsrightheavyandleftdownlight">
          0 680 -1000 rmoveto
          1460 530 480 -690 -160 -530 -160 530 -1620 vlineto
          endchar
        </CharString>
        <CharString name="boxdrawingsrightheavyandleftuplight">
          0 1210 460 rmoveto
          480 -530 1060 -160 -1220 -530 -160 530 -160 vlineto
          endchar
        </CharString>
        <CharString name="boxdrawingsrightheavyandleftverticallight">
          0 680 -1000 rmoveto
          1460 530 480 -530 1060 -160 -1220 -530 -160 530 -1620 vlineto
          endchar
        </CharString>
        <CharString name="boxdrawingsrightlightandleftdownheavy">
          0 840 -1000 rmoveto
          1620 370 160 -370 160 -850 -480 370 -1460 vlineto
          endchar
        </CharString>
        <CharString name="boxdrawingsrightlightandleftupheavy">
          0 840 460 rmoveto
          160 370 160 -370 1220 -480 -1060 -370 -480 vlineto
          endchar
        </CharString>
        <CharString name="boxdrawingsrightlightandleftverticalheavy">
          0 840 -1000 rmoveto
          1620 370 160 -370 1220 -480 -1060 -370 -480 370 -1460 vlineto
          endchar
        </CharString>
        <CharString name="boxdrawingsrightupheavyandleftdownlight">
          0 680 -1000 rmoveto
          1460 530 480 -370 1060 -480 -1220 -370 -160 370 -160 160 -1460 vlineto
          endchar
        </CharString>
        <CharString name="boxdrawingsupdoubleandhorizontalsingle">
          0 1210 620 rmoveto
          160 -370 1220 -160 -1220 -160 1220 -160 -1220 -370 -160 vlineto
          endchar
        </CharString>
        <CharString name="boxdrawingsupdoubleandleftsingle">
          0 840 620 rmoveto
          1380 -160 -1220 -160 1220 -160 -1220 -370 -160 vlineto
          endchar
        </CharString>
        <CharString name="boxdrawingsupdoubleandrightsingle">
          0 1210 620 rmoveto
          160 -370 1220 -160 -1220 -160 1220 -160 -1380 vlineto
          endchar
        </CharString>
        <CharString name="boxdrawingsupheavyanddownhorizontallight">
          0 680 -1000 rmoveto
          1620 530 160 -370 1220 -480 -1220 -370 -160 530 -1620 vlineto
          endchar
        </CharString>
        <CharString name="boxdrawingsupheavyandhorizontallight">
          0 1210 620 rmoveto
          160 -370 1220 -480 -1220 -370 -160 vlineto
          endchar
        </CharString>
        <CharString name="boxdrawingsupheavyandleftdownlight">
          0 680 -1000 rmoveto
          1620 160 1380 -480 -1220 -370 -160 530 -1620 vlineto
          endchar
        </CharString>
        <CharString name="boxdrawingsupheavyandleftlight">
          0 840 620 rmoveto
          1380 -480 -1220 -370 -160 vlineto
          endchar
        </CharString>
        <CharString name="boxdrawingsupheavyandrightdownlight">
          0 680 -1000 rmoveto
          1620 530 160 -370 1220 -480 -1380 160 -1620 vlineto
          endchar
        </CharString>
        <CharString name="boxdrawingsupheavyandrightlight">
          0 1210 620 rmoveto
          160 -370 1220 -480 -1380 vlineto
          endchar
        </CharString>
        <CharString name="boxdrawingsuplightanddownhorizontalheavy">
          0 840 -1000 rmoveto
          1460 370 480 -530 1060 -160 -1060 -530 -480 370 -1460 vlineto
          endchar
        </CharString>
        <CharString name="boxdrawingsuplightandhorizontalheavy">
          0 1210 460 rmoveto
          480 -530 1060 -160 -1060 -530 -480 vlineto
          endchar
        </CharString>
        <CharString name="boxdrawingsuplightandleftdownheavy">
          0 840 -1000 rmoveto
          1940 -160 1060 -160 -1060 -530 -480 370 -1460 vlineto
          endchar
        </CharString>
        <CharString name="boxdrawingsuplightandleftheavy">
          0 680 460 rmoveto
          1540 -160 -1060 -530 -480 vlineto
          endchar
        </CharString>
        <CharString name="boxdrawingsuplightandrightdownheavy">
          0 840 -1000 rmoveto
          1460 370 480 -530 1060 -160 -1060 -160 -1940 vlineto
          endchar
        </CharString>
        <CharString name="boxdrawingsuplightandrightheavy">
          0 1210 460 rmoveto
          480 -530 1060 -160 -1540 vlineto
          endchar
        </CharString>
        <CharString name="boxdrawingsupsingleandhorizontaldouble">
          0 1210 460 rmoveto
          160 -1220 -160 vlineto
          1220 320 rmoveto
          160 -530 1060 -160 -1060 -530 -160 vlineto
          endchar
        </CharString>
        <CharString name="boxdrawingsupsingleandleftdouble">
          0 680 460 rmoveto
          1540 -160 -1060 -530 -160 530 -160 -530 -160 vlineto
          endchar
        </CharString>
        <CharString name="boxdrawingsupsingleandrightdouble">
          0 1210 460 rmoveto
          160 -530 160 530 160 -530 1060 -160 -1540 vlineto
          endchar
        </CharString>
        <CharString name="boxdrawingsverticaldoubleandhorizontalsingle">
          0 840 -1000 rmoveto
          1620 370 160 -370 1220 -160 -1220 -160 1220 -160 -1220 -370 -160 370 -1620 160 1620 160 -1620 vlineto
          endchar
        </CharString>
        <CharString name="boxdrawingsverticaldoubleandleftsingle">
          0 840 -1000 rmoveto
          3000 -160 -3000 vlineto
          -160 hmoveto
          3000 -160 -1220 -370 -160 370 -1620 vlineto
          endchar
        </CharString>
        <CharString name="boxdrawingsverticaldoubleandrightsingle">
          0 520 -1000 rmoveto
          3000 -160 -3000 vlineto
          480 hmoveto
          1620 370 160 -370 1220 -160 -3000 vlineto
          endchar
        </CharString>
        <CharString name="boxdrawingsverticalheavyandhorizontallight">
          0 840 -1000 rmoveto
          1620 370 160 -370 1220 -480 -1220 -370 -160 370 -1620 vlineto
          endchar
        </CharString>
        <CharString name="boxdrawingsverticalheavyandleftlight">
          0 840 -1000 rmoveto
          3000 -480 -1220 -370 -160 370 -1620 vlineto
          endchar
        </CharString>
        <CharString name="boxdrawingsverticalheavyandrightlight">
          0 840 -1000 rmoveto
          1620 370 160 -370 1220 -480 -3000 vlineto
          endchar
        </CharString>
        <CharString name="boxdrawingsverticallightandhorizontalheavy">
          0 680 -1000 rmoveto
          1460 530 480 -530 1060 -160 -1060 -530 -480 530 -1460 vlineto
          endchar
        </CharString>
        <CharString name="boxdrawingsverticallightandleftheavy">
          0 680 -1000 rmoveto
          3000 -160 -1060 -530 -480 530 -1460 vlineto
          endchar
        </CharString>
        <CharString name="boxdrawingsverticallightandrightheavy">
          0 680 -1000 rmoveto
          1460 530 480 -530 1060 -160 -3000 vlineto
          endchar
        </CharString>
        <CharString name="boxdrawingsverticalsingleandhorizontaldouble">
          0 680 -1000 rmoveto
          1460 530 160 -530 160 530 160 -530 1060 -160 -1060 -530 -160 530 -160 -530 -160 530 -1460 vlineto
          endchar
        </CharString>
        <CharString name="boxdrawingsverticalsingleandleftdouble">
          0 680 -1000 rmoveto
          3000 -160 -1060 -530 -160 530 -160 -530 -160 530 -1460 vlineto
          endchar
        </CharString>
        <CharString name="boxdrawingsverticalsingleandrightdouble">
          0 680 -1000 rmoveto
          1460 530 160 -530 160 530 160 -530 1060 -160 -3000 vlineto
          endchar
        </CharString>
        <CharString name="braceleft">
          0 872 -263 rmoveto
          22 0 21 8 19 15 19 15 13 22 6 29 2 7 0 7 0 6 0 16 -4 13 -9 11 -13 16 -18 8 -21 0 rrcurveto
          -68 hlineto
          -140 0 -70 46 0 93 0 19 9 41 17 64 rrcurveto
          47 208 rlineto
          11 52 6 46 0 40 0 68 -16 51 -32 33 -7 6 -3 7 0 8 0 15 7 12 15 10 73 53 52 97 30 140 rrcurveto
          41 208 rlineto
          7 40 5 28 3 17 13 61 36 48 60 35 39 23 57 11 76 0 rrcurveto
          69 hlineto
          21 0 21 8 20 16 26 22 14 29 0 35 0 17 -4 14 -9 10 -13 15 -18 7 -22 0 -104 0 -65 -1 -26 -1 -71 -5 -62 -21 -55 -38 -98 -65 -62 -94 -27 -125 -6 -27 -10 -56 -14 -83 rrcurveto
          -15 -83 -9 -52 -4 -20 -16 -73 -29 -54 -43 -35 -29 -25 -35 -12 -39 0 -69 0 -42 -31 -13 -62 -2 -10 -1 -9 0 -9 0 -43 29 -22 58 0 39 0 29 -12 19 -23 19 -24 9 -31 0 -38 rrcurveto
          0 -22 -3 -23 -5 -26 -5 -20 -12 -52 -21 -83 -21 -83 -14 -56 -6 -27 -7 -34 -3 -31 0 -29 0 -79 25 -64 52 -47 39 -38 53 -21 69 -4 25 -2 65 -1 103 0 rrcurveto
          endchar
        </CharString>
        <CharString name="braceright">
          0 307 -263 rmoveto
          43 0 34 1 27 2 26 1 30 6 35 10 35 10 32 15 29 21 99 65 62 94 26 125 6 27 10 56 15 83 14 83 9 52 5 20 15 73 29 54 43 35 30 25 35 12 39 0 rrcurveto
          69 0 42 31 13 62 2 10 1 9 0 9 0 43 -29 22 -58 0 -39 0 -30 12 -20 25 -18 22 -9 30 0 38 0 21 3 24 6 27 4 20 13 52 21 83 21 83 13 56 6 27 rrcurveto
          7 34 4 32 0 29 0 79 -26 63 -52 47 -38 38 -53 21 -69 5 -26 1 -65 1 -104 0 -22 0 -20 -7 -19 -15 -19 -15 -13 -23 -6 -29 -2 -7 0 -6 0 -7 0 -15 4 -14 10 -11 rrcurveto
          13 -16 17 -8 21 0 rrcurveto
          69 hlineto
          139 0 70 -47 0 -93 0 -19 -8 -41 -17 -63 rrcurveto
          -47 -208 rlineto
          -11 -52 -6 -46 0 -40 0 -68 16 -51 32 -33 6 -6 4 -8 0 -8 0 -14 -8 -12 -14 -10 -73 -53 -52 -97 -30 -140 rrcurveto
          -41 -208 rlineto
          -7 -40 -5 -28 -3 -17 -13 -61 -37 -48 -60 -35 -38 -23 -57 -11 -76 0 rrcurveto
          -68 hlineto
          -21 0 -21 -8 -19 -16 -27 -22 -14 -29 0 -35 0 -17 4 -13 9 -10 13 -15 17 -8 22 0 rrcurveto
          endchar
        </CharString>
        <CharString name="bracketleft">
          0 783 -270 rmoveto
          25 0 23 9 21 18 28 23 14 28 0 32 0 16 -5 15 -10 13 -14 17 -19 9 -25 0 rrcurveto
          -337 hlineto
          -18 1 -9 8 0 14 0 3 108 508 215 1014 7 21 14 11 19 0 rrcurveto
          337 hlineto
          25 0 23 9 21 18 28 23 14 28 0 32 0 16 -5 15 -10 13 -14 17 -19 9 -25 0 rrcurveto
          -456 hlineto
          -26 0 -24 -9 -22 -18 -23 -19 -14 -22 -5 -25 -250 -1176 -125 -591 0 -6 0 -18 5 -15 11 -13 15 -19 20 -9 26 0 rrcurveto
          endchar
        </CharString>
        <CharString name="bracketright">
          0 759 -270 rmoveto
          26 0 24 9 22 19 22 18 14 22 5 25 250 1176 125 592 0 6 0 17 -5 15 -10 14 -15 18 -20 9 -26 0 rrcurveto
          -456 hlineto
          -25 0 -23 -9 -21 -17 -28 -24 -14 -27 0 -33 0 -16 5 -14 10 -13 14 -18 19 -9 25 0 rrcurveto
          337 hlineto
          18 -2 9 -8 0 -13 0 -3 -108 -508 -215 -1013 -6 -22 -13 -11 -21 0 rrcurveto
          -337 hlineto
          -25 0 -23 -9 -21 -17 -28 -24 -14 -27 0 -33 0 -16 5 -14 10 -13 14 -18 19 -9 25 0 rrcurveto
          endchar
        </CharString>
        <CharString name="bracketright_numbersign">
          0 1144 350 rmoveto
          24 0 23 9 22 18 29 23 14 27 0 30 0 17 -5 16 -11 13 -14 18 -19 9 -24 0 rrcurveto
          -80 hlineto
          -39 -180 rlineto
          -1505 -620 rmoveto
          26 0 24 9 22 19 22 18 14 22 5 25 rrcurveto
          112 527 rlineto
          900 hlineto
          39 180 rlineto
          -900 hlineto
          72 340 rlineto
          500 hlineto
          38 180 rlineto
          -500 hlineto
          76 358 38 183 0 6 0 17 -5 15 -10 14 -15 18 -20 9 -26 0 rrcurveto
          -456 hlineto
          -25 0 -23 -9 -21 -17 -28 -24 -14 -27 0 -33 0 -16 5 -14 10 -13 14 -18 19 -9 25 0 rrcurveto
          337 hlineto
          18 0 9 -7 0 -15 0 -3 -108 -508 -215 -1014 -5 -22 -13 -11 -22 0 rrcurveto
          -337 hlineto
          -25 0 -23 -9 -21 -17 -28 -24 -14 -27 0 -33 0 -16 5 -14 10 -13 14 -18 19 -9 25 0 rrcurveto
          2152 1140 rmoveto
          24 0 23 9 22 18 28 24 14 27 0 32 0 16 -5 15 -10 13 -15 17 -19 9 -24 0 rrcurveto
          -480 hlineto
          -38 -180 rlineto
          -380 -900 rmoveto
          24 0 23 9 22 18 21 18 14 21 5 24 rrcurveto
          36 170 rlineto
          -181 hlineto
          -25 -120 -13 -63 0 -6 0 -16 5 -15 11 -13 14 -18 19 -9 25 0 rrcurveto
          234 680 rmoveto
          99 468 50 236 0 6 0 16 -5 15 -10 13 -15 17 -19 9 -25 0 -24 0 -23 -9 -21 -17 -22 -18 -14 -21 -5 -24 rrcurveto
          -147 -691 rlineto
          347 -680 rmoveto
          24 0 23 9 21 18 21 18 14 21 5 24 rrcurveto
          146 690 rlineto
          -180 hlineto
          -99 -467 -49 -236 0 -6 0 -16 5 -15 11 -13 14 -18 19 -9 25 0 rrcurveto
          344 1200 rmoveto
          25 121 13 63 0 6 0 16 -5 15 -10 13 -14 17 -19 9 -25 0 -24 0 -23 -9 -21 -17 -22 -18 -14 -21 -5 -24 rrcurveto
          -36 -171 rlineto
          endchar
        </CharString>
        <CharString name="c">
          0 652 -30 rmoveto
          110 0 115 40 119 80 33 21 16 30 0 39 0 16 -4 13 -7 11 -11 16 -16 8 -21 0 -18 0 -16 -4 -13 -9 -86 -53 -79 -27 -72 0 -165 0 -83 82 0 164 0 36 5 40 9 43 rrcurveto
          26 123 48 92 70 63 69 63 83 31 97 0 55 0 52 -15 49 -31 10 -6 5 -10 0 -14 0 -18 -24 -14 -47 -11 -25 -5 -12 -14 0 -22 1 -32 15 -16 31 0 81 1 68 35 53 67 rrcurveto
          18 23 9 30 0 37 0 42 -16 38 -32 33 -63 63 -85 31 -106 0 -92 0 -89 -21 -86 -43 -87 -43 -75 -61 -63 -79 -64 -79 -46 -106 -29 -132 -12 -56 -6 -52 0 -48 0 -148 53 -108 106 -68 rrcurveto
          69 -44 81 -22 94 0 rrcurveto
          endchar
        </CharString>
        <CharString name="colon">
          0 763 751 rmoveto
          43 0 41 16 38 32 50 43 25 51 0 61 0 29 -8 26 -17 23 -25 32 -34 16 -43 0 -46 0 -42 -16 -38 -32 -51 -42 -26 -51 0 -60 0 -30 9 -27 18 -23 25 -32 35 -16 46 0 rrcurveto
          -166 -781 rmoveto
          43 0 41 16 38 33 50 43 25 51 0 60 0 29 -8 26 -17 23 -25 33 -34 16 -43 0 -46 0 -42 -16 -38 -32 -51 -43 -26 -51 0 -59 0 -30 9 -27 18 -24 25 -32 35 -16 46 0 rrcurveto
          endchar
        </CharString>
        <CharString name="colon_center">
          0 634 140 rmoveto
          43 0 41 16 38 33 50 43 25 51 0 58 0 31 -9 26 -17 24 -24 32 -34 16 -43 0 -47 0 -42 -16 -38 -32 -51 -43 -25 -52 0 -60 0 -29 8 -26 18 -23 25 -33 35 -16 47 0 rrcurveto
          125 591 rmoveto
          43 0 41 16 38 32 50 42 25 52 0 61 0 29 -8 26 -17 23 -25 32 -34 16 -43 0 -47 0 -42 -16 -38 -32 -51 -43 -25 -51 0 -59 0 -30 9 -27 18 -23 24 -32 35 -16 47 0 rrcurveto
          endchar
        </CharString>
        <CharString name="colon_center_left">
          0 334 140 rmoveto
          43 0 41 16 38 33 50 43 25 51 0 58 0 31 -9 26 -17 24 -24 32 -34 16 -43 0 -47 0 -42 -16 -38 -32 -51 -43 -25 -52 0 -60 0 -29 8 -26 18 -23 25 -33 35 -16 47 0 rrcurveto
          125 591 rmoveto
          43 0 41 16 38 32 50 42 25 52 0 61 0 29 -8 26 -17 23 -25 32 -34 16 -43 0 -47 0 -42 -16 -38 -32 -51 -43 -25 -51 0 -59 0 -30 9 -27 18 -23 24 -32 35 -16 47 0 rrcurveto
          endchar
        </CharString>
        <CharString name="colon_center_right">
          0 934 140 rmoveto
          43 0 41 16 38 33 50 43 25 51 0 58 0 31 -9 26 -17 24 -24 32 -34 16 -43 0 -47 0 -42 -16 -38 -32 -51 -43 -25 -52 0 -60 0 -29 8 -26 18 -23 25 -33 35 -16 47 0 rrcurveto
          125 591 rmoveto
          43 0 41 16 38 32 50 42 25 52 0 61 0 29 -8 26 -17 23 -25 32 -34 16 -43 0 -47 0 -42 -16 -38 -32 -51 -43 -25 -51 0 -59 0 -30 9 -27 18 -23 24 -32 35 -16 47 0 rrcurveto
          endchar
        </CharString>
        <CharString name="comma">
          0 283 -413 rmoveto
          150 15 125 59 101 101 101 101 50 117 0 132 0 58 -13 46 -28 35 -26 33 -35 16 -43 0 -59 0 -48 -22 -35 -43 -31 -33 -16 -38 0 -44 0 -34 12 -31 23 -29 23 -29 12 -29 0 -30 rrcurveto
          0 -46 -26 -41 -50 -35 -42 -29 -53 -18 -64 -8 -57 -7 -35 -32 -12 -57 rrcurveto
          -1 -14 rlineto
          0 -43 26 -21 51 0 rrcurveto
          endchar
        </CharString>
        <CharString name="d">
          0 628 151 rmoveto
          -141 1 -70 73 0 147 0 37 4 43 9 47 27 129 41 93 57 59 57 59 71 29 86 0 67 0 52 -24 35 -49 29 -42 15 -44 0 -45 0 -15 -2 -15 -3 -16 rrcurveto
          -45 -213 rlineto
          -17 -79 -38 -62 -61 -45 -61 -45 -58 -23 -54 0 rrcurveto
          398 -181 rmoveto
          69 0 53 20 37 41 9 11 5 11 0 13 0 11 -4 11 -7 10 -7 9 -11 5 -13 0 -12 0 -9 -1 -6 -3 -15 -7 -11 -3 -8 0 -29 0 -14 15 0 31 0 8 1 9 2 11 rrcurveto
          175 847 88 428 0 11 0 17 -6 15 -11 13 -15 18 -19 9 -23 0 -23 0 -22 -9 -22 -17 -22 -18 -14 -23 -6 -27 rrcurveto
          -90 -424 rlineto
          -5 -24 -13 -12 -21 0 -12 0 -11 5 -10 11 -57 59 -65 29 -72 0 -125 0 -109 -49 -94 -98 -94 -98 -65 -135 -37 -171 -17 -84 -9 -75 0 -65 0 -76 12 -64 23 -51 44 -96 92 -48 141 0 rrcurveto
          91 0 112 45 132 90 11 7 9 4 7 0 10 0 5 -10 1 -19 2 -78 35 -39 69 0 rrcurveto
          endchar
        </CharString>
        <CharString name="dagger">
          0 1125 870 rmoveto
          25 0 23 9 21 18 28 23 14 28 0 32 0 16 -5 15 -10 13 -13 17 -20 9 -25 0 rrcurveto
          -680 hlineto
          -25 0 -23 -9 -21 -17 -28 -23 -14 -28 0 -33 0 -16 5 -14 10 -13 14 -18 19 -9 25 0 rrcurveto
          494 300 rmoveto
          25 120 13 63 0 6 0 17 -5 15 -11 13 -14 17 -19 9 -24 0 -24 0 -23 -9 -21 -17 -22 -18 -14 -21 -5 -25 rrcurveto
          -36 -170 rlineto
          -165 -1200 rmoveto
          24 0 23 9 22 18 21 18 14 21 5 24 rrcurveto
          146 690 rlineto
          -180 hlineto
          -99 -467 -49 -236 0 -6 0 -16 5 -15 10 -13 15 -18 19 -9 24 0 rrcurveto
          endchar
        </CharString>
        <CharString name="darkshade">
          0 -600 vmoveto
          1200 2640 -120 -120 -120 120 -120 -120 -120 120 -120 -120 -120 120 -120 -120 -120 120 -120 -120 -120 -120 120 -120 -120 -120 120 -120 -120 -120 120 -120 -120 -120 120 -120 -120 -120 120 -120 -120 -120 120 -120 -120 -120 120 -120 hlineto
          -120 -120 120 -120 -120 -120 120 -120 -120 -120 120 -120 -120 hlineto
          960 2160 rmoveto
          120 120 -120 vlineto
          -360 hmoveto
          120 120 -120 vlineto
          -360 hmoveto
          120 120 -120 vlineto
          -360 hmoveto
          120 120 -120 vlineto
          600 -240 rmoveto
          120 120 -120 vlineto
          -360 hmoveto
          120 120 -120 vlineto
          -360 hmoveto
          120 120 -120 vlineto
          -360 hmoveto
          120 120 -120 vlineto
          600 -240 rmoveto
          120 120 -120 vlineto
          -360 hmoveto
          120 120 -120 vlineto
          -600 hmoveto
          120 120 -120 vlineto
          120 hmoveto
          120 120 -120 vlineto
          360 -240 rmoveto
          120 120 -120 vlineto
          -840 hmoveto
          120 120 -120 vlineto
          360 hmoveto
          120 120 -120 vlineto
          -360 hmoveto
          120 120 -120 vlineto
          -360 -240 rmoveto
          120 120 -120 vlineto
          600 hmoveto
          120 120 -120 vlineto
          -600 hmoveto
          120 120 -120 vlineto
          120 hmoveto
          120 120 -120 vlineto
          -120 -240 rmoveto
          120 120 -120 vlineto
          -600 hmoveto
          120 120 -120 vlineto
          120 hmoveto
          120 120 -120 vlineto
          360 hmoveto
          120 120 -120 vlineto
          -840 -240 rmoveto
          120 120 -120 vlineto
          120 hmoveto
          120 120 -120 vlineto
          120 hmoveto
          120 120 -120 vlineto
          120 hmoveto
          120 120 -120 vlineto
          -120 -240 rmoveto
          120 120 -120 vlineto
          -360 hmoveto
          120 120 -120 vlineto
          -360 hmoveto
          120 120 -120 vlineto
          -360 hmoveto
          120 120 -120 vlineto
          600 -240 rmoveto
          120 120 -120 vlineto
          -360 hmoveto
          120 120 -120 vlineto
          -360 hmoveto
          120 120 -120 vlineto
          -360 hmoveto
          120 120 -120 vlineto
          -120 -240 rmoveto
          120 120 -120 vlineto
          600 hmoveto
          120 120 -120 vlineto
          -360 hmoveto
          120 120 -120 vlineto
          -360 hmoveto
          120 120 -120 vlineto
          endchar
        </CharString>
        <CharString name="divide">
          0 1048 510 rmoveto
          25 0 23 9 22 18 21 17 13 21 6 25 5 25 -5 21 -13 18 -14 17 -20 9 -24 0 rrcurveto
          -680 hlineto
          -25 0 -23 -9 -21 -17 -22 -18 -13 -21 -5 -25 -6 -25 5 -21 14 -17 13 -18 20 -9 24 0 rrcurveto
          411 320 rmoveto
          32 0 31 12 29 25 29 24 18 29 7 34 7 35 -5 30 -19 24 -18 25 -25 12 -33 0 -36 0 -32 -12 -29 -25 -29 -24 -18 -30 -7 -35 -7 -34 5 -29 19 -24 18 -25 27 -12 36 0 rrcurveto
          -151 -710 rmoveto
          33 0 30 12 29 25 29 24 18 29 7 34 7 35 -5 30 -18 24 -19 25 -25 12 -33 0 -35 0 -33 -12 -29 -25 -29 -24 -18 -30 -7 -35 -7 -34 5 -29 19 -24 18 -25 27 -12 36 0 rrcurveto
          endchar
        </CharString>
        <CharString name="dollar">
          0 404 17 rmoveto
          46 218 rlineto
          -21 22 -19 25 -16 27 -19 32 -23 16 -28 0 -26 0 -23 -9 -19 -19 -19 -19 -13 -23 -6 -29 -1 -6 -1 -6 0 -5 0 -5 1 -5 1 -5 14 -61 43 -58 72 -54 15 -12 19 -12 23 -12 rrcurveto
          397 -13 rmoveto
          72 31 67 46 61 61 57 57 37 71 18 85 6 28 3 26 0 26 0 104 -49 86 -98 69 -46 29 -64 31 -83 31 -132 54 -66 72 0 91 0 13 1 13 3 14 10 44 19 38 29 33 rrcurveto
          48 228 rlineto
          -153 -76 -94 -121 -35 -167 -6 -26 -2 -26 0 -24 0 -148 102 -113 206 -78 37 -15 38 -18 38 -21 78 -41 39 -50 0 -60 0 -10 -1 -10 -2 -11 -13 -59 -30 -50 -49 -39 rrcurveto
          32 667 rmoveto
          93 441 47 223 0 7 0 16 -5 15 -10 13 -14 17 -19 9 -25 0 -25 0 -23 -9 -21 -17 -21 -18 -14 -21 -5 -25 rrcurveto
          -119 -563 rlineto
          31 -35 54 -29 76 -24 rrcurveto
          -328 -1119 rmoveto
          25 0 23 9 21 18 21 17 14 21 5 25 rrcurveto
          122 571 rlineto
          -27 27 -54 27 -82 29 -94 -443 -47 -224 0 -7 0 -16 5 -14 10 -13 14 -18 19 -9 25 0 rrcurveto
          613 1285 rmoveto
          51 0 32 29 13 59 2 8 0 8 0 7 0 106 -55 78 -110 49 rrcurveto
          -43 -204 rlineto
          23 -21 14 -22 3 -24 7 -49 23 -24 40 0 rrcurveto
          endchar
        </CharString>
        <CharString name="downwardsarrow">
          0 598 -20 rmoveto
          582 494 rlineto
          210 vlineto
          -370 -316 rlineto
          -60 -52 -37 -36 -13 -20 rrcurveto
          -20 hlineto
          3 17 2 24 2 30 2 30 1 30 0 29 rrcurveto
          1040 -180 -1040 vlineto
          0 -29 1 -30 3 -30 3 -30 2 -24 1 -17 rrcurveto
          -20 hlineto
          -5 8 -12 13 -19 19 -19 19 -24 22 -29 25 rrcurveto
          -372 316 rlineto
          -210 vlineto
          endchar
        </CharString>
        <CharString name="e">
          0 652 586 rmoveto
          -89 0 -51 4 -12 7 -13 8 -6 9 0 9 0 10 4 13 8 15 31 59 54 54 77 49 76 48 71 24 66 0 55 0 41 -9 27 -17 26 -18 13 -23 0 -29 0 -94 -39 -61 -77 -28 rrcurveto
          -59 -20 -88 -10 -115 0 rrcurveto
          -26 -616 rmoveto
          104 0 83 13 62 26 62 26 60 43 58 60 13 12 10 10 7 9 6 8 3 13 0 18 0 21 -8 18 -15 15 -15 15 -19 7 -21 0 -22 0 -18 -8 -14 -15 -89 -86 -91 -43 -93 0 rrcurveto
          -78 0 -65 16 -51 32 -52 32 -26 51 0 70 0 20 2 21 5 22 5 22 12 11 21 0 rrcurveto
          173 -1 rlineto
          97 0 76 4 54 9 121 19 85 41 51 62 50 61 25 91 0 119 0 74 -29 58 -58 42 -59 41 -71 21 -84 0 -264 0 -191 -120 -118 -239 -23 -55 -18 -61 -13 -65 -13 -66 -7 -58 0 -50 rrcurveto
          3 -257 126 -129 251 0 rrcurveto
          endchar
        </CharString>
        <CharString name="eight">
          -10 618 146 rmoveto
          -147 0 -73 52 0 104 0 152 97 118 195 83 169 -39 85 -71 0 -101 0 -22 -3 -23 -5 -23 -32 -153 -106 -77 -180 0 rrcurveto
          -37 -176 rmoveto
          131 0 114 34 96 67 95 67 62 94 29 123 9 34 4 34 0 35 0 117 -56 96 -113 74 -4 3 -2 4 0 6 0 7 3 6 7 5 45 30 56 46 69 61 71 65 35 47 1 28 rrcurveto
          0 14 -13 7 -25 0 -19 0 -124 -72 -231 -144 -11 -7 -13 -3 -15 0 -18 0 -19 3 -20 7 -92 29 -46 49 0 70 0 18 3 17 5 17 40 128 102 69 163 10 32 0 16 -15 0 -29 rrcurveto
          0 -22 -9 -26 -19 -30 -2 -3 -1 -5 0 -6 0 -18 17 -9 35 0 38 0 33 15 28 29 28 29 14 35 0 40 0 59 -14 41 -29 21 -49 39 -56 20 -63 0 -115 0 -102 -34 -89 -69 rrcurveto
          -90 -69 -58 -87 -26 -105 -6 -26 -3 -26 0 -26 0 -93 43 -76 85 -61 4 -3 2 -4 0 -5 0 -8 -5 -6 -9 -5 -159 -82 -102 -124 -45 -166 -6 -31 -3 -33 0 -34 0 -86 31 -69 61 -53 rrcurveto
          61 -53 91 -26 122 0 rrcurveto
          endchar
        </CharString>
        <CharString name="emdash">
          0 1248 510 rmoveto
          25 0 23 9 22 18 21 17 13 21 6 25 5 25 -5 21 -13 18 -14 17 -20 9 -24 0 rrcurveto
          -1080 hlineto
          -25 0 -23 -9 -21 -17 -22 -18 -13 -21 -5 -25 -6 -25 5 -21 14 -17 13 -18 20 -9 24 0 rrcurveto
          endchar
        </CharString>
        <CharString name="equal">
          0 1006 310 rmoveto
          25 0 23 9 21 18 28 23 14 28 0 32 0 16 -5 15 -10 13 -14 17 -19 9 -25 0 rrcurveto
          -680 hlineto
          -25 0 -23 -9 -21 -17 -28 -24 -14 -27 0 -33 0 -16 5 -14 10 -13 14 -18 19 -9 25 0 rrcurveto
          765 400 rmoveto
          25 0 23 9 21 18 28 23 14 28 0 32 0 16 -5 15 -10 13 -14 17 -19 9 -25 0 rrcurveto
          -680 hlineto
          -25 0 -23 -9 -21 -17 -28 -24 -14 -27 0 -33 0 -16 5 -14 10 -13 14 -18 19 -9 25 0 rrcurveto
          endchar
        </CharString>
        <CharString name="exclam">
          0 598 -30 rmoveto
          43 0 41 16 38 33 49 42 25 52 0 60 0 30 -8 26 -17 23 -24 32 -34 16 -43 0 -47 0 -42 -16 -38 -32 -51 -43 -26 -51 0 -59 0 -30 9 -27 18 -23 25 -33 35 -16 47 0 rrcurveto
          102 499 rmoveto
          21 0 21 8 19 15 19 15 12 19 7 23 132 543 66 276 0 8 0 20 -6 17 -12 16 -17 21 -22 11 -29 0 -29 0 -28 -11 -25 -21 -26 -22 -16 -25 -6 -29 -98 -541 -49 -273 0 -5 rrcurveto
          0 -16 5 -14 10 -12 13 -15 17 -8 21 0 rrcurveto
          endchar
        </CharString>
        <CharString name="exclam_exclam">
          0 -402 -30 rmoveto
          43 0 41 16 38 33 49 42 25 52 0 60 0 30 -8 26 -17 23 -24 32 -34 16 -43 0 -47 0 -42 -16 -38 -32 -51 -43 -26 -51 0 -59 0 -30 9 -27 18 -23 25 -33 35 -16 47 0 rrcurveto
          102 499 rmoveto
          21 0 21 8 19 15 19 15 12 19 7 23 132 543 66 276 0 8 0 20 -6 17 -12 16 -17 21 -22 11 -29 0 -29 0 -28 -11 -25 -21 -26 -22 -16 -25 -6 -29 -98 -541 -49 -273 0 -5 rrcurveto
          0 -16 5 -14 10 -12 13 -15 17 -8 21 0 rrcurveto
          698 -499 rmoveto
          43 0 41 16 38 33 49 42 25 52 0 60 0 30 -8 26 -17 23 -24 32 -34 16 -43 0 -47 0 -42 -16 -38 -32 -51 -43 -26 -51 0 -59 0 -30 9 -27 18 -23 25 -33 35 -16 47 0 rrcurveto
          102 499 rmoveto
          21 0 21 8 19 15 19 15 12 19 7 23 132 543 66 276 0 8 0 20 -6 17 -12 16 -17 21 -22 11 -29 0 -29 0 -28 -11 -25 -21 -26 -22 -16 -25 -6 -29 -98 -541 -49 -273 0 -5 rrcurveto
          0 -16 5 -14 10 -12 13 -15 17 -8 21 0 rrcurveto
          endchar
        </CharString>
        <CharString name="f">
          0 136 -457 rmoveto
          111 0 97 37 82 75 89 77 64 122 38 168 rrcurveto
          169 786 rlineto
          3 12 6 10 10 8 10 8 11 4 12 0 rrcurveto
          356 hlineto
          25 0 23 9 21 17 28 23 14 28 0 32 0 17 -5 15 -10 13 -13 17 -20 9 -25 0 rrcurveto
          -356 hlineto
          -12 0 -9 4 -5 7 -6 7 -3 7 0 7 rrcurveto
          24 105 rlineto
          11 49 25 43 39 36 39 36 45 18 52 0 rrcurveto
          168 hlineto
          25 0 23 9 21 17 28 23 14 28 0 32 0 17 -5 15 -10 13 -13 17 -20 9 -25 0 rrcurveto
          -206 hlineto
          -61 0 -57 -15 -53 -30 -54 -30 -46 -39 -37 -49 -37 -49 -26 -53 -13 -59 rrcurveto
          -31 -139 rlineto
          -2 -9 -6 -8 -10 -7 -10 -8 -11 -4 -11 0 rrcurveto
          -145 hlineto
          -25 0 -22 -9 -21 -17 -29 -23 -14 -28 0 -31 0 -18 5 -15 11 -13 13 -17 19 -9 25 0 rrcurveto
          144 hlineto
          12 0 9 -3 6 -7 5 -7 3 -8 0 -8 0 -9 -56 -264 -112 -518 -21 -99 -37 -79 -51 -59 -51 -59 -62 -30 -71 0 -65 0 -32 -28 0 -55 0 -49 29 -25 58 0 rrcurveto
          endchar
        </CharString>
        <CharString name="five">
          0 575 -30 rmoveto
          316 0 178 157 39 315 6 49 3 37 0 27 -4 209 -141 105 -278 0 rrcurveto
          -60 hlineto
          -23 1 -12 10 0 21 rrcurveto
          93 292 rlineto
          6 21 12 10 19 0 332 1 178 19 25 36 7 11 4 16 0 22 0 15 -4 12 -9 9 -21 22 -209 12 -396 1 -56 0 -33 -21 -11 -42 -101 -374 -51 -190 0 -5 1 -18 6 -16 11 -13 rrcurveto
          15 -19 21 -10 26 0 rrcurveto
          164 hlineto
          191 -1 96 -62 2 -122 0 -71 -9 -55 -19 -40 -55 -125 -112 -64 -168 -2 -138 0 -97 44 -56 88 -22 37 -20 18 -19 0 -25 0 -13 -25 0 -51 0 -30 3 -22 7 -14 71 -150 134 -75 196 0 rrcurveto
          endchar
        </CharString>
        <CharString name="four">
          0 952 470 rmoveto
          21 132 28 66 36 0 23 0 17 -11 11 -23 12 -22 6 -22 0 -21 -1 -66 -51 -33 -102 0 rrcurveto
          -190 -500 rmoveto
          26 0 24 9 21 18 21 17 14 22 6 26 rrcurveto
          52 230 rlineto
          122 3 79 19 35 35 55 55 28 81 1 107 0 90 -27 72 -53 53 -34 33 -43 16 -52 0 -124 0 -87 -127 -50 -254 -222 2 -113 3 -4 3 -4 3 -2 4 0 5 0 6 2 5 4 5 rrcurveto
          448 532 223 244 rlineto
          15 17 8 23 0 29 0 20 -5 16 -9 12 -13 17 -15 9 -18 0 -41 0 -36 -18 -33 -37 rrcurveto
          -762 -868 rlineto
          -22 -26 -14 -35 -5 -45 0 -31 11 -25 22 -21 21 -21 27 -11 32 0 rrcurveto
          472 hlineto
          -55 -248 rlineto
          0 -20 7 -17 14 -15 13 -15 18 -7 22 0 rrcurveto
          endchar
        </CharString>
        <CharString name="fullblock">
          0 -600 vmoveto
          1200 2640 -1200 hlineto
          endchar
        </CharString>
        <CharString name="g">
          0 603 168 rmoveto
          -81 0 -52 23 -25 46 -25 46 -13 48 0 51 0 39 5 45 11 51 56 241 112 123 169 4 63 0 50 -20 35 -39 35 -39 17 -45 0 -49 0 -19 -2 -21 -5 -23 rrcurveto
          -45 -211 rlineto
          -13 -61 -38 -59 -63 -56 -58 -50 -64 -25 -69 0 rrcurveto
          -141 -648 rmoveto
          130 0 113 38 96 75 96 75 62 104 28 131 150 705 75 356 0 8 0 17 -4 14 -9 11 -12 17 -19 9 -26 0 -51 0 -34 -24 -18 -49 -9 -23 -10 -12 -11 0 -7 0 -6 4 -6 7 rrcurveto
          -47 64 -75 32 -102 0 -127 0 -108 -48 -91 -95 -91 -96 -67 -145 -43 -195 -13 -61 -7 -58 0 -53 0 -82 16 -70 32 -59 52 -98 88 -49 125 0 86 0 76 23 66 46 17 11 14 6 12 0 rrcurveto
          15 0 7 -7 0 -15 0 -5 -11 -49 -22 -95 -10 -48 -30 -44 -50 -39 -51 -40 -68 -21 -85 -1 -63 0 -49 9 -37 19 -37 19 -36 29 -33 40 -13 15 -17 7 -21 0 -23 0 -25 -13 -28 -27 rrcurveto
          -21 -19 -10 -23 0 -26 0 -14 4 -13 8 -12 75 -109 122 -54 168 0 rrcurveto
          endchar
        </CharString>
        <CharString name="grave">
          0 973 1020 rmoveto
          23 0 22 9 22 17 29 25 14 28 0 29 0 17 -5 15 -10 15 rrcurveto
          -243 308 rlineto
          -16 18 -19 9 -23 0 -23 0 -24 -9 -23 -18 -28 -24 -14 -26 0 -29 0 -17 6 -16 10 -16 rrcurveto
          242 -307 rlineto
          17 -19 20 -9 23 0 rrcurveto
          endchar
        </CharString>
        <CharString name="greater">
          0 286 147 rmoveto
          13 0 13 3 15 6 rrcurveto
          769 363 rlineto
          47 24 23 33 0 43 0 28 -12 21 -23 13 rrcurveto
          -615 355 rlineto
          -13 7 -13 3 -13 0 -23 0 -23 -9 -21 -17 -29 -24 -14 -26 0 -31 0 -26 12 -22 25 -17 rrcurveto
          419 -250 rlineto
          8 -6 5 -6 0 -7 0 -12 -8 -11 -15 -8 rrcurveto
          -529 -254 rlineto
          -48 -26 -24 -33 0 -41 0 -17 6 -15 11 -14 14 -18 19 -9 24 0 rrcurveto
          endchar
        </CharString>
        <CharString name="greater_greater">
          0 136 147 rmoveto
          13 0 13 3 15 6 rrcurveto
          769 363 rlineto
          47 24 23 33 0 43 0 28 -12 21 -23 13 rrcurveto
          -615 355 rlineto
          -13 7 -13 3 -13 0 -23 0 -23 -9 -21 -17 -29 -24 -14 -26 0 -31 0 -26 12 -22 25 -17 rrcurveto
          419 -250 rlineto
          8 -6 5 -6 0 -7 0 -12 -8 -11 -15 -8 rrcurveto
          -529 -254 rlineto
          -48 -26 -24 -33 0 -41 0 -17 6 -15 11 -14 14 -18 19 -9 24 0 rrcurveto
          -900 hmoveto
          13 0 13 3 15 6 rrcurveto
          769 363 rlineto
          47 24 23 33 0 43 0 28 -12 21 -23 13 rrcurveto
          -615 355 rlineto
          -13 7 -13 3 -13 0 -23 0 -23 -9 -21 -17 -29 -24 -14 -26 0 -31 0 -26 12 -22 25 -17 rrcurveto
          419 -250 rlineto
          8 -6 5 -6 0 -7 0 -12 -8 -11 -15 -8 rrcurveto
          -529 -254 rlineto
          -48 -26 -24 -33 0 -41 0 -17 6 -15 11 -14 14 -18 19 -9 24 0 rrcurveto
          endchar
        </CharString>
        <CharString name="greater_greater_greater">
          0 -914 147 rmoveto
          13 0 13 3 15 6 rrcurveto
          769 363 rlineto
          47 24 23 33 0 43 0 28 -12 21 -23 13 rrcurveto
          -615 355 rlineto
          -13 7 -13 3 -13 0 -23 0 -23 -9 -21 -17 -29 -24 -14 -26 0 -31 0 -26 12 -22 25 -17 rrcurveto
          419 -250 rlineto
          8 -6 5 -6 0 -7 0 -12 -8 -11 -15 -8 rrcurveto
          -529 -254 rlineto
          -48 -26 -24 -33 0 -41 0 -17 6 -15 11 -14 14 -18 19 -9 24 0 rrcurveto
          -900 hmoveto
          13 0 13 3 15 6 rrcurveto
          769 363 rlineto
          47 24 23 33 0 43 0 28 -12 21 -23 13 rrcurveto
          -615 355 rlineto
          -13 7 -13 3 -13 0 -23 0 -23 -9 -21 -17 -29 -24 -14 -26 0 -31 0 -26 12 -22 25 -17 rrcurveto
          419 -250 rlineto
          8 -6 5 -6 0 -7 0 -12 -8 -11 -15 -8 rrcurveto
          -529 -254 rlineto
          -48 -26 -24 -33 0 -41 0 -17 6 -15 11 -14 14 -18 19 -9 24 0 rrcurveto
          1800 hmoveto
          13 0 13 3 15 6 rrcurveto
          769 363 rlineto
          47 24 23 33 0 43 0 28 -12 21 -23 13 rrcurveto
          -615 355 rlineto
          -13 7 -13 3 -13 0 -23 0 -23 -9 -21 -17 -29 -24 -14 -26 0 -31 0 -26 12 -22 25 -17 rrcurveto
          419 -250 rlineto
          8 -6 5 -6 0 -7 0 -12 -8 -11 -15 -8 rrcurveto
          -529 -254 rlineto
          -48 -26 -24 -33 0 -41 0 -17 6 -15 11 -14 14 -18 19 -9 24 0 rrcurveto
          endchar
        </CharString>
        <CharString name="h">
          0 1054 -30 rmoveto
          45 0 41 10 35 20 43 25 22 23 0 21 0 14 -4 11 -8 8 -8 8 -11 4 -14 0 -11 0 -10 -5 -10 -10 -11 -9 -12 -5 -15 0 -27 0 -14 25 0 49 0 27 4 34 8 39 rrcurveto
          82 386 rlineto
          13 63 7 55 0 49 0 72 -15 56 -29 41 -45 66 -85 33 -125 0 -97 -1 -102 -47 -107 -91 -10 -8 -8 -4 -5 0 -7 0 -3 4 0 9 0 3 19 92 38 181 33 153 16 79 0 7 rrcurveto
          0 17 -5 16 -11 13 -14 18 -20 9 -25 0 -24 0 -23 -9 -22 -18 -23 -19 -14 -23 -6 -27 -196 -917 -98 -465 0 -13 0 -17 5 -14 9 -12 14 -17 20 -9 27 0 29 0 24 9 19 17 rrcurveto
          18 17 12 23 6 28 rrcurveto
          117 548 rlineto
          19 89 51 70 83 51 69 40 66 20 61 0 114 0 57 -55 0 -111 0 -25 -3 -27 -6 -31 rrcurveto
          -95 -471 rlineto
          -3 -15 -2 -23 0 -31 0 -35 13 -29 27 -23 26 -24 39 -12 52 0 rrcurveto
          endchar
        </CharString>
        <CharString name="hyphen">
          0 948 510 rmoveto
          25 0 23 9 22 18 21 17 13 21 6 25 5 25 -5 21 -13 18 -14 17 -20 9 -24 0 rrcurveto
          -480 hlineto
          -25 0 -23 -9 -21 -17 -22 -18 -13 -21 -5 -25 -6 -25 5 -21 14 -17 13 -18 20 -9 24 0 rrcurveto
          endchar
        </CharString>
        <CharString name="hyphenminus">
          0 1048 510 rmoveto
          25 0 23 9 22 18 28 23 14 27 0 32 0 17 -5 15 -10 13 -14 17 -19 9 -25 0 rrcurveto
          -680 hlineto
          -25 0 -23 -9 -21 -17 -28 -23 -14 -28 0 -33 0 -16 5 -14 10 -13 13 -18 19 -9 25 0 rrcurveto
          endchar
        </CharString>
        <CharString name="i">
          0 685 -30 rmoveto
          86 0 83 23 80 45 80 45 89 76 100 108 9 10 5 13 0 16 1 15 -6 14 -11 12 -11 11 -15 6 -18 0 -16 0 -14 -5 -11 -10 -66 -64 -55 -46 -44 -28 -44 -28 -50 -14 -56 0 rrcurveto
          -55 0 -28 27 -1 53 1 42 28 122 55 202 47 185 24 96 0 6 0 41 -10 35 -21 29 -20 29 -26 14 -32 0 -8 0 -140 -37 -272 -73 -71 -18 -37 -42 -1 -66 0 -28 7 -20 14 -11 rrcurveto
          14 -12 13 -6 13 0 8 0 58 19 109 37 108 37 58 19 7 0 18 0 9 -10 -1 -19 0 -7 -24 -93 -50 -180 -51 -179 -27 -131 -1 -81 -2 -119 57 -60 114 0 rrcurveto
          117 1265 rmoveto
          38 0 35 14 34 29 46 38 23 46 1 55 -1 26 -8 23 -16 19 -21 30 -30 15 -39 0 -41 0 -38 -14 -34 -29 -43 -39 -23 -45 0 -51 0 -28 8 -25 15 -21 22 -29 32 -14 40 0 rrcurveto
          endchar
        </CharString>
        <CharString name="j">
          0 370 -336 rmoveto
          -59 0 -29 25 0 51 0 98 123 141 247 184 -91 -333 -94 -166 -97 0 rrcurveto
          -29 -144 rmoveto
          87 0 81 32 73 63 73 63 64 110 57 159 20 60 29 114 39 167 rrcurveto
          292 234 rlineto
          15 11 7 16 0 20 0 15 -5 14 -11 13 -11 13 -15 6 -17 0 -15 0 -13 -5 -11 -9 rrcurveto
          -189 -158 rlineto
          71 288 36 148 0 8 -1 41 -10 35 -21 29 -21 29 -27 14 -31 0 -9 0 -139 -37 -270 -73 -71 -18 -36 -42 0 -66 0 -28 7 -20 15 -11 14 -12 13 -6 13 0 8 0 58 19 108 37 rrcurveto
          108 37 57 19 7 0 18 0 9 -10 0 -19 0 -12 -39 -167 -79 -322 -243 -161 -150 -123 -59 -86 -59 -87 -30 -82 0 -77 1 -122 67 -61 135 0 rrcurveto
          569 1715 rmoveto
          38 0 36 14 33 29 45 38 22 46 0 55 -1 26 -9 23 -16 19 -21 30 -31 15 -39 0 -41 0 -37 -14 -34 -29 -43 -39 -21 -45 0 -51 1 -28 9 -25 15 -21 23 -29 31 -14 40 0 rrcurveto
          endchar
        </CharString>
        <CharString name="k">
          0 897 -30 rmoveto
          31 0 30 14 29 29 50 49 36 63 21 78 1 6 1 5 0 5 0 31 -15 15 -30 0 -25 0 -15 -14 -6 -27 -12 -56 -23 -28 -34 0 -22 0 -62 85 -101 169 -9 15 -5 12 0 9 rrcurveto
          0 11 6 9 12 6 241 117 123 152 4 187 0 112 -56 56 -111 0 -97 0 -124 -57 -152 -115 81 351 41 181 0 13 0 21 -7 18 -14 13 -17 17 -22 8 -27 0 -48 0 -31 -26 -13 -52 rrcurveto
          -215 -921 -108 -467 0 -14 0 -20 5 -17 11 -15 13 -17 20 -9 27 0 22 0 20 7 19 15 18 14 12 18 6 22 rrcurveto
          146 591 rlineto
          4 15 11 16 19 17 138 131 101 65 65 0 52 0 26 -19 0 -37 0 -101 -135 -108 -271 -115 -15 -7 -8 -10 0 -14 0 -12 5 -13 9 -13 rrcurveto
          278 -411 rlineto
          25 -35 32 -18 39 0 rrcurveto
          endchar
        </CharString>
        <CharString name="l">
          0 706 780 rmoveto
          72 297 rlineto
          51 198 89 99 128 0 79 -1 40 -37 1 -71 0 -94 -29 -79 -58 -63 -73 -79 -125 -83 -175 -87 rrcurveto
          -94 -810 rmoveto
          60 0 53 10 45 20 77 27 78 65 79 103 11 14 5 15 0 17 -1 21 -9 18 -15 15 -15 15 -19 7 -21 0 -22 0 -20 -11 -19 -22 -40 -55 -36 -38 -33 -23 -33 -23 -38 -11 -42 0 rrcurveto
          -55 1 -27 21 0 43 0 34 25 128 51 222 228 121 153 95 78 69 131 123 66 141 0 161 0 69 -25 58 -51 46 -47 43 -62 21 -78 0 -122 0 -100 -41 -79 -83 -79 -83 -60 -124 -42 -167 rrcurveto
          -92 -360 rlineto
          -118 -51 -81 -33 -45 -15 -31 -11 -15 -22 -1 -33 0 -23 8 -17 17 -13 17 -13 16 -7 17 0 18 0 60 26 103 52 -23 -101 -15 -72 -7 -42 -5 -33 -3 -42 0 -51 3 -134 76 -67 151 0 rrcurveto
          endchar
        </CharString>
        <CharString name="left_arrow_single">
          0 -479 478 rmoveto
          -8 0 -7 3 -5 6 rrcurveto
          -71 88 rlineto
          -3 5 -2 5 0 5 0 11 5 9 9 8 rrcurveto
          108 89 rlineto
          8 6 8 3 8 0 8 0 7 -3 5 -6 rrcurveto
          69 -89 rlineto
          4 -5 2 -5 0 -6 0 -10 -5 -8 -10 -9 rrcurveto
          -106 -88 rlineto
          -8 -6 -8 -3 -8 0 rrcurveto
          107 -427 rmoveto
          25 0 24 9 21 17 27 23 14 27 0 31 0 16 -5 15 -10 15 rrcurveto
          -89 113 rlineto
          -3 5 -1 5 0 6 0 10 4 9 10 9 rrcurveto
          138 117 rlineto
          11 9 13 7 17 7 17 6 14 3 12 0 rrcurveto
          1181 hlineto
          25 0 23 9 22 18 28 23 14 27 0 32 0 17 -5 15 -10 13 -14 17 -19 9 -25 0 rrcurveto
          -1180 hlineto
          -13 0 -13 3 -13 7 -14 6 -11 7 -8 9 rrcurveto
          -89 114 rlineto
          -4 5 -1 6 0 6 0 9 5 9 9 8 rrcurveto
          137 113 rlineto
          28 26 14 29 0 31 0 17 -6 15 -10 12 -15 17 -19 8 -23 0 -22 0 -23 -9 -24 -17 rrcurveto
          -554 -459 rlineto
          -29 -24 -14 -27 0 -30 0 -17 5 -16 10 -15 rrcurveto
          360 -457 rlineto
          17 -17 19 -8 22 0 rrcurveto
          endchar
        </CharString>
        <CharString name="left_right_arrow_double">
          0 613 422 rmoveto
          -8 0 -7 3 -5 6 rrcurveto
          -25 33 rlineto
          -16 18 -20 9 -24 0 rrcurveto
          -2008 hlineto
          -24 0 -23 -9 -23 -18 rrcurveto
          -39 -33 rlineto
          -8 -6 -8 -3 -8 0 -8 0 -7 3 -5 6 rrcurveto
          -116 146 rlineto
          -4 5 -1 6 0 6 0 9 4 9 10 8 rrcurveto
          180 149 rlineto
          8 6 8 3 8 0 8 0 6 -3 5 -6 rrcurveto
          26 -33 rlineto
          17 -17 19 -9 23 0 rrcurveto
          2006 hlineto
          23 0 23 9 23 17 rrcurveto
          40 33 rlineto
          7 6 8 3 8 0 8 0 7 -3 5 -6 rrcurveto
          118 -149 rlineto
          3 -4 2 -5 0 -5 0 -11 -5 -10 -9 -8 rrcurveto
          -178 -146 rlineto
          -8 -6 -8 -3 -8 0 rrcurveto
          -219 -371 rmoveto
          22 0 23 9 23 17 rrcurveto
          555 457 rlineto
          28 25 14 28 0 31 0 17 -5 14 -10 14 rrcurveto
          -360 458 rlineto
          -16 17 -19 9 -22 0 -25 0 -23 -9 -21 -17 -28 -23 -14 -27 0 -32 0 -15 5 -16 9 -15 32 -39 16 -22 0 -3 0 -13 -4 -10 -8 -6 -8 -7 -8 -3 -7 0 rrcurveto
          -1908 hlineto
          -7 0 -6 3 -4 5 -4 5 -1 5 0 5 0 10 4 9 9 7 rrcurveto
          66 54 rlineto
          28 26 14 28 0 30 0 17 -5 14 -10 13 -14 17 -19 9 -25 0 -22 0 -23 -9 -24 -17 rrcurveto
          -554 -458 rlineto
          -28 -24 -15 -27 0 -31 0 -17 6 -15 10 -15 rrcurveto
          359 -457 rlineto
          17 -17 19 -9 22 0 25 0 23 9 21 18 28 23 14 27 0 32 0 17 -5 14 -10 14 rrcurveto
          -45 57 rlineto
          -3 5 -1 4 0 5 0 10 4 8 8 7 9 7 7 3 7 0 rrcurveto
          1912 hlineto
          7 0 6 -3 4 -5 4 -5 2 -6 0 -6 0 -8 -4 -9 -8 -7 rrcurveto
          -68 -57 rlineto
          -30 -24 -14 -28 0 -32 0 -16 5 -14 10 -13 14 -18 19 -9 25 0 rrcurveto
          endchar
        </CharString>
        <CharString name="left_right_arrow_double_long">
          0 613 422 rmoveto
          -8 0 -7 3 -5 6 rrcurveto
          -25 33 rlineto
          -16 18 -20 9 -24 0 rrcurveto
          -3208 hlineto
          -24 0 -23 -9 -23 -18 rrcurveto
          -39 -33 rlineto
          -8 -6 -8 -3 -8 0 -8 0 -7 3 -5 6 rrcurveto
          -116 146 rlineto
          -4 5 -1 6 0 6 0 9 4 9 10 8 rrcurveto
          180 149 rlineto
          8 6 8 3 8 0 8 0 6 -3 5 -6 rrcurveto
          26 -33 rlineto
          17 -17 19 -9 23 0 rrcurveto
          3206 hlineto
          23 0 23 9 23 17 rrcurveto
          40 33 rlineto
          7 6 8 3 8 0 8 0 7 -3 5 -6 rrcurveto
          118 -149 rlineto
          3 -4 2 -5 0 -5 0 -11 -5 -10 -9 -8 rrcurveto
          -178 -146 rlineto
          -8 -6 -8 -3 -8 0 rrcurveto
          -219 -371 rmoveto
          22 0 23 9 23 17 rrcurveto
          555 457 rlineto
          28 25 14 28 0 31 0 17 -5 14 -10 14 rrcurveto
          -360 458 rlineto
          -16 17 -19 9 -22 0 -25 0 -23 -9 -21 -17 -28 -23 -14 -27 0 -32 0 -15 5 -16 9 -15 32 -39 16 -22 0 -3 0 -13 -4 -10 -8 -6 -8 -7 -8 -3 -7 0 rrcurveto
          -3108 hlineto
          -7 0 -6 3 -4 5 -4 5 -1 5 0 5 0 10 4 9 9 7 rrcurveto
          66 54 rlineto
          28 26 14 28 0 30 0 17 -5 14 -10 13 -14 17 -19 9 -25 0 -22 0 -23 -9 -24 -17 rrcurveto
          -554 -458 rlineto
          -28 -24 -15 -27 0 -31 0 -17 6 -15 10 -15 rrcurveto
          359 -457 rlineto
          17 -17 19 -9 22 0 25 0 23 9 21 18 28 23 14 27 0 32 0 17 -5 14 -10 14 rrcurveto
          -45 57 rlineto
          -3 5 -1 4 0 5 0 10 4 8 8 7 9 7 7 3 7 0 rrcurveto
          3112 hlineto
          7 0 6 -3 4 -5 4 -5 2 -6 0 -6 0 -8 -4 -9 -8 -7 rrcurveto
          -68 -57 rlineto
          -30 -24 -14 -28 0 -32 0 -16 5 -14 10 -13 14 -18 19 -9 25 0 rrcurveto
          endchar
        </CharString>
        <CharString name="left_right_arrow_single">
          0 -1679 478 rmoveto
          -8 0 -7 3 -5 6 rrcurveto
          -71 88 rlineto
          -3 5 -2 5 0 5 0 11 5 9 9 8 rrcurveto
          108 89 rlineto
          8 6 8 3 8 0 8 0 7 -3 5 -6 rrcurveto
          69 -89 rlineto
          4 -5 2 -5 0 -6 0 -10 -5 -8 -10 -9 rrcurveto
          -106 -88 rlineto
          -8 -6 -8 -3 -8 0 rrcurveto
          107 -427 rmoveto
          25 0 24 9 21 17 27 23 14 27 0 31 0 16 -5 15 -10 15 rrcurveto
          -89 113 rlineto
          -3 5 -1 5 0 6 0 10 4 9 10 9 rrcurveto
          138 117 rlineto
          11 9 13 7 17 7 17 6 14 3 12 0 rrcurveto
          2381 hlineto
          25 0 23 9 22 18 28 23 14 27 0 32 0 17 -5 15 -10 13 -14 17 -19 9 -25 0 rrcurveto
          -2380 hlineto
          -13 0 -13 3 -13 7 -14 6 -11 7 -8 9 rrcurveto
          -89 114 rlineto
          -4 5 -1 6 0 6 0 9 5 9 9 8 rrcurveto
          137 113 rlineto
          28 26 14 29 0 31 0 17 -6 15 -10 12 -15 17 -19 8 -23 0 -22 0 -23 -9 -24 -17 rrcurveto
          -554 -459 rlineto
          -29 -24 -14 -27 0 -30 0 -17 5 -16 10 -15 rrcurveto
          360 -457 rlineto
          17 -17 19 -8 22 0 rrcurveto
          endchar
        </CharString>
        <CharString name="left_right_arrow_single_long">
          0 683 478 rmoveto
          -8 0 -7 3 -5 6 rrcurveto
          -71 88 rlineto
          -3 5 -2 5 0 5 0 11 5 9 9 8 rrcurveto
          108 89 rlineto
          8 6 8 3 8 0 8 0 7 -3 5 -6 rrcurveto
          69 -89 rlineto
          4 -5 2 -5 0 -6 0 -10 -5 -8 -10 -9 rrcurveto
          -106 -88 rlineto
          -8 -6 -8 -3 -8 0 rrcurveto
          -3562 hmoveto
          -8 0 -7 3 -5 6 rrcurveto
          -70 88 rlineto
          -4 5 -2 5 0 6 0 10 5 10 10 7 rrcurveto
          107 89 rlineto
          8 6 8 3 8 0 8 0 7 -3 5 -6 rrcurveto
          70 -89 rlineto
          4 -5 1 -5 0 -6 0 -9 -4 -9 -10 -9 rrcurveto
          -107 -88 rlineto
          -8 -6 -8 -3 -8 0 rrcurveto
          3273 -427 rmoveto
          22 0 23 8 23 17 rrcurveto
          554 457 rlineto
          29 26 14 28 0 30 0 17 -5 14 -10 14 rrcurveto
          -360 459 rlineto
          -16 17 -19 9 -22 0 -23 0 -23 -8 -22 -17 -29 -23 -15 -28 0 -32 0 -17 5 -15 10 -15 rrcurveto
          89 -113 rlineto
          3 -5 2 -4 0 -5 0 -11 -5 -10 -9 -8 rrcurveto
          -139 -114 rlineto
          -11 -9 -13 -7 -16 -6 -17 -7 -14 -3 -13 0 rrcurveto
          -2880 hlineto
          -13 0 -13 3 -13 7 -14 6 -11 7 -8 9 rrcurveto
          -89 114 rlineto
          -4 5 -1 6 0 6 0 9 5 9 9 8 rrcurveto
          137 113 rlineto
          28 26 14 29 0 31 0 17 -6 15 -10 12 -15 17 -19 8 -23 0 -22 0 -23 -9 -24 -17 rrcurveto
          -554 -459 rlineto
          -29 -24 -14 -27 0 -30 0 -17 5 -16 10 -15 rrcurveto
          360 -457 rlineto
          17 -17 19 -8 22 0 25 0 24 9 21 17 27 23 14 27 0 31 0 16 -5 15 -10 15 rrcurveto
          -89 113 rlineto
          -3 5 -1 5 0 6 0 10 4 9 10 9 rrcurveto
          138 117 rlineto
          11 9 13 7 17 7 17 6 14 3 12 0 rrcurveto
          2881 hlineto
          13 0 13 -3 14 -6 13 -7 11 -7 8 -9 rrcurveto
          89 -117 rlineto
          3 -5 2 -5 0 -5 0 -11 -5 -10 -10 -8 rrcurveto
          -137 -113 rlineto
          -27 -26 -14 -27 0 -30 0 -17 5 -14 10 -13 13 -17 20 -9 25 0 rrcurveto
          endchar
        </CharString>
        <CharString name="leftfiveeighthsblock">
          0 -600 vmoveto
          750 2640 -750 hlineto
          endchar
        </CharString>
        <CharString name="lefthalfblock">
          0 -600 vmoveto
          600 2640 -600 hlineto
          endchar
        </CharString>
        <CharString name="leftoneeighthblock">
          0 -600 vmoveto
          150 2640 -150 hlineto
          endchar
        </CharString>
        <CharString name="leftonequarterblock">
          0 -600 vmoveto
          300 2640 -300 hlineto
          endchar
        </CharString>
        <CharString name="leftrightarrow">
          0 304 70 rmoveto
          210 hlineto
          -324 408 rlineto
          -17 20 -17 19 -17 17 -17 17 -13 13 -9 8 rrcurveto
          18 vlineto
          17 -1 23 -2 27 -3 27 -3 25 -1 21 0 rrcurveto
          720 hlineto
          23 0 24 1 27 2 27 2 22 2 17 1 rrcurveto
          -18 vlineto
          -12 -9 -15 -13 -17 -17 -17 -17 -16 -17 -13 -17 rrcurveto
          -324 -410 rlineto
          212 hlineto
          462 590 -464 590 rlineto
          -210 hlineto
          324 -408 rlineto
          17 -20 17 -19 17 -17 17 -17 13 -13 9 -8 rrcurveto
          -18 vlineto
          -17 3 -22 2 -27 2 -27 2 -24 1 -23 0 rrcurveto
          -720 hlineto
          -21 0 -25 -1 -27 -1 -27 -1 -23 -2 -17 -3 rrcurveto
          18 vlineto
          12 9 15 13 17 17 17 17 16 17 13 17 rrcurveto
          324 410 rlineto
          -212 hlineto
          -462 -590 rlineto
          endchar
        </CharString>
        <CharString name="leftseveneighthsblock">
          0 -600 vmoveto
          1050 2640 -1050 hlineto
          endchar
        </CharString>
        <CharString name="leftthreeeighthsblock">
          0 -600 vmoveto
          400 2640 -400 hlineto
          endchar
        </CharString>
        <CharString name="leftthreequartersblock">
          0 -600 vmoveto
          900 2640 -900 hlineto
          endchar
        </CharString>
        <CharString name="leftwardsarrow">
          0 544 70 rmoveto
          210 hlineto
          -324 408 rlineto
          -17 20 -17 19 -17 17 -17 17 -13 13 -9 8 rrcurveto
          18 vlineto
          17 -1 23 -2 27 -3 27 -3 25 -1 21 0 rrcurveto
          660 160 -660 hlineto
          -21 0 -25 -1 -27 -1 -27 -1 -23 -2 -17 -3 rrcurveto
          18 vlineto
          12 9 15 13 17 17 17 17 16 17 13 17 rrcurveto
          324 410 rlineto
          -212 hlineto
          -462 -590 rlineto
          endchar
        </CharString>
        <CharString name="less">
          0 977 147 rmoveto
          24 0 23 9 22 18 28 23 14 28 0 32 0 25 -12 21 -23 17 rrcurveto
          -421 254 rlineto
          -7 5 -4 7 0 7 0 13 7 10 15 8 rrcurveto
          526 250 rlineto
          47 26 23 34 0 42 0 16 -5 15 -10 13 -14 17 -19 9 -23 0 -14 0 -14 -3 -15 -7 rrcurveto
          -766 -355 rlineto
          -37 -17 -23 -27 -7 -37 -2 -7 -1 -8 0 -6 0 -25 12 -20 23 -15 rrcurveto
          615 -363 rlineto
          12 -6 13 -3 13 0 rrcurveto
          endchar
        </CharString>
        <CharString name="less_greater">
          0 45 206 rmoveto
          -613 368 rlineto
          -7 4 -4 6 0 8 0 15 7 11 15 6 rrcurveto
          767 363 613 -363 rlineto
          8 -5 5 -6 0 -8 0 -14 -8 -10 -15 -7 rrcurveto
          -806 -563 rmoveto
          11 0 20 7 28 14 rrcurveto
          1030 487 rlineto
          37 18 23 27 8 36 1 6 1 7 0 6 0 28 -12 21 -23 13 rrcurveto
          -834 483 rlineto
          -18 10 -17 5 -16 0 -9 0 -16 -5 -24 -11 rrcurveto
          -1038 -482 rlineto
          -37 -17 -23 -27 -7 -37 -2 -8 -1 -7 0 -7 0 -25 12 -19 23 -15 rrcurveto
          826 -488 rlineto
          21 -13 19 -7 17 0 rrcurveto
          endchar
        </CharString>
        <CharString name="less_less">
          0 827 147 rmoveto
          24 0 23 9 22 18 28 23 14 28 0 32 0 25 -12 21 -23 17 rrcurveto
          -421 254 rlineto
          -7 5 -4 7 0 7 0 13 7 10 15 8 rrcurveto
          526 250 rlineto
          47 26 23 34 0 42 0 16 -5 15 -10 13 -14 17 -19 9 -23 0 -14 0 -14 -3 -15 -7 rrcurveto
          -766 -355 rlineto
          -37 -17 -23 -27 -7 -37 -2 -7 -1 -8 0 -6 0 -25 12 -20 23 -15 rrcurveto
          615 -363 rlineto
          12 -6 13 -3 13 0 rrcurveto
          -900 hmoveto
          24 0 23 9 22 18 28 23 14 28 0 32 0 25 -12 21 -23 17 rrcurveto
          -421 254 rlineto
          -7 5 -4 7 0 7 0 13 7 10 15 8 rrcurveto
          526 250 rlineto
          47 26 23 34 0 42 0 16 -5 15 -10 13 -14 17 -19 9 -23 0 -14 0 -14 -3 -15 -7 rrcurveto
          -766 -355 rlineto
          -37 -17 -23 -27 -7 -37 -2 -7 -1 -8 0 -6 0 -25 12 -20 23 -15 rrcurveto
          615 -363 rlineto
          12 -6 13 -3 13 0 rrcurveto
          endchar
        </CharString>
        <CharString name="less_less_less">
          0 677 147 rmoveto
          24 0 23 9 22 18 28 23 14 28 0 32 0 25 -12 21 -23 17 rrcurveto
          -421 254 rlineto
          -7 5 -4 7 0 7 0 13 7 10 15 8 rrcurveto
          526 250 rlineto
          47 26 23 34 0 42 0 16 -5 15 -10 13 -14 17 -19 9 -23 0 -14 0 -14 -3 -15 -7 rrcurveto
          -766 -355 rlineto
          -37 -17 -23 -27 -7 -37 -2 -7 -1 -8 0 -6 0 -25 12 -20 23 -15 rrcurveto
          615 -363 rlineto
          12 -6 13 -3 13 0 rrcurveto
          -900 hmoveto
          24 0 23 9 22 18 28 23 14 28 0 32 0 25 -12 21 -23 17 rrcurveto
          -421 254 rlineto
          -7 5 -4 7 0 7 0 13 7 10 15 8 rrcurveto
          526 250 rlineto
          47 26 23 34 0 42 0 16 -5 15 -10 13 -14 17 -19 9 -23 0 -14 0 -14 -3 -15 -7 rrcurveto
          -766 -355 rlineto
          -37 -17 -23 -27 -7 -37 -2 -7 -1 -8 0 -6 0 -25 12 -20 23 -15 rrcurveto
          615 -363 rlineto
          12 -6 13 -3 13 0 rrcurveto
          -900 hmoveto
          24 0 23 9 22 18 28 23 14 28 0 32 0 25 -12 21 -23 17 rrcurveto
          -421 254 rlineto
          -7 5 -4 7 0 7 0 13 7 10 15 8 rrcurveto
          526 250 rlineto
          47 26 23 34 0 42 0 16 -5 15 -10 13 -14 17 -19 9 -23 0 -14 0 -14 -3 -15 -7 rrcurveto
          -766 -355 rlineto
          -37 -17 -23 -27 -7 -37 -2 -7 -1 -8 0 -6 0 -25 12 -20 23 -15 rrcurveto
          615 -363 rlineto
          12 -6 13 -3 13 0 rrcurveto
          endchar
        </CharString>
        <CharString name="less_slash">
          0 -158 -330 rmoveto
          17 0 17 5 17 10 17 9 14 13 11 17 rrcurveto
          1150 1750 rlineto
          12 19 6 18 0 18 0 10 -2 10 -4 10 -11 27 -23 14 -33 0 -17 0 -17 -5 -17 -9 -17 -9 -14 -13 -11 -17 rrcurveto
          -885 -1347 -620 374 rlineto
          -7 5 -4 7 0 7 0 13 7 10 15 8 rrcurveto
          526 250 rlineto
          47 26 23 34 0 42 0 16 -5 15 -10 13 -14 17 -19 9 -23 0 -14 0 -14 -3 -15 -7 rrcurveto
          -766 -355 rlineto
          -37 -17 -23 -27 -7 -37 -2 -7 -1 -8 0 -6 0 -25 12 -20 23 -15 rrcurveto
          818 -486 -155 -236 rlineto
          -12 -19 -6 -18 0 -17 0 -11 2 -10 4 -10 12 -28 22 -14 33 0 rrcurveto
          endchar
        </CharString>
        <CharString name="less_slash_greater">
          0 -1088 -330 rmoveto
          17 0 17 5 17 10 17 9 14 13 11 17 rrcurveto
          860 1308 688 -408 rlineto
          8 -6 5 -6 0 -7 0 -12 -8 -11 -15 -8 rrcurveto
          -529 -254 rlineto
          -48 -26 -24 -33 0 -41 0 -17 6 -15 11 -14 14 -18 19 -9 24 0 13 0 13 3 15 6 rrcurveto
          769 363 rlineto
          47 24 23 33 0 43 0 28 -12 21 -23 13 rrcurveto
          -888 516 182 277 rlineto
          12 19 6 18 0 18 0 10 -2 10 -4 10 -11 27 -23 14 -33 0 -17 0 -17 -5 -17 -9 -17 -9 -14 -13 -11 -17 rrcurveto
          -885 -1347 -620 374 rlineto
          -7 5 -4 7 0 7 0 13 7 10 15 8 rrcurveto
          526 250 rlineto
          47 26 23 34 0 42 0 16 -5 15 -10 13 -14 17 -19 9 -23 0 -14 0 -14 -3 -15 -7 rrcurveto
          -766 -355 rlineto
          -37 -17 -23 -27 -7 -37 -2 -7 -1 -8 0 -6 0 -25 12 -20 23 -15 rrcurveto
          818 -486 -155 -236 rlineto
          -12 -19 -6 -18 0 -17 0 -11 2 -10 4 -10 12 -28 22 -14 33 0 rrcurveto
          endchar
        </CharString>
        <CharString name="lightshade">
          0 1080 1920 rmoveto
          120 120 -120 hlineto
          -960 -120 rmoveto
          120 120 -120 hlineto
          240 -120 rmoveto
          120 120 -120 hlineto
          240 -120 rmoveto
          120 120 -120 hlineto
          240 -120 rmoveto
          120 120 -120 hlineto
          240 -360 rmoveto
          120 120 -120 hlineto
          -960 -120 rmoveto
          120 120 -120 hlineto
          240 -120 rmoveto
          120 120 -120 hlineto
          240 -120 rmoveto
          120 120 -120 hlineto
          240 -120 rmoveto
          120 120 -120 hlineto
          240 -360 rmoveto
          120 120 -120 hlineto
          -960 -120 rmoveto
          120 120 -120 hlineto
          240 -120 rmoveto
          120 120 -120 hlineto
          240 -120 rmoveto
          120 120 -120 hlineto
          240 -120 rmoveto
          120 120 -120 hlineto
          240 -360 rmoveto
          120 120 -120 hlineto
          -960 -120 rmoveto
          120 120 -120 hlineto
          240 -120 rmoveto
          120 120 -120 hlineto
          240 -120 rmoveto
          120 120 -120 hlineto
          240 -120 rmoveto
          120 120 -120 hlineto
          240 -360 rmoveto
          120 120 -120 hlineto
          -960 -120 rmoveto
          120 120 -120 hlineto
          240 -120 rmoveto
          120 120 -120 hlineto
          240 -120 rmoveto
          120 120 -120 hlineto
          240 -120 rmoveto
          120 120 -120 hlineto
          240 -360 rmoveto
          120 120 -120 hlineto
          -960 -120 rmoveto
          120 120 -120 hlineto
          240 -120 rmoveto
          120 120 -120 hlineto
          240 -120 rmoveto
          120 120 -120 hlineto
          240 -120 rmoveto
          120 120 -120 hlineto
          240 -360 rmoveto
          120 120 -120 hlineto
          -960 -120 rmoveto
          120 120 -120 hlineto
          240 -120 rmoveto
          120 120 -120 hlineto
          240 -120 rmoveto
          120 120 -120 hlineto
          240 -120 rmoveto
          120 120 -120 hlineto
          240 -360 rmoveto
          120 120 -120 hlineto
          -960 -120 rmoveto
          120 120 -120 hlineto
          240 -120 rmoveto
          120 120 -120 hlineto
          240 -120 rmoveto
          120 120 -120 hlineto
          240 -120 rmoveto
          120 120 -120 hlineto
          240 -360 rmoveto
          120 120 -120 hlineto
          -960 -120 rmoveto
          120 120 -120 hlineto
          240 -120 rmoveto
          120 120 -120 hlineto
          240 -120 rmoveto
          120 120 -120 hlineto
          240 -120 rmoveto
          120 120 -120 hlineto
          240 -360 rmoveto
          120 120 -120 hlineto
          -960 -120 rmoveto
          120 120 -120 hlineto
          240 -120 rmoveto
          120 120 -120 hlineto
          240 -120 rmoveto
          120 120 -120 hlineto
          240 -120 rmoveto
          120 120 -120 hlineto
          240 -360 rmoveto
          120 120 -120 hlineto
          -960 -120 rmoveto
          120 120 -120 hlineto
          240 -120 rmoveto
          120 120 -120 hlineto
          240 -120 rmoveto
          120 120 -120 hlineto
          240 -120 rmoveto
          120 120 -120 hlineto
          endchar
        </CharString>
        <CharString name="lowerfiveeighthsblock">
          0 -600 vmoveto
          1200 1650 -1200 hlineto
          endchar
        </CharString>
        <CharString name="lowerhalfblock">
          0 -600 vmoveto
          1200 1320 -1200 hlineto
          endchar
        </CharString>
        <CharString name="loweroneeighthblock">
          0 -600 vmoveto
          1200 330 -1200 hlineto
          endchar
        </CharString>
        <CharString name="loweronequarterblock">
          0 -600 vmoveto
          1200 660 -1200 hlineto
          endchar
        </CharString>
        <CharString name="lowerseveneighthsblock">
          0 -600 vmoveto
          1200 2310 -1200 hlineto
          endchar
        </CharString>
        <CharString name="lowerthreeeighthsblock">
          0 -600 vmoveto
          1200 990 -1200 hlineto
          endchar
        </CharString>
        <CharString name="lowerthreequartersblock">
          0 -600 vmoveto
          1200 1980 -1200 hlineto
          endchar
        </CharString>
        <CharString name="m">
          0 574 -31 rmoveto
          25 0 24 9 21 17 21 17 13 22 6 25 rrcurveto
          158 745 rlineto
          6 26 13 23 21 20 21 20 22 10 25 0 50 0 25 -24 0 -47 0 -11 -43 -206 -85 -401 -16 -75 -8 -48 0 -19 0 -34 8 -23 15 -13 15 -13 19 -9 21 -4 21 -4 35 -2 49 0 rrcurveto
          45 0 41 10 35 20 43 25 22 22 0 21 0 15 -4 12 -9 8 -9 7 -12 4 -14 0 -11 0 -11 -5 -13 -10 -13 -10 -14 -5 -13 0 -34 0 -17 24 0 49 0 10 46 223 93 436 rrcurveto
          6 32 3 28 0 25 0 45 -10 36 -19 27 -31 41 -47 21 -64 0 -68 0 -54 -22 -39 -43 -11 -12 -13 -17 -15 -23 -4 -8 -4 -4 -4 0 -2 0 -1 6 0 13 0 34 -10 27 -21 20 rrcurveto
          -21 19 -37 10 -53 0 -69 0 -55 -33 -41 -65 -7 -14 -6 -8 -5 -1 -2 2 -1 3 0 3 0 10 1 10 1 9 rrcurveto
          1 15 rlineto
          0 46 -21 23 -41 0 -23 0 -21 -8 -20 -16 -20 -17 -13 -20 -5 -23 -134 -631 -67 -320 0 -7 0 -17 5 -14 10 -13 13 -17 19 -9 25 0 25 0 23 9 21 17 21 17 13 22 7 25 rrcurveto
          155 731 rlineto
          8 34 15 28 23 21 23 21 22 11 23 0 23 0 19 -7 13 -14 13 -14 7 -17 0 -20 0 -9 -54 -258 -108 -507 -1 -6 -1 -6 0 -6 0 -17 5 -15 11 -14 13 -17 19 -9 24 0 rrcurveto
          endchar
        </CharString>
        <CharString name="mediumshade">
          0 1080 1920 rmoveto
          120 120 -120 hlineto
          -240 -120 rmoveto
          120 120 -120 hlineto
          -240 -120 rmoveto
          120 120 -120 hlineto
          -240 -120 rmoveto
          120 120 -120 hlineto
          -240 -120 rmoveto
          120 120 -120 hlineto
          840 -240 rmoveto
          120 120 -120 hlineto
          -240 -120 rmoveto
          120 120 -120 hlineto
          -240 -120 rmoveto
          120 120 -120 hlineto
          -240 -120 rmoveto
          120 120 -120 hlineto
          -240 -120 rmoveto
          120 120 -120 hlineto
          1080 -240 rmoveto
          120 120 -120 hlineto
          -240 -120 rmoveto
          120 120 -120 hlineto
          -720 -120 rmoveto
          120 120 -120 hlineto
          480 -120 rmoveto
          120 120 -120 hlineto
          -240 -120 rmoveto
          120 120 -120 hlineto
          600 -240 rmoveto
          120 120 -120 hlineto
          -720 -120 rmoveto
          120 120 -120 hlineto
          480 -120 rmoveto
          120 120 -120 hlineto
          -720 -120 rmoveto
          120 120 -120 hlineto
          480 -120 rmoveto
          120 120 -120 hlineto
          -120 -240 rmoveto
          120 120 -120 hlineto
          720 -120 rmoveto
          120 120 -120 hlineto
          -240 -120 rmoveto
          120 120 -120 hlineto
          -720 -120 rmoveto
          120 120 -120 hlineto
          480 -120 rmoveto
          120 120 -120 hlineto
          360 -240 rmoveto
          120 120 -120 hlineto
          -480 -120 rmoveto
          120 120 -120 hlineto
          -240 -120 rmoveto
          120 120 -120 hlineto
          -240 -120 rmoveto
          120 120 -120 hlineto
          720 -120 rmoveto
          120 120 -120 hlineto
          360 -240 rmoveto
          120 120 -120 hlineto
          -720 -120 rmoveto
          120 120 -120 hlineto
          480 -120 rmoveto
          120 120 -120 hlineto
          -240 -120 rmoveto
          120 120 -120 hlineto
          -480 -120 rmoveto
          120 120 -120 hlineto
          600 -240 rmoveto
          120 120 -120 hlineto
          -480 -120 rmoveto
          120 120 -120 hlineto
          240 -120 rmoveto
          120 120 -120 hlineto
          480 -120 rmoveto
          120 120 -120 hlineto
          -960 -120 rmoveto
          120 120 -120 hlineto
          600 -240 rmoveto
          120 120 -120 hlineto
          480 -120 rmoveto
          120 120 -120 hlineto
          -720 -120 rmoveto
          120 120 -120 hlineto
          -240 -120 rmoveto
          120 120 -120 hlineto
          720 -120 rmoveto
          120 120 -120 hlineto
          -840 -240 rmoveto
          120 120 -120 hlineto
          960 -120 rmoveto
          120 120 -120 hlineto
          -240 -120 rmoveto
          120 120 -120 hlineto
          -480 -120 rmoveto
          120 120 -120 hlineto
          240 -120 rmoveto
          120 120 -120 hlineto
          600 -240 rmoveto
          120 120 -120 hlineto
          -480 -120 rmoveto
          120 120 -120 hlineto
          -240 -120 rmoveto
          120 120 -120 hlineto
          -240 -120 rmoveto
          120 120 -120 hlineto
          720 -120 rmoveto
          120 120 -120 hlineto
          -360 -240 rmoveto
          120 120 -120 hlineto
          240 -120 rmoveto
          120 120 -120 hlineto
          -720 -120 rmoveto
          120 120 -120 hlineto
          240 -120 rmoveto
          120 120 -120 hlineto
          720 -120 rmoveto
          120 120 -120 hlineto
          -360 -240 rmoveto
          120 120 -120 hlineto
          -480 -120 rmoveto
          120 120 -120 hlineto
          240 -120 rmoveto
          120 120 -120 hlineto
          720 -120 rmoveto
          120 120 -120 hlineto
          -240 -120 rmoveto
          120 120 -120 hlineto
          -120 -240 rmoveto
          120 120 -120 hlineto
          -480 -120 rmoveto
          120 120 -120 hlineto
          720 -120 rmoveto
          120 120 -120 hlineto
          -480 -120 rmoveto
          120 120 -120 hlineto
          -480 -120 rmoveto
          120 120 -120 hlineto
          840 -240 rmoveto
          120 120 -120 hlineto
          -480 -120 rmoveto
          120 120 -120 hlineto
          240 -120 rmoveto
          120 120 -120 hlineto
          480 -120 rmoveto
          120 120 -120 hlineto
          -960 -120 rmoveto
          120 120 -120 hlineto
          840 -240 rmoveto
          120 120 -120 hlineto
          -960 -120 rmoveto
          120 120 -120 hlineto
          480 -120 rmoveto
          120 120 -120 hlineto
          240 -120 rmoveto
          120 120 -120 hlineto
          -480 -120 rmoveto
          120 120 -120 hlineto
          -120 -240 rmoveto
          120 120 -120 hlineto
          720 -120 rmoveto
          120 120 -120 hlineto
          -240 -120 rmoveto
          120 120 -120 hlineto
          -240 -120 rmoveto
          120 120 -120 hlineto
          720 -120 rmoveto
          120 120 -120 hlineto
          -120 -240 rmoveto
          120 120 -120 hlineto
          -240 -120 rmoveto
          120 120 -120 hlineto
          -720 -120 rmoveto
          120 120 -120 hlineto
          480 -120 rmoveto
          120 120 -120 hlineto
          -240 -120 rmoveto
          120 120 -120 hlineto
          840 -240 rmoveto
          120 120 -120 hlineto
          -240 -120 rmoveto
          120 120 -120 hlineto
          -720 -120 rmoveto
          120 120 -120 hlineto
          480 -120 rmoveto
          120 120 -120 hlineto
          -240 -120 rmoveto
          120 120 -120 hlineto
          -120 -240 rmoveto
          120 120 -120 hlineto
          720 -120 rmoveto
          120 120 -120 hlineto
          -240 -120 rmoveto
          120 120 -120 hlineto
          -240 -120 rmoveto
          120 120 -120 hlineto
          -480 -120 rmoveto
          120 120 -120 hlineto
          1080 -240 rmoveto
          120 120 -120 hlineto
          -720 -120 rmoveto
          120 120 -120 hlineto
          480 -120 rmoveto
          120 120 -120 hlineto
          -240 -120 rmoveto
          120 120 -120 hlineto
          -480 -120 rmoveto
          120 120 -120 hlineto
          360 -240 rmoveto
          120 120 -120 hlineto
          480 -120 rmoveto
          120 120 -120 hlineto
          -240 -120 rmoveto
          120 120 -120 hlineto
          -480 -120 rmoveto
          120 120 -120 hlineto
          -240 -120 rmoveto
          120 120 -120 hlineto
          endchar
        </CharString>
        <CharString name="n">
          0 1023 -30 rmoveto
          45 0 41 10 35 20 43 25 22 22 0 21 0 15 -4 12 -9 8 -9 7 -12 4 -14 0 -11 0 -11 -5 -13 -10 -13 -10 -14 -5 -13 0 -35 0 -18 24 0 49 0 11 34 163 67 314 rrcurveto
          13 63 7 55 0 49 0 72 -15 56 -29 41 -45 66 -80 33 -115 0 -97 -1 -102 -47 -107 -91 -10 -8 -8 -4 -5 0 -7 0 -3 4 0 9 0 3 1 6 2 9 5 19 2 15 0 11 rrcurveto
          0 18 -5 16 -11 14 -13 18 -20 9 -25 0 -25 0 -23 -9 -22 -18 -23 -19 -14 -23 -6 -27 -132 -622 -66 -315 0 -8 0 -17 5 -14 9 -12 14 -17 20 -9 27 0 29 0 24 9 19 17 rrcurveto
          18 17 12 23 6 28 rrcurveto
          117 548 rlineto
          19 89 51 70 83 51 70 40 65 20 61 0 104 0 52 -55 0 -111 0 -25 -3 -27 -6 -31 rrcurveto
          -91 -432 rlineto
          -14 -67 -7 -43 0 -19 0 -25 8 -21 16 -17 16 -17 19 -11 22 -4 22 -5 34 -2 46 0 rrcurveto
          endchar
        </CharString>
        <CharString name="nine">
          0 802 1247 rmoveto
          63 0 48 -22 32 -45 32 -45 16 -60 0 -76 0 -85 -18 -95 -37 -105 -112 -31 -85 -15 -58 0 -55 0 -37 2 -21 5 -71 15 -36 65 -1 114 0 111 45 97 90 82 64 59 68 29 73 0 rrcurveto
          50 183 rmoveto
          -110 0 -92 -22 -75 -45 -75 -45 -64 -60 -55 -75 -72 -106 -36 -119 0 -133 rrcurveto
          -24 vlineto
          5 -186 97 -100 191 -15 28 -3 27 -1 27 0 58 0 68 7 77 15 -127 -225 -173 -138 -217 -52 -60 -14 -39 -15 -18 -17 -19 -17 -9 -17 0 -16 0 -5 2 -5 4 -5 13 -15 17 -7 21 0 rrcurveto
          219 4 190 78 163 152 108 96 86 128 64 160 27 14 25 15 21 16 79 60 40 45 0 31 0 19 -11 9 -22 0 -20 0 -33 -10 -47 -19 29 107 14 100 0 93 0 241 -109 121 -217 0 rrcurveto
          endchar
        </CharString>
        <CharString name="northeastarrow">
          0 138 152 rmoveto
          710 716 rlineto
          19 19 19 20 19 23 19 23 15 18 9 13 rrcurveto
          14 -4 rlineto
          -3 -17 -2 -25 -3 -32 -3 -32 -1 -33 0 -33 rrcurveto
          -398 160 830 -830 -156 390 vlineto
          33 0 32 1 29 3 29 3 22 2 15 1 rrcurveto
          2 -14 rlineto
          -12 -9 -16 -13 -20 -17 -20 -17 -19 -17 -19 -19 rrcurveto
          -706 -712 rlineto
          endchar
        </CharString>
        <CharString name="northwestarrow">
          0 1058 150 rmoveto
          122 126 -706 712 rlineto
          -17 19 -19 17 -21 17 -21 17 -16 13 -12 9 rrcurveto
          2 14 rlineto
          15 -1 22 -2 29 -3 29 -3 32 -1 33 0 rrcurveto
          390 156 -830 -830 160 398 hlineto
          0 33 -2 33 -4 31 -4 31 -3 25 -3 17 rrcurveto
          14 4 rlineto
          11 -13 14 -18 19 -23 19 -23 18 -20 19 -19 rrcurveto
          endchar
        </CharString>
        <CharString name="numbersign">
          0 629 650 rmoveto
          99 468 50 236 0 6 0 16 -5 15 -10 13 -15 17 -19 9 -25 0 -24 0 -23 -9 -21 -17 -22 -18 -14 -21 -5 -24 rrcurveto
          -147 -691 rlineto
          -53 -680 rmoveto
          24 0 23 9 22 18 21 18 14 21 5 24 rrcurveto
          36 170 rlineto
          -181 hlineto
          -25 -120 -13 -63 0 -6 0 -16 5 -15 11 -13 14 -18 19 -9 25 0 rrcurveto
          900 vmoveto
          38 180 rlineto
          -81 hlineto
          -24 0 -23 -9 -21 -18 -29 -24 -14 -27 0 -31 0 -16 5 -15 11 -13 14 -18 19 -9 24 0 rrcurveto
          941 hmoveto
          24 0 23 9 22 18 28 24 14 27 0 32 0 16 -5 15 -10 13 -15 17 -19 9 -24 0 rrcurveto
          -480 hlineto
          -38 -180 rlineto
          -91 -520 rmoveto
          39 180 rlineto
          -481 hlineto
          -24 0 -23 -9 -22 -18 -28 -23 -14 -27 0 -32 0 -16 5 -15 10 -13 14 -18 19 -9 24 0 rrcurveto
          941 hmoveto
          24 0 23 9 22 18 29 23 14 27 0 30 0 17 -5 16 -11 13 -14 18 -19 9 -24 0 rrcurveto
          -80 hlineto
          -39 -180 rlineto
          75 820 rmoveto
          25 121 13 63 0 6 0 16 -5 15 -10 13 -14 17 -19 9 -25 0 -24 0 -23 -9 -21 -17 -22 -18 -14 -21 -5 -24 rrcurveto
          -36 -171 rlineto
          -164 -1200 rmoveto
          24 0 23 9 21 18 21 18 14 21 5 24 rrcurveto
          146 690 rlineto
          -180 hlineto
          -99 -467 -49 -236 0 -6 0 -16 5 -15 11 -13 14 -18 19 -9 25 0 rrcurveto
          endchar
        </CharString>
        <CharString name="numbersign_braceleft">
          0 -571 650 rmoveto
          99 468 50 236 0 6 0 16 -5 15 -10 13 -15 17 -19 9 -25 0 -24 0 -23 -9 -21 -17 -22 -18 -14 -21 -5 -24 rrcurveto
          -147 -691 rlineto
          -53 -680 rmoveto
          24 0 23 9 22 18 21 18 14 21 5 24 rrcurveto
          36 170 rlineto
          -181 hlineto
          -25 -120 -13 -63 0 -6 0 -16 5 -15 11 -13 14 -18 19 -9 25 0 rrcurveto
          1477 535 rmoveto
          23 0 15 14 6 27 rrcurveto
          1 9 rlineto
          0 11 -5 10 -9 9 rrcurveto
          -72 81 rlineto
          -7 8 -3 8 0 9 0 17 8 14 16 12 rrcurveto
          107 81 rlineto
          21 15 10 18 0 20 0 18 -9 9 -19 0 -6 0 -7 -1 -8 -3 rrcurveto
          -325 -136 rlineto
          -38 -11 -19 -23 0 -35 0 -20 12 -13 22 -8 rrcurveto
          267 -136 rlineto
          7 -3 6 -1 6 0 rrcurveto
          200 -768 rmoveto
          22 0 21 8 19 15 19 15 13 22 6 29 2 7 0 7 0 6 0 16 -4 13 -9 11 -13 16 -18 8 -21 0 rrcurveto
          -68 hlineto
          -139 0 -70 47 0 93 0 18 5 29 10 39 5 20 10 42 14 64 rrcurveto
          1 12 rlineto
          0 13 -4 14 -9 14 -11 17 -14 14 -16 9 rrcurveto
          -261 137 rlineto
          -47 25 -52 13 -56 0 rrcurveto
          -304 hlineto
          -39 -180 rlineto
          543 hlineto
          24 0 20 -9 17 -18 17 -17 9 -18 0 -18 0 -5 -1 -6 -1 -5 -7 -29 -6 -24 -5 -20 -5 -20 -4 -19 -4 -18 -5 -18 -3 -12 -2 -7 -7 -34 -3 -31 0 -29 0 -79 25 -64 52 -47 rrcurveto
          21 -21 26 -15 30 -10 30 -10 28 -6 26 -1 25 -2 34 -1 43 0 rrcurveto
          -502 1133 rmoveto
          56 0 57 12 58 25 rrcurveto
          320 138 rlineto
          19 9 20 13 19 18 19 18 11 18 4 17 rrcurveto
          19 89 rlineto
          7 41 5 28 3 16 13 61 36 48 60 35 39 23 57 11 76 0 rrcurveto
          69 hlineto
          21 0 21 8 20 16 26 22 14 29 0 36 0 17 -4 13 -9 10 -13 15 -18 7 -22 0 -104 0 -65 -1 -26 -1 -71 -5 -63 -22 -54 -37 -98 -64 -62 -95 -27 -125 -5 -27 -10 -55 -15 -85 rrcurveto
          -5 -24 -17 -22 -27 -20 -27 -20 -26 -10 -24 0 rrcurveto
          -943 hlineto
          -38 -180 rlineto
          -380 hmoveto
          38 180 rlineto
          -81 hlineto
          -24 0 -23 -9 -21 -18 -29 -24 -14 -27 0 -31 0 -16 5 -15 11 -13 14 -18 19 -9 24 0 rrcurveto
          370 -520 rmoveto
          39 180 rlineto
          -481 hlineto
          -24 0 -23 -9 -22 -18 -28 -23 -14 -27 0 -32 0 -16 5 -15 10 -13 14 -18 19 -9 24 0 rrcurveto
          936 820 rmoveto
          25 121 13 63 0 6 0 16 -5 15 -10 13 -14 17 -19 9 -25 0 -24 0 -23 -9 -21 -17 -22 -18 -14 -21 -5 -24 rrcurveto
          -36 -171 rlineto
          -164 -1200 rmoveto
          24 0 23 9 21 18 21 18 14 21 5 24 rrcurveto
          146 690 rlineto
          -180 hlineto
          -99 -467 -49 -236 0 -6 0 -16 5 -15 11 -13 14 -18 19 -9 25 0 rrcurveto
          endchar
        </CharString>
        <CharString name="numbersign_bracketleft">
          0 783 -270 rmoveto
          25 0 23 9 21 18 28 23 14 28 0 32 0 16 -5 15 -10 13 -14 17 -19 9 -25 0 rrcurveto
          -337 hlineto
          -18 1 -9 8 0 14 0 3 108 508 215 1014 7 21 14 11 19 0 rrcurveto
          337 hlineto
          25 0 23 9 21 18 28 23 14 28 0 32 0 16 -5 15 -10 13 -14 17 -19 9 -25 0 rrcurveto
          -456 hlineto
          -26 0 -24 -9 -22 -18 -23 -19 -14 -22 -5 -25 rrcurveto
          -112 -527 rlineto
          -900 hlineto
          -38 -180 rlineto
          900 hlineto
          -72 -340 rlineto
          -500 hlineto
          -39 -180 rlineto
          500 hlineto
          -76 -358 -38 -182 0 -6 0 -18 5 -15 11 -13 15 -19 20 -9 26 0 rrcurveto
          -843 620 rmoveto
          39 180 rlineto
          -481 hlineto
          -24 0 -23 -9 -22 -18 -28 -23 -14 -27 0 -32 0 -16 5 -15 10 -13 14 -18 19 -9 24 0 rrcurveto
          192 520 rmoveto
          38 180 rlineto
          -81 hlineto
          -24 0 -23 -9 -21 -18 -29 -24 -14 -27 0 -31 0 -16 5 -15 11 -13 14 -18 19 -9 24 0 rrcurveto
          81 -900 rmoveto
          24 0 23 9 22 18 21 18 14 21 5 24 rrcurveto
          36 170 rlineto
          -181 hlineto
          -25 -120 -13 -63 0 -6 0 -16 5 -15 11 -13 14 -18 19 -9 25 0 rrcurveto
          234 680 rmoveto
          99 468 50 236 0 6 0 16 -5 15 -10 13 -15 17 -19 9 -25 0 -24 0 -23 -9 -21 -17 -22 -18 -14 -21 -5 -24 rrcurveto
          -147 -691 rlineto
          347 -680 rmoveto
          24 0 23 9 21 18 21 18 14 21 5 24 rrcurveto
          146 690 rlineto
          -180 hlineto
          -99 -467 -49 -236 0 -6 0 -16 5 -15 11 -13 14 -18 19 -9 25 0 rrcurveto
          344 1200 rmoveto
          25 121 13 63 0 6 0 16 -5 15 -10 13 -14 17 -19 9 -25 0 -24 0 -23 -9 -21 -17 -22 -18 -14 -21 -5 -24 rrcurveto
          -36 -171 rlineto
          endchar
        </CharString>
        <CharString name="numbersign_expand">
          0 629 650 rmoveto
          99 468 50 236 0 6 0 16 -5 15 -10 13 -15 17 -19 9 -25 0 -24 0 -23 -9 -21 -17 -22 -18 -14 -21 -5 -24 rrcurveto
          -147 -691 rlineto
          -53 -680 rmoveto
          24 0 23 9 22 18 21 18 14 21 5 24 rrcurveto
          36 170 rlineto
          -181 hlineto
          -25 -120 -13 -63 0 -6 0 -16 5 -15 11 -13 14 -18 19 -9 25 0 rrcurveto
          900 vmoveto
          38 180 rlineto
          -81 hlineto
          -24 0 -23 -9 -21 -18 -29 -24 -14 -27 0 -31 0 -16 5 -15 11 -13 14 -18 19 -9 24 0 rrcurveto
          1281 hmoveto
          38 180 rlineto
          -820 hlineto
          -38 -180 rlineto
          -91 -520 rmoveto
          39 180 rlineto
          -481 hlineto
          -24 0 -23 -9 -22 -18 -28 -23 -14 -27 0 -32 0 -16 5 -15 10 -13 14 -18 19 -9 24 0 rrcurveto
          1681 hmoveto
          39 180 rlineto
          -820 hlineto
          -39 -180 rlineto
          75 820 rmoveto
          25 121 13 63 0 6 0 16 -5 15 -10 13 -14 17 -19 9 -25 0 -24 0 -23 -9 -21 -17 -22 -18 -14 -21 -5 -24 rrcurveto
          -36 -171 rlineto
          -164 -1200 rmoveto
          24 0 23 9 21 18 21 18 14 21 5 24 rrcurveto
          146 690 rlineto
          -180 hlineto
          -99 -467 -49 -236 0 -6 0 -16 5 -15 11 -13 14 -18 19 -9 25 0 rrcurveto
          endchar
        </CharString>
        <CharString name="numbersign_parenleft">
          0 787 -370 rmoveto
          31 0 27 13 23 25 16 15 8 21 0 28 0 21 -8 17 -15 13 -101 80 -81 96 -59 111 -59 106 -29 118 0 129 0 62 7 64 13 67 rrcurveto
          19 90 rlineto
          41 179 99 174 158 170 105 111 120 96 135 81 36 21 18 31 0 40 0 8 -1 8 -3 6 -11 26 -22 13 -33 0 -15 0 -13 -3 -11 -6 -174 -92 -152 -116 -129 -141 -79 -88 -64 -87 -49 -87 rrcurveto
          -922 hlineto
          -38 -180 rlineto
          874 hlineto
          -23 -61 -21 -77 -20 -94 -8 -37 -6 -36 -5 -35 rrcurveto
          -463 hlineto
          -39 -180 rlineto
          493 hlineto
          5 -131 30 -121 53 -111 70 -140 102 -116 135 -92 9 -6 11 -3 15 0 rrcurveto
          -1303 720 rmoveto
          39 180 rlineto
          -481 hlineto
          -24 0 -23 -9 -22 -18 -28 -23 -14 -27 0 -32 0 -16 5 -15 10 -13 14 -18 19 -9 24 0 rrcurveto
          192 520 rmoveto
          38 180 rlineto
          -81 hlineto
          -24 0 -23 -9 -21 -18 -29 -24 -14 -27 0 -31 0 -16 5 -15 11 -13 14 -18 19 -9 24 0 rrcurveto
          81 -900 rmoveto
          24 0 23 9 22 18 21 18 14 21 5 24 rrcurveto
          36 170 rlineto
          -181 hlineto
          -25 -120 -13 -63 0 -6 0 -16 5 -15 11 -13 14 -18 19 -9 25 0 rrcurveto
          234 680 rmoveto
          99 468 50 236 0 6 0 16 -5 15 -10 13 -15 17 -19 9 -25 0 -24 0 -23 -9 -21 -17 -22 -18 -14 -21 -5 -24 rrcurveto
          -147 -691 rlineto
          347 -680 rmoveto
          24 0 23 9 21 18 21 18 14 21 5 24 rrcurveto
          146 690 rlineto
          -180 hlineto
          -99 -467 -49 -236 0 -6 0 -16 5 -15 11 -13 14 -18 19 -9 25 0 rrcurveto
          344 1200 rmoveto
          25 121 13 63 0 6 0 16 -5 15 -10 13 -14 17 -19 9 -25 0 -24 0 -23 -9 -21 -17 -22 -18 -14 -21 -5 -24 rrcurveto
          -36 -171 rlineto
          endchar
        </CharString>
        <CharString name="o">
          0 643 156 rmoveto
          -86 0 -55 24 -23 48 -23 48 -12 49 0 51 0 43 6 50 12 56 25 120 42 92 57 63 57 63 71 31 86 0 85 0 55 -24 23 -48 23 -49 12 -50 0 -51 0 -43 -6 -49 -12 -55 rrcurveto
          -51 -246 -113 -123 -173 0 rrcurveto
          -40 -186 rmoveto
          94 0 83 22 71 43 71 43 64 63 57 81 57 81 41 102 26 122 13 65 7 58 0 53 0 46 -5 42 -10 38 -22 81 -37 63 -53 43 -53 43 -74 21 -94 0 -93 0 -82 -21 -71 -43 rrcurveto
          -72 -43 -64 -63 -57 -81 -57 -81 -41 -101 -25 -120 -14 -66 -7 -60 0 -54 0 -46 5 -42 10 -37 45 -168 111 -84 176 0 rrcurveto
          endchar
        </CharString>
        <CharString name="one">
          0 995 hmoveto
          24 0 23 9 23 18 27 24 15 27 3 31 0 21 -6 18 -13 14 -13 14 -18 7 -23 0 rrcurveto
          -247 hlineto
          -22 5 -11 14 0 24 171 723 86 371 0 18 0 25 -9 22 -19 18 -19 18 -25 9 -31 0 -52 0 -36 -20 -20 -39 -73 -152 -83 -79 -92 -5 -92 -6 -46 -26 0 -46 1 -52 51 -26 103 0 rrcurveto
          111 0 68 28 23 56 rrcurveto
          -201 -837 rlineto
          -2 -11 -6 -9 -10 -9 -10 -9 -11 -5 -11 0 rrcurveto
          -207 hlineto
          -25 0 -25 -10 -26 -19 -26 -20 -13 -29 0 -37 0 -18 7 -16 13 -13 13 -14 17 -7 22 0 rrcurveto
          endchar
        </CharString>
        <CharString name="p">
          0 663 158 rmoveto
          -71 0 -53 25 -37 50 -29 43 -15 43 0 45 0 15 2 16 3 15 rrcurveto
          45 211 rlineto
          17 78 39 63 63 48 63 48 63 24 65 0 135 -3 67 -69 0 -136 0 -36 -5 -41 -10 -47 -29 -135 -47 -100 -65 -66 -60 -61 -67 -30 -74 0 rrcurveto
          -479 -646 rmoveto
          23 0 23 9 21 17 21 17 14 23 6 28 rrcurveto
          88 412 rlineto
          5 25 13 13 20 0 12 0 11 -6 10 -11 48 -46 66 -23 85 0 119 0 106 49 93 98 103 107 71 148 40 189 16 74 8 66 0 58 0 214 -106 107 -212 0 -101 0 -89 -38 -79 -77 rrcurveto
          -8 -7 -8 -4 -8 0 -9 0 -4 10 0 20 rrcurveto
          3 38 rlineto
          0 39 -23 19 -45 0 -25 0 -23 -8 -21 -17 -22 -17 -14 -22 -6 -28 -198 -929 -99 -468 0 -7 0 -18 6 -15 11 -13 15 -17 19 -9 24 0 rrcurveto
          endchar
        </CharString>
        <CharString name="parenleft">
          0 798 -319 rmoveto
          31 0 27 13 23 25 16 16 8 21 0 27 0 21 -8 17 -15 13 -101 80 -81 96 -59 111 -59 106 -29 118 0 129 0 62 7 64 13 67 rrcurveto
          19 90 rlineto
          41 179 99 174 158 170 105 111 120 96 135 81 36 21 18 31 0 40 0 8 -1 8 -3 6 -11 26 -22 13 -33 0 -15 0 -13 -3 -11 -6 -174 -92 -152 -116 -129 -141 -173 -191 -111 -209 -49 -228 rrcurveto
          -25 -115 -13 -99 0 -83 0 -144 30 -134 59 -122 69 -140 103 -116 135 -92 9 -6 11 -3 15 0 rrcurveto
          endchar
        </CharString>
        <CharString name="parenright">
          0 266 -319 rmoveto
          15 0 13 3 11 6 174 92 152 116 129 140 173 191 113 217 51 243 rrcurveto
          10 46 rlineto
          17 79 8 77 0 74 0 141 -30 132 -60 125 -69 141 -103 116 -135 92 -9 6 -11 3 -15 0 -33 0 -27 -13 -22 -26 -15 -18 -8 -22 0 -24 0 -20 8 -17 15 -13 101 -81 80 -96 57 -111 rrcurveto
          61 -120 30 -123 0 -125 0 -51 -5 -52 -10 -52 rrcurveto
          -19 -90 rlineto
          -47 -207 -100 -182 -153 -157 -107 -111 -121 -96 -135 -80 -36 -22 -18 -32 0 -40 0 -8 2 -7 3 -6 13 -25 21 -13 31 0 rrcurveto
          endchar
        </CharString>
        <CharString name="percent">
          0 544 865 rmoveto
          -59 0 -30 36 0 72 0 25 4 29 7 34 31 150 56 75 80 0 57 0 29 -39 0 -77 0 -31 -4 -36 -9 -42 -28 -131 -54 -65 -80 0 rrcurveto
          322 -741 rmoveto
          -59 0 -30 36 0 72 0 25 4 29 7 34 32 150 56 75 80 0 57 0 29 -38 0 -77 0 -30 -5 -37 -9 -43 -28 -131 -54 -65 -80 0 rrcurveto
          50 639 rmoveto
          19 0 21 8 21 15 rrcurveto
          352 284 rlineto
          31 25 16 33 0 39 0 18 -5 17 -10 15 -15 21 -23 11 -33 1 -33 0 -30 -12 -25 -24 rrcurveto
          -323 -316 rlineto
          -21 -22 -11 -25 0 -26 0 -39 23 -21 46 -2 rrcurveto
          -80 -783 rmoveto
          91 0 78 32 65 65 65 64 42 81 21 98 11 51 5 46 0 41 0 58 -11 46 -22 36 -39 61 -65 30 -91 0 -191 0 -122 -123 -55 -246 -8 -37 -4 -35 0 -32 0 -56 12 -48 25 -39 rrcurveto
          39 -62 64 -31 90 0 rrcurveto
          -323 741 rmoveto
          91 0 78 32 65 65 65 64 43 81 21 98 11 51 5 45 0 40 0 59 -11 47 -23 36 -38 61 -65 30 -91 0 -191 0 -122 -123 -55 -246 -8 -37 -4 -35 0 -32 0 -56 12 -48 25 -39 rrcurveto
          38 -62 64 -31 90 0 rrcurveto
          -304 -571 rmoveto
          32 0 29 12 27 24 rrcurveto
          323 316 rlineto
          22 22 10 24 0 27 0 16 -4 13 -10 11 -14 15 -19 7 -23 0 -19 0 -20 -8 -21 -15 rrcurveto
          -353 -284 rlineto
          -23 -20 -15 -26 -7 -33 -1 -6 -1 -5 0 -6 0 -17 6 -16 10 -17 14 -23 24 -11 33 0 rrcurveto
          endchar
        </CharString>
        <CharString name="period">
          0 598 -30 rmoveto
          43 0 41 16 38 33 49 42 25 52 0 60 0 30 -8 26 -17 23 -24 32 -34 16 -43 0 -47 0 -42 -16 -38 -32 -51 -43 -26 -51 0 -59 0 -30 9 -27 18 -23 25 -33 35 -16 47 0 rrcurveto
          endchar
        </CharString>
        <CharString name="period_period">
          0 428 -30 rmoveto
          43 0 41 16 38 33 49 42 25 52 0 60 0 30 -8 26 -17 23 -24 32 -34 16 -43 0 -47 0 -42 -16 -38 -32 -51 -43 -26 -51 0 -59 0 -30 9 -27 18 -23 25 -33 35 -16 47 0 rrcurveto
          -860 hmoveto
          43 0 41 16 38 33 49 42 25 52 0 60 0 30 -8 26 -17 23 -24 32 -34 16 -43 0 -47 0 -42 -16 -38 -32 -51 -43 -26 -51 0 -59 0 -30 9 -27 18 -23 25 -33 35 -16 47 0 rrcurveto
          endchar
        </CharString>
        <CharString name="period_period_period">
          0 -602 -30 rmoveto
          43 0 41 16 38 33 49 42 25 52 0 60 0 30 -8 26 -17 23 -24 32 -34 16 -43 0 -47 0 -42 -16 -38 -32 -51 -43 -26 -51 0 -59 0 -30 9 -27 18 -23 25 -33 35 -16 47 0 rrcurveto
          -760 hmoveto
          43 0 41 16 38 33 49 42 25 52 0 60 0 30 -8 26 -17 23 -24 32 -34 16 -43 0 -47 0 -42 -16 -38 -32 -51 -43 -26 -51 0 -59 0 -30 9 -27 18 -23 25 -33 35 -16 47 0 rrcurveto
          1520 hmoveto
          43 0 41 16 38 33 49 42 25 52 0 60 0 30 -8 26 -17 23 -24 32 -34 16 -43 0 -47 0 -42 -16 -38 -32 -51 -43 -26 -51 0 -59 0 -30 9 -27 18 -23 25 -33 35 -16 47 0 rrcurveto
          endchar
        </CharString>
        <CharString name="placeholder">
          0 endchar
        </CharString>
        <CharString name="plus">
          0 636 169 rmoveto
          25 0 23 9 21 18 21 18 14 21 5 25 rrcurveto
          53 250 rlineto
          250 hlineto
          25 0 23 9 22 18 28 23 14 27 0 32 0 17 -5 15 -10 13 -14 17 -19 9 -25 0 rrcurveto
          -250 hlineto
          37 174 18 89 0 7 0 16 -5 15 -10 13 -14 17 -19 9 -25 0 -25 0 -23 -9 -21 -17 -21 -18 -14 -21 -5 -25 rrcurveto
          -53 -250 rlineto
          -250 hlineto
          -25 0 -23 -9 -21 -17 -28 -23 -14 -28 0 -33 0 -16 5 -14 10 -13 13 -18 19 -9 25 0 rrcurveto
          250 hlineto
          -37 -174 -18 -89 0 -7 0 -16 5 -15 10 -13 14 -18 19 -9 25 0 rrcurveto
          endchar
        </CharString>
        <CharString name="plus_plus">
          0 516 169 rmoveto
          25 0 23 9 21 18 21 18 14 21 5 25 rrcurveto
          53 250 rlineto
          250 hlineto
          25 0 23 9 22 18 28 23 14 27 0 32 0 17 -5 15 -10 13 -14 17 -19 9 -25 0 rrcurveto
          -250 hlineto
          37 174 18 89 0 7 0 16 -5 15 -10 13 -14 17 -19 9 -25 0 -25 0 -23 -9 -21 -17 -21 -18 -14 -21 -5 -25 rrcurveto
          -53 -250 rlineto
          -780 hlineto
          37 174 18 89 0 7 0 16 -5 15 -10 13 -14 17 -19 9 -25 0 -25 0 -23 -9 -21 -17 -21 -18 -14 -21 -5 -25 rrcurveto
          -53 -250 rlineto
          -250 hlineto
          -25 0 -23 -9 -21 -17 -28 -23 -14 -28 0 -33 0 -16 5 -14 10 -13 13 -18 19 -9 25 0 rrcurveto
          250 hlineto
          -37 -174 -18 -89 0 -7 0 -16 5 -15 10 -13 14 -18 19 -9 25 0 25 0 23 9 21 18 21 18 14 21 5 25 rrcurveto
          53 250 rlineto
          780 hlineto
          -37 -174 -18 -89 0 -7 0 -16 5 -15 10 -13 14 -18 19 -9 25 0 rrcurveto
          endchar
        </CharString>
        <CharString name="plus_plus_plus">
          0 396 169 rmoveto
          25 0 23 9 21 18 21 18 14 21 5 25 rrcurveto
          53 250 rlineto
          250 hlineto
          25 0 23 9 22 18 28 23 14 27 0 32 0 17 -5 15 -10 13 -14 17 -19 9 -25 0 rrcurveto
          -250 hlineto
          37 174 18 89 0 7 0 16 -5 15 -10 13 -14 17 -19 9 -25 0 -25 0 -23 -9 -21 -17 -21 -18 -14 -21 -5 -25 rrcurveto
          -53 -250 rlineto
          -780 hlineto
          37 174 18 89 0 7 0 16 -5 15 -10 13 -14 17 -19 9 -25 0 -25 0 -23 -9 -21 -17 -21 -18 -14 -21 -5 -25 rrcurveto
          -53 -250 rlineto
          -780 hlineto
          37 174 18 89 0 7 0 16 -5 15 -10 13 -14 17 -19 9 -25 0 -25 0 -23 -9 -21 -17 -21 -18 -14 -21 -5 -25 rrcurveto
          -53 -250 rlineto
          -250 hlineto
          -25 0 -23 -9 -21 -17 -28 -23 -14 -28 0 -33 0 -16 5 -14 10 -13 13 -18 19 -9 25 0 rrcurveto
          250 hlineto
          -37 -174 -18 -89 0 -7 0 -16 5 -15 10 -13 14 -18 19 -9 25 0 25 0 23 9 21 18 21 18 14 21 5 25 rrcurveto
          53 250 rlineto
          780 hlineto
          -37 -174 -18 -89 0 -7 0 -16 5 -15 10 -13 14 -18 19 -9 25 0 25 0 23 9 21 18 21 18 14 21 5 25 rrcurveto
          53 250 rlineto
          780 hlineto
          -37 -174 -18 -89 0 -7 0 -16 5 -15 10 -13 14 -18 19 -9 25 0 rrcurveto
          endchar
        </CharString>
        <CharString name="q">
          0 612 161 rmoveto
          -87 0 -60 30 -35 61 -13 24 -6 34 0 44 0 53 9 68 18 82 46 218 109 111 172 4 65 0 51 -20 37 -41 36 -41 18 -46 0 -50 0 -20 -2 -21 -5 -22 rrcurveto
          -45 -213 rlineto
          -14 -64 -39 -60 -63 -56 -57 -50 -64 -25 -71 0 rrcurveto
          296 -656 rmoveto
          69 0 56 21 41 41 9 9 4 11 0 15 0 11 -3 11 -7 9 -7 9 -11 5 -13 0 -10 0 -12 -3 -13 -5 -14 -5 -11 -3 -8 0 -25 1 -12 11 0 23 0 5 44 206 87 408 rrcurveto
          18 84 rlineto
          89 421 45 214 0 8 0 17 -5 15 -10 11 -14 17 -20 8 -25 0 -54 0 -33 -24 -12 -47 -9 -37 -12 -18 -13 0 -8 0 -6 4 -5 7 -47 77 -68 38 -90 0 -276 0 -176 -181 -77 -363 rrcurveto
          -19 -87 -9 -78 0 -67 0 -86 16 -68 31 -49 55 -88 87 -44 119 0 85 0 76 23 66 46 17 11 13 6 11 0 16 0 8 -8 0 -16 0 -7 -23 -112 -47 -216 -5 -21 -2 -21 0 -19 rrcurveto
          1 -87 49 -43 99 0 rrcurveto
          endchar
        </CharString>
        <CharString name="quadrantlowerleft">
          0 -600 vmoveto
          600 1320 -600 hlineto
          endchar
        </CharString>
        <CharString name="quadrantlowerright">
          0 600 -600 rmoveto
          600 1320 -600 hlineto
          endchar
        </CharString>
        <CharString name="quadrantupperleft">
          0 720 vmoveto
          600 1320 -600 hlineto
          endchar
        </CharString>
        <CharString name="quadrantupperleftandlowerleftandlowerright">
          0 -600 vmoveto
          1200 1320 -600 1320 -600 hlineto
          endchar
        </CharString>
        <CharString name="quadrantupperleftandlowerright">
          0 720 vmoveto
          600 1320 -600 hlineto
          600 -2640 rmoveto
          600 1320 -600 hlineto
          endchar
        </CharString>
        <CharString name="quadrantupperleftandupperrightandlowerleft">
          0 -600 vmoveto
          600 1320 600 1320 -1200 hlineto
          endchar
        </CharString>
        <CharString name="quadrantupperleftandupperrightandlowerright">
          0 600 -600 rmoveto
          600 2640 -1220 -1320 620 hlineto
          endchar
        </CharString>
        <CharString name="quadrantupperright">
          0 600 720 rmoveto
          600 1320 -600 hlineto
          endchar
        </CharString>
        <CharString name="quadrantupperrightandlowerleft">
          0 600 720 rmoveto
          600 1320 -600 hlineto
          -600 -2640 rmoveto
          600 1320 -600 hlineto
          endchar
        </CharString>
        <CharString name="quadrantupperrightandlowerleftandlowerright">
          0 -600 vmoveto
          1200 2640 -600 -1320 -600 hlineto
          endchar
        </CharString>
        <CharString name="question">
          0 597 -30 rmoveto
          43 0 41 16 38 33 50 43 25 51 0 60 0 29 -8 26 -17 23 -25 33 -34 16 -43 0 -46 0 -42 -16 -38 -32 -51 -43 -26 -51 0 -59 0 -30 9 -27 18 -24 25 -32 35 -16 46 0 rrcurveto
          101 492 rmoveto
          55 0 38 29 19 59 19 59 58 67 96 76 110 89 70 116 31 143 8 37 4 35 0 33 0 64 -15 54 -31 45 -47 68 -84 34 -121 0 -173 0 -129 -74 -85 -147 -23 -39 -12 -35 0 -29 rrcurveto
          0 -42 24 -21 48 0 17 0 17 4 15 9 15 9 21 22 25 37 57 83 67 41 76 0 109 -1 54 -46 0 -89 0 -105 -53 -92 -106 -81 -73 -57 -55 -48 -39 -41 -39 -41 -27 -51 -13 -60 rrcurveto
          -3 -15 -2 -14 0 -12 1 -49 25 -24 51 0 rrcurveto
          endchar
        </CharString>
        <CharString name="question_question">
          0 -362 462 rmoveto
          54 0 37 29 20 59 20 59 58 67 96 76 110 89 70 116 31 143 8 37 4 35 0 32 0 65 -16 55 -31 45 -47 67 -83 34 -121 0 -173 0 -129 -74 -85 -147 -23 -40 -12 -34 0 -29 rrcurveto
          0 -42 24 -20 48 -1 17 0 16 4 16 9 16 9 20 22 25 37 57 83 67 41 76 0 109 -1 54 -46 0 -90 0 -104 -53 -93 -106 -80 -72 -57 -56 -48 -39 -41 -39 -41 -27 -51 -13 -60 rrcurveto
          -3 -15 -2 -14 0 -12 0 -49 26 -24 51 0 rrcurveto
          -100 -492 rmoveto
          43 0 41 16 38 33 49 42 25 52 0 60 0 30 -8 26 -17 23 -24 32 -34 16 -43 0 -47 0 -42 -16 -38 -32 -51 -43 -26 -51 0 -59 0 -30 9 -27 18 -23 25 -33 35 -16 47 0 rrcurveto
          1020 492 rmoveto
          54 0 37 29 20 59 20 59 58 67 96 76 110 89 70 116 31 143 8 37 4 35 0 32 0 65 -16 55 -31 45 -47 67 -83 34 -121 0 -173 0 -129 -74 -85 -147 -23 -40 -12 -34 0 -29 rrcurveto
          0 -42 24 -20 48 -1 17 0 16 4 16 9 16 9 20 22 25 37 57 83 67 41 76 0 109 -1 54 -46 0 -90 0 -104 -53 -93 -106 -80 -72 -57 -56 -48 -39 -41 -39 -41 -27 -51 -13 -60 rrcurveto
          -3 -15 -2 -14 0 -12 0 -49 26 -24 51 0 rrcurveto
          -100 -492 rmoveto
          43 0 41 16 38 33 49 42 25 52 0 60 0 30 -8 26 -17 23 -24 32 -34 16 -43 0 -47 0 -42 -16 -38 -32 -51 -43 -26 -51 0 -59 0 -30 9 -27 18 -23 25 -33 35 -16 47 0 rrcurveto
          endchar
        </CharString>
        <CharString name="quotedbl">
          0 658 1020 rmoveto
          24 0 23 9 22 18 21 18 14 21 5 24 45 212 23 109 0 6 0 17 -5 16 -11 13 -14 18 -19 9 -24 0 -24 0 -23 -9 -22 -18 -22 -18 -13 -21 -5 -24 -45 -213 -23 -110 0 -6 rrcurveto
          0 -16 5 -15 11 -13 14 -18 19 -9 24 0 rrcurveto
          319 hmoveto
          24 0 23 9 22 18 21 18 14 21 5 24 45 212 23 109 0 6 0 17 -5 16 -11 13 -14 18 -19 9 -24 0 -24 0 -23 -9 -22 -18 -22 -18 -13 -21 -5 -24 -45 -213 -23 -110 0 -6 rrcurveto
          0 -16 5 -15 11 -13 14 -18 19 -9 24 0 rrcurveto
          endchar
        </CharString>
        <CharString name="quotesingle">
          0 818 1020 rmoveto
          24 0 23 9 22 18 21 18 14 21 5 24 45 212 23 109 0 6 0 17 -5 16 -11 13 -14 18 -19 9 -24 0 -24 0 -23 -9 -22 -18 -22 -18 -13 -21 -5 -24 -45 -213 -23 -110 0 -6 rrcurveto
          0 -16 5 -15 11 -13 14 -18 19 -9 24 0 rrcurveto
          endchar
        </CharString>
        <CharString name="r">
          0 286 -30 rmoveto
          24 0 23 9 21 17 21 17 13 21 5 27 rrcurveto
          111 519 rlineto
          17 81 54 72 92 65 92 64 79 32 67 0 94 0 47 -38 0 -76 0 -28 -7 -23 -14 -17 -14 -18 -18 -11 -22 -4 -38 -6 -19 -16 0 -25 0 -31 18 -16 37 0 91 0 66 29 40 57 rrcurveto
          35 51 19 61 1 71 0 63 -16 49 -33 34 -48 53 -70 27 -92 0 -117 0 -115 -51 -113 -103 -11 -10 -8 -5 -6 0 -9 1 -4 5 0 11 0 4 2 13 5 23 5 22 2 14 0 6 rrcurveto
          0 17 -5 15 -10 12 -14 17 -21 9 -27 0 -24 0 -22 -9 -20 -17 -21 -17 -13 -22 -6 -25 -133 -629 -67 -317 0 -6 0 -17 5 -14 9 -11 13 -17 21 -9 28 0 rrcurveto
          endchar
        </CharString>
        <CharString name="referencemark">
          0 627 125 rmoveto
          34 0 32 12 30 25 40 33 20 39 0 47 0 23 -7 20 -14 17 -19 24 -27 12 -35 0 -35 0 -32 -12 -29 -24 -39 -31 -19 -40 0 -47 0 -23 7 -20 14 -18 20 -25 26 -12 33 0 rrcurveto
          191 896 rmoveto
          34 0 32 12 30 25 40 33 20 40 0 48 0 23 -7 20 -14 17 -19 24 -27 12 -35 0 -35 0 -32 -12 -29 -24 -39 -32 -20 -40 0 -47 0 -23 7 -20 14 -19 21 -25 26 -12 33 0 rrcurveto
          -637 -866 rmoveto
          24 0 23 10 21 20 rrcurveto
          476 392 309 -393 rlineto
          15 -19 19 -9 22 0 22 0 23 10 23 19 29 23 14 26 0 29 0 16 -6 15 -12 15 rrcurveto
          -309 390 476 393 rlineto
          27 23 14 25 0 29 0 16 -6 15 -11 14 -14 18 -19 9 -23 0 -22 0 -22 -9 -21 -17 rrcurveto
          -476 -393 -309 393 rlineto
          -14 17 -19 9 -23 0 -21 0 -22 -9 -23 -18 -29 -23 -14 -26 0 -27 0 -18 6 -16 13 -13 rrcurveto
          306 -392 -473 -392 rlineto
          -30 -22 -15 -26 0 -29 0 -16 6 -15 11 -15 14 -19 18 -10 22 0 rrcurveto
          93 416 rmoveto
          34 0 32 12 30 25 40 33 20 40 0 48 0 23 -7 20 -14 17 -19 24 -27 12 -35 0 -33 0 -31 -12 -30 -24 -39 -32 -20 -40 0 -47 0 -23 7 -20 14 -19 19 -25 26 -12 33 0 rrcurveto
          893 hmoveto
          33 0 32 12 30 25 40 33 20 40 0 48 0 23 -7 20 -14 17 -18 24 -27 12 -35 0 -34 0 -32 -12 -29 -24 -39 -32 -20 -40 0 -47 0 -23 7 -20 14 -19 20 -25 26 -12 33 0 rrcurveto
          endchar
        </CharString>
        <CharString name="right_arrow_double">
          0 394 51 rmoveto
          22 0 23 9 23 17 rrcurveto
          555 457 rlineto
          28 25 14 28 0 31 0 17 -5 14 -10 14 rrcurveto
          -360 458 rlineto
          -16 17 -19 9 -22 0 -25 0 -23 -9 -21 -17 -28 -23 -14 -27 0 -32 0 -15 5 -16 9 -15 32 -39 16 -22 0 -3 0 -13 -4 -10 -8 -6 -8 -7 -8 -3 -7 0 rrcurveto
          -1294 hlineto
          -24 0 -23 -9 -21 -17 -29 -23 -14 -27 0 -33 0 -17 5 -14 11 -13 15 -18 19 -9 23 0 rrcurveto
          1343 hlineto
          23 0 23 9 23 17 rrcurveto
          40 33 rlineto
          7 6 8 3 8 0 8 0 7 -3 5 -6 rrcurveto
          118 -149 rlineto
          3 -4 2 -5 0 -5 0 -11 -5 -10 -9 -8 rrcurveto
          -178 -146 rlineto
          -8 -6 -8 -3 -8 0 -8 0 -7 3 -5 6 rrcurveto
          -25 33 rlineto
          -16 18 -20 9 -24 0 rrcurveto
          -1344 hlineto
          -24 0 -23 -9 -21 -17 -29 -23 -14 -27 0 -33 0 -17 5 -14 11 -13 15 -18 19 -9 23 0 rrcurveto
          1296 hlineto
          7 0 6 -3 4 -5 4 -5 2 -6 0 -6 0 -8 -4 -9 -8 -7 rrcurveto
          -68 -57 rlineto
          -30 -24 -14 -28 0 -32 0 -16 5 -14 10 -13 14 -18 19 -9 25 0 rrcurveto
          endchar
        </CharString>
        <CharString name="right_arrow_double_long">
          0 394 51 rmoveto
          22 0 23 9 23 17 rrcurveto
          555 457 rlineto
          28 25 14 28 0 31 0 17 -5 14 -10 14 rrcurveto
          -360 458 rlineto
          -16 17 -19 9 -22 0 -25 0 -23 -9 -21 -17 -28 -23 -14 -27 0 -32 0 -15 5 -16 9 -15 32 -39 16 -22 0 -3 0 -13 -4 -10 -8 -6 -8 -7 -8 -3 -7 0 rrcurveto
          -2494 hlineto
          -24 0 -23 -9 -21 -17 -29 -23 -14 -27 0 -33 0 -17 5 -14 11 -13 15 -18 19 -9 23 0 rrcurveto
          2543 hlineto
          23 0 23 9 23 17 rrcurveto
          40 33 rlineto
          7 6 8 3 8 0 8 0 7 -3 5 -6 rrcurveto
          118 -149 rlineto
          3 -4 2 -5 0 -5 0 -11 -5 -10 -9 -8 rrcurveto
          -178 -146 rlineto
          -8 -6 -8 -3 -8 0 -8 0 -7 3 -5 6 rrcurveto
          -25 33 rlineto
          -16 18 -20 9 -24 0 rrcurveto
          -2544 hlineto
          -24 0 -23 -9 -21 -17 -29 -23 -14 -27 0 -33 0 -17 5 -14 11 -13 15 -18 19 -9 23 0 rrcurveto
          2496 hlineto
          7 0 6 -3 4 -5 4 -5 2 -6 0 -6 0 -8 -4 -9 -8 -7 rrcurveto
          -68 -57 rlineto
          -30 -24 -14 -28 0 -32 0 -16 5 -14 10 -13 14 -18 19 -9 25 0 rrcurveto
          endchar
        </CharString>
        <CharString name="right_arrow_single">
          0 683 478 rmoveto
          -8 0 -7 3 -5 6 rrcurveto
          -71 88 rlineto
          -3 5 -2 5 0 5 0 11 5 9 9 8 rrcurveto
          108 89 rlineto
          8 6 8 3 8 0 8 0 7 -3 5 -6 rrcurveto
          69 -89 rlineto
          4 -5 2 -5 0 -6 0 -10 -5 -8 -10 -9 rrcurveto
          -106 -88 rlineto
          -8 -6 -8 -3 -8 0 rrcurveto
          -289 -427 rmoveto
          22 0 23 8 23 17 rrcurveto
          554 457 rlineto
          29 26 14 28 0 30 0 17 -5 14 -10 14 rrcurveto
          -360 459 rlineto
          -16 17 -19 9 -22 0 -23 0 -23 -8 -22 -17 -29 -23 -15 -28 0 -32 0 -17 5 -15 10 -15 rrcurveto
          89 -113 rlineto
          3 -5 2 -4 0 -5 0 -11 -5 -10 -9 -8 rrcurveto
          -139 -114 rlineto
          -11 -9 -13 -7 -16 -6 -17 -7 -14 -3 -13 0 rrcurveto
          -1180 hlineto
          -25 0 -23 -9 -21 -17 -28 -23 -14 -28 0 -33 0 -16 5 -14 10 -13 13 -18 19 -9 25 0 rrcurveto
          1180 hlineto
          13 0 13 -3 14 -6 13 -7 11 -7 8 -9 rrcurveto
          89 -117 rlineto
          3 -5 2 -5 0 -5 0 -11 -5 -10 -10 -8 rrcurveto
          -137 -113 rlineto
          -27 -26 -14 -27 0 -30 0 -17 5 -14 10 -13 13 -17 20 -9 25 0 rrcurveto
          endchar
        </CharString>
        <CharString name="right_arrow_single_long">
          0 683 478 rmoveto
          -8 0 -7 3 -5 6 rrcurveto
          -71 88 rlineto
          -3 5 -2 5 0 5 0 11 5 9 9 8 rrcurveto
          108 89 rlineto
          8 6 8 3 8 0 8 0 7 -3 5 -6 rrcurveto
          69 -89 rlineto
          4 -5 2 -5 0 -6 0 -10 -5 -8 -10 -9 rrcurveto
          -106 -88 rlineto
          -8 -6 -8 -3 -8 0 rrcurveto
          -289 -427 rmoveto
          22 0 23 8 23 17 rrcurveto
          554 457 rlineto
          29 26 14 28 0 30 0 17 -5 14 -10 14 rrcurveto
          -360 459 rlineto
          -16 17 -19 9 -22 0 -23 0 -23 -8 -22 -17 -29 -23 -15 -28 0 -32 0 -17 5 -15 10 -15 rrcurveto
          89 -113 rlineto
          3 -5 2 -4 0 -5 0 -11 -5 -10 -9 -8 rrcurveto
          -139 -114 rlineto
          -11 -9 -13 -7 -16 -6 -17 -7 -14 -3 -13 0 rrcurveto
          -2380 hlineto
          -25 0 -23 -9 -21 -17 -28 -23 -14 -28 0 -33 0 -16 5 -14 10 -13 13 -18 19 -9 25 0 rrcurveto
          2380 hlineto
          13 0 13 -3 14 -6 13 -7 11 -7 8 -9 rrcurveto
          89 -117 rlineto
          3 -5 2 -5 0 -5 0 -11 -5 -10 -10 -8 rrcurveto
          -137 -113 rlineto
          -27 -26 -14 -27 0 -30 0 -17 5 -14 10 -13 13 -17 20 -9 25 0 rrcurveto
          endchar
        </CharString>
        <CharString name="righthalfblock">
          0 600 -600 rmoveto
          600 2640 -600 hlineto
          endchar
        </CharString>
        <CharString name="rightoneeighthblock">
          0 1050 -600 rmoveto
          150 2640 -150 hlineto
          endchar
        </CharString>
        <CharString name="rightwardsarrow">
          0 466 70 rmoveto
          212 hlineto
          462 590 -464 590 rlineto
          -210 hlineto
          324 -408 rlineto
          17 -20 17 -19 17 -17 17 -17 13 -13 9 -8 rrcurveto
          -18 vlineto
          -17 3 -22 2 -27 2 -27 2 -24 1 -23 0 rrcurveto
          -660 -160 660 hlineto
          23 0 24 1 27 2 27 2 22 2 17 1 rrcurveto
          -18 vlineto
          -12 -9 -15 -13 -17 -17 -17 -17 -16 -17 -13 -17 rrcurveto
          endchar
        </CharString>
        <CharString name="s">
          0 594 -30 rmoveto
          121 0 107 29 92 58 92 58 57 79 21 101 5 23 3 21 0 21 0 59 -22 49 -43 38 -56 51 -93 39 -130 28 -84 15 -55 18 -27 19 -27 19 -14 22 0 25 0 47 26 38 53 29 rrcurveto
          43 25 55 12 67 0 87 0 57 -24 27 -49 3 -5 1 -4 0 -4 0 -11 -12 -5 -23 0 -17 0 -17 2 -19 4 -28 -1 -14 -16 0 -32 0 -35 48 -17 96 0 30 0 35 8 39 16 rrcurveto
          62 27 31 42 0 59 0 47 -23 46 -46 45 -63 63 -93 31 -124 0 -118 0 -103 -30 -87 -60 -115 -79 -57 -95 0 -112 0 -133 114 -89 227 -47 137 -25 69 -43 0 -62 0 -43 -25 -36 -51 -31 rrcurveto
          -45 -27 -60 -13 -74 0 -134 0 -72 41 -11 81 -14 46 -25 23 -36 0 -27 0 -24 -10 -23 -21 -32 -27 -16 -32 0 -36 0 -9 1 -9 3 -11 17 -66 40 -53 61 -41 61 -41 84 -20 107 0 rrcurveto
          endchar
        </CharString>
        <CharString name="section">
          0 1012 345 rmoveto
          109 99 54 106 0 113 0 70 -24 57 -47 44 -39 43 -82 43 -125 45 -76 26 -51 25 -25 25 -25 25 -13 27 0 31 0 67 29 49 58 29 45 23 52 12 58 0 85 0 76 -12 65 -23 rrcurveto
          7 -3 8 -1 9 0 50 0 34 28 18 57 1 7 1 7 0 6 0 33 -16 21 -31 8 -93 23 -90 11 -87 0 -130 0 -106 -29 -81 -57 -82 -58 -52 -78 -21 -99 -4 -19 -2 -20 0 -19 rrcurveto
          0 -49 14 -44 28 -41 rrcurveto
          19 -27 rlineto
          25 -33 45 -28 65 -25 rrcurveto
          90 -37 rlineto
          72 -27 56 -27 40 -28 40 -28 20 -36 0 -44 0 -14 -2 -15 -3 -15 -13 -60 -29 -49 -46 -38 54 -19 41 -25 27 -33 rrcurveto
          -524 -641 rmoveto
          142 0 116 27 90 55 90 55 57 81 23 109 5 21 2 21 0 20 0 126 -92 93 -185 61 -89 29 -66 29 -45 31 -45 30 -22 39 0 48 0 14 2 15 3 16 13 61 29 49 44 36 rrcurveto
          -37 9 -39 28 -41 46 -45 -37 -38 -48 -33 -58 -33 -58 -17 -62 0 -66 0 -69 22 -56 45 -44 45 -43 73 -40 100 -37 99 -29 68 -33 39 -35 27 -21 13 -29 0 -35 0 -10 -1 -11 -3 -13 rrcurveto
          -21 -99 -93 -52 -165 -4 -108 0 -73 10 -37 20 -17 10 -20 5 -21 0 -55 0 -33 -28 -13 -57 -1 -5 -1 -5 0 -5 0 -70 114 -35 228 0 rrcurveto
          endchar
        </CharString>
        <CharString name="semicolon">
          0 764 751 rmoveto
          43 0 41 16 38 32 50 43 25 51 0 61 0 29 -8 26 -17 23 -25 32 -34 16 -43 0 -46 0 -42 -16 -38 -32 -51 -42 -26 -51 0 -60 0 -30 9 -27 18 -23 25 -32 35 -16 46 0 rrcurveto
          -481 -1164 rmoveto
          150 15 125 59 101 101 101 101 50 117 0 132 0 58 -13 46 -27 34 -27 33 -35 17 -43 0 -59 0 -47 -22 -36 -43 -31 -34 -16 -39 0 -43 0 -33 12 -30 23 -29 23 -29 12 -31 0 -31 rrcurveto
          0 -45 -26 -40 -51 -35 -42 -29 -52 -18 -63 -8 -57 -7 -35 -32 -13 -57 rrcurveto
          -1 -13 rlineto
          1 -43 25 -22 51 0 rrcurveto
          endchar
        </CharString>
        <CharString name="seven">
          -10 425 -30 rmoveto
          37 0 33 19 28 38 rrcurveto
          460 688 rlineto
          109 hlineto
          51 0 32 7 13 15 13 14 6 16 0 18 0 16 -9 15 -17 14 -17 13 -29 7 -39 0 rrcurveto
          -23 hlineto
          228 341 rlineto
          9 13 7 19 5 25 3 13 2 15 0 16 0 31 -13 28 -25 23 -19 17 -28 9 -37 0 rrcurveto
          -702 hlineto
          -35 0 -27 -10 -20 -21 -21 -21 -10 -27 0 -32 0 -21 7 -17 15 -13 14 -14 17 -7 21 0 rrcurveto
          591 hlineto
          27 0 14 -6 0 -13 0 -5 -77 -116 -153 -227 rrcurveto
          -199 hlineto
          -25 0 -25 -6 -26 -12 -26 -13 -13 -18 0 -23 0 -22 9 -16 17 -10 17 -10 19 -5 22 0 rrcurveto
          139 hlineto
          -416 -618 rlineto
          -9 -18 -5 -19 0 -19 0 -21 7 -17 15 -13 14 -13 19 -7 25 0 rrcurveto
          endchar
        </CharString>
        <CharString name="six">
          0 655 153 rmoveto
          -63 0 -48 22 -32 45 -32 45 -16 60 0 76 0 85 18 95 37 105 112 31 85 15 58 0 55 0 37 -2 21 -5 71 -15 36 -65 1 -114 0 -111 -45 -96 -90 -83 -64 -59 -68 -29 -73 0 rrcurveto
          -50 -183 rmoveto
          110 0 92 22 75 45 75 45 64 60 55 75 72 106 36 119 0 133 rrcurveto
          24 vlineto
          -5 186 -97 100 -191 15 -28 3 -27 1 -27 0 -58 0 -68 -7 -77 -15 127 225 173 138 217 52 60 14 39 16 19 17 18 17 9 16 0 16 0 5 -2 5 -4 5 -13 15 -17 7 -21 0 rrcurveto
          -219 -4 -190 -78 -163 -152 -108 -96 -86 -128 -64 -160 -27 -14 -25 -15 -21 -16 -79 -60 -40 -45 0 -31 0 -19 11 -9 22 0 20 0 33 10 47 19 -29 -107 -14 -100 0 -93 0 -241 109 -121 217 0 rrcurveto
          endchar
        </CharString>
        <CharString name="slash">
          0 197 -200 rmoveto
          17 0 17 5 18 10 17 9 14 13 11 17 rrcurveto
          1064 1620 rlineto
          12 19 6 18 0 18 0 10 -2 10 -4 10 -11 27 -23 14 -33 0 -17 0 -17 -5 -17 -9 -17 -9 -14 -13 -11 -17 rrcurveto
          -1065 -1620 rlineto
          -11 -18 -6 -19 0 -18 0 -10 2 -10 4 -10 11 -28 22 -14 33 0 rrcurveto
          endchar
        </CharString>
        <CharString name="slash_asterisk">
          0 -803 -200 rmoveto
          17 0 17 5 18 10 17 9 14 13 11 17 rrcurveto
          1065 1623 rlineto
          12 19 6 18 0 18 0 10 -2 10 -4 10 -11 27 -23 14 -33 0 -17 0 -17 -5 -17 -9 -17 -9 -15 -13 -11 -17 rrcurveto
          -1065 -1623 rlineto
          -11 -18 -6 -19 0 -18 0 -10 2 -10 4 -10 11 -28 22 -14 33 0 rrcurveto
          1499 651 rmoveto
          25 0 23 9 21 18 21 17 14 21 5 25 rrcurveto
          54 252 193 -121 rlineto
          13 -7 13 -4 15 0 25 0 24 9 22 18 27 22 14 27 0 32 0 23 -10 20 -20 16 rrcurveto
          -193 122 245 122 rlineto
          42 26 21 32 0 39 0 16 -5 15 -10 13 -14 17 -20 9 -25 0 -15 0 -15 -4 -16 -7 rrcurveto
          -245 -122 rlineto
          37 175 19 90 0 7 0 16 -5 15 -10 13 -14 17 -19 9 -25 0 -25 0 -23 -9 -21 -17 -21 -18 -14 -21 -5 -25 rrcurveto
          -54 -252 -193 122 rlineto
          -13 7 -14 4 -15 0 -25 0 -23 -9 -21 -17 -29 -24 -14 -27 0 -32 0 -24 10 -20 21 -14 rrcurveto
          193 -122 -245 -122 rlineto
          -42 -26 -22 -32 0 -38 0 -17 6 -15 10 -13 14 -18 19 -9 25 0 15 0 16 4 16 7 rrcurveto
          245 122 rlineto
          -37 -175 -19 -90 0 -7 0 -16 5 -14 10 -13 14 -18 19 -9 25 0 rrcurveto
          endchar
        </CharString>
        <CharString name="slash_asterisk_asterisk">
          0 -504 451 rmoveto
          25 0 23 9 21 18 21 17 14 21 5 25 rrcurveto
          54 252 193 -121 rlineto
          13 -7 13 -4 15 0 25 0 24 9 22 18 27 22 14 27 0 32 0 23 -10 20 -20 16 rrcurveto
          -193 122 245 122 rlineto
          42 26 21 32 0 39 0 16 -5 15 -10 13 -14 17 -20 9 -25 0 -15 0 -15 -4 -16 -7 rrcurveto
          -245 -122 rlineto
          37 175 19 90 0 7 0 16 -5 15 -10 13 -14 17 -19 9 -25 0 -25 0 -23 -9 -21 -17 -21 -18 -14 -21 -5 -25 rrcurveto
          -54 -252 -193 122 rlineto
          -13 7 -14 4 -15 0 -25 0 -23 -9 -21 -17 -29 -24 -14 -27 0 -32 0 -24 10 -20 21 -14 rrcurveto
          193 -122 -245 -122 rlineto
          -42 -26 -22 -32 0 -38 0 -17 6 -15 10 -13 14 -18 19 -9 25 0 15 0 16 4 16 7 rrcurveto
          245 122 rlineto
          -37 -175 -19 -90 0 -7 0 -16 5 -14 10 -13 14 -18 19 -9 25 0 rrcurveto
          1040 hmoveto
          25 0 23 9 21 18 21 17 14 21 5 25 rrcurveto
          54 252 193 -121 rlineto
          13 -7 13 -4 15 0 25 0 24 9 22 18 27 22 14 27 0 32 0 23 -10 20 -20 16 rrcurveto
          -193 122 245 122 rlineto
          42 26 21 32 0 39 0 16 -5 15 -10 13 -14 17 -20 9 -25 0 -15 0 -15 -4 -16 -7 rrcurveto
          -245 -122 rlineto
          37 175 19 90 0 7 0 16 -5 15 -10 13 -14 17 -19 9 -25 0 -25 0 -23 -9 -21 -17 -21 -18 -14 -21 -5 -25 rrcurveto
          -54 -252 -193 122 rlineto
          -13 7 -14 4 -15 0 -25 0 -23 -9 -21 -17 -29 -24 -14 -27 0 -32 0 -24 10 -20 21 -14 rrcurveto
          193 -122 -245 -122 rlineto
          -42 -26 -22 -32 0 -38 0 -17 6 -15 10 -13 14 -18 19 -9 25 0 15 0 16 4 16 7 rrcurveto
          245 122 rlineto
          -37 -175 -19 -90 0 -7 0 -16 5 -14 10 -13 14 -18 19 -9 25 0 rrcurveto
          -2539 -651 rmoveto
          17 0 17 5 18 10 17 9 14 13 11 17 rrcurveto
          1065 1623 rlineto
          12 19 6 18 0 18 0 10 -2 10 -4 10 -11 27 -23 14 -33 0 -17 0 -17 -5 -17 -9 -17 -9 -15 -13 -11 -17 rrcurveto
          -1065 -1623 rlineto
          -11 -18 -6 -19 0 -18 0 -10 2 -10 4 -10 11 -28 22 -14 33 0 rrcurveto
          endchar
        </CharString>
        <CharString name="slash_greater">
          0 -818 -330 rmoveto
          17 0 17 5 17 10 17 9 14 13 11 17 rrcurveto
          860 1308 688 -408 rlineto
          8 -6 5 -6 0 -7 0 -12 -8 -11 -15 -8 rrcurveto
          -529 -254 rlineto
          -48 -26 -24 -33 0 -41 0 -17 6 -15 11 -14 14 -18 19 -9 24 0 13 0 13 3 15 6 rrcurveto
          769 363 rlineto
          47 24 23 33 0 43 0 28 -12 21 -23 13 rrcurveto
          -888 516 182 277 rlineto
          12 19 6 18 0 18 0 10 -2 10 -4 10 -11 27 -23 14 -33 0 -17 0 -17 -5 -17 -9 -17 -9 -14 -13 -11 -17 rrcurveto
          -1150 -1750 rlineto
          -12 -19 -6 -18 0 -17 0 -11 2 -10 4 -10 12 -28 22 -14 33 0 rrcurveto
          endchar
        </CharString>
        <CharString name="slash_slash">
          0 -853 -200 rmoveto
          17 0 17 5 18 10 17 9 14 13 11 17 rrcurveto
          1064 1620 rlineto
          12 19 6 18 0 18 0 10 -2 10 -4 10 -11 27 -23 14 -33 0 -17 0 -17 -5 -17 -9 -17 -9 -14 -13 -11 -17 rrcurveto
          -1065 -1620 rlineto
          -11 -18 -6 -19 0 -18 0 -10 2 -10 4 -10 11 -28 22 -14 33 0 rrcurveto
          900 hmoveto
          17 0 17 5 18 10 17 9 14 13 11 17 rrcurveto
          1064 1620 rlineto
          12 19 6 18 0 18 0 10 -2 10 -4 10 -11 27 -23 14 -33 0 -17 0 -17 -5 -17 -9 -17 -9 -14 -13 -11 -17 rrcurveto
          -1065 -1620 rlineto
          -11 -18 -6 -19 0 -18 0 -10 2 -10 4 -10 11 -28 22 -14 33 0 rrcurveto
          endchar
        </CharString>
        <CharString name="slash_slash_slash">
          0 -73 -200 rmoveto
          17 0 17 5 18 10 17 9 14 13 11 17 rrcurveto
          1064 1620 rlineto
          12 19 6 18 0 18 0 10 -2 10 -4 10 -11 27 -23 14 -33 0 -17 0 -17 -5 -17 -9 -17 -9 -14 -13 -11 -17 rrcurveto
          -1065 -1620 rlineto
          -11 -18 -6 -19 0 -18 0 -10 2 -10 4 -10 11 -28 22 -14 33 0 rrcurveto
          -930 hmoveto
          17 0 17 5 18 10 17 9 14 13 11 17 rrcurveto
          1064 1620 rlineto
          12 19 6 18 0 18 0 10 -2 10 -4 10 -11 27 -23 14 -33 0 -17 0 -17 -5 -17 -9 -17 -9 -14 -13 -11 -17 rrcurveto
          -1065 -1620 rlineto
          -11 -18 -6 -19 0 -18 0 -10 2 -10 4 -10 11 -28 22 -14 33 0 rrcurveto
          -930 hmoveto
          17 0 17 5 18 10 17 9 14 13 11 17 rrcurveto
          1064 1620 rlineto
          12 19 6 18 0 18 0 10 -2 10 -4 10 -11 27 -23 14 -33 0 -17 0 -17 -5 -17 -9 -17 -9 -14 -13 -11 -17 rrcurveto
          -1065 -1620 rlineto
          -11 -18 -6 -19 0 -18 0 -10 2 -10 4 -10 11 -28 22 -14 33 0 rrcurveto
          endchar
        </CharString>
        <CharString name="southeastarrow">
          0 280 150 rmoveto
          830 830 -160 -398 hlineto
          0 -33 2 -33 4 -31 4 -31 3 -25 3 -17 rrcurveto
          -14 -4 rlineto
          -9 15 -15 18 -19 22 -19 22 -19 20 -19 19 rrcurveto
          -710 716 -122 -126 706 -712 rlineto
          19 -17 19 -18 20 -17 20 -17 16 -14 12 -9 rrcurveto
          -2 -14 rlineto
          -15 3 -22 2 -29 2 -29 2 -32 1 -33 0 rrcurveto
          -390 hlineto
          endchar
        </CharString>
        <CharString name="southwestarrow">
          0 90 150 rmoveto
          830 156 -390 hlineto
          -33 0 -32 -1 -29 -2 -29 -2 -22 -2 -15 -3 rrcurveto
          -2 14 rlineto
          12 9 16 14 21 17 21 17 19 18 17 17 rrcurveto
          706 712 -120 122 -710 -716 rlineto
          -19 -19 -18 -20 -19 -22 -19 -22 -14 -18 -11 -15 rrcurveto
          -14 4 rlineto
          3 19 3 25 3 32 3 32 2 33 0 33 rrcurveto
          398 -160 vlineto
          endchar
        </CharString>
        <CharString name="space">
          0 endchar
        </CharString>
        <CharString name="t">
          0 584 -30 rmoveto
          85 0 83 23 81 45 80 45 90 76 99 108 9 10 5 14 0 18 0 14 -5 13 -11 11 -11 11 -15 6 -18 0 -17 0 -13 -5 -11 -10 -66 -64 -55 -46 -44 -28 -44 -28 -50 -14 -56 0 rrcurveto
          -55 0 -28 27 -1 53 1 34 18 87 37 140 rrcurveto
          75 290 rlineto
          7 31 17 15 26 0 rrcurveto
          309 hlineto
          27 0 25 9 22 17 29 25 15 31 0 37 0 14 -4 13 -9 11 -14 18 -20 9 -25 0 rrcurveto
          -309 hlineto
          -26 0 -13 10 0 19 0 4 8 35 15 63 rrcurveto
          32 132 rlineto
          0 17 -5 15 -11 12 -13 16 -19 8 -24 0 -24 0 -23 -8 -22 -17 -23 -17 -14 -23 -7 -27 rrcurveto
          -49 -195 rlineto
          -7 -29 -18 -15 -29 0 rrcurveto
          -160 hlineto
          -25 0 -24 -9 -23 -18 -31 -24 -15 -30 -1 -35 0 -16 5 -14 10 -12 13 -17 19 -9 25 0 rrcurveto
          163 hlineto
          23 0 11 -10 0 -21 0 -3 -25 -101 -51 -201 -47 -168 -23 -123 0 -76 0 -115 56 -58 113 0 rrcurveto
          endchar
        </CharString>
        <CharString name="tag_todo">
          0 -533 175 rmoveto
          97 0 81 59 67 119 52 93 41 115 29 139 20 98 11 86 0 74 0 178 -59 89 -116 0 -95 0 -81 -58 -67 -117 -52 -91 -41 -116 -30 -143 -21 -99 -11 -88 0 -75 0 -31 2 -30 4 -27 rrcurveto
          16 -117 56 -58 97 0 rrcurveto
          -1418 30 rmoveto
          151 0 115 34 79 68 78 67 56 115 35 163 30 142 15 107 0 71 0 100 -41 65 -82 30 -34 13 -39 7 -43 3 -43 3 -48 1 -51 0 -12 0 -7 -6 -3 -11 -136 -637 -67 -320 0 -2 rrcurveto
          0 -9 5 -4 10 0 rrcurveto
          -1090 -30 rmoveto
          97 0 81 59 67 119 52 93 41 115 29 139 20 98 11 86 0 74 0 178 -59 89 -116 0 -95 0 -81 -58 -67 -117 -52 -91 -41 -116 -30 -143 -21 -99 -11 -88 0 -75 0 -31 2 -30 4 -27 rrcurveto
          16 -117 56 -58 97 0 rrcurveto
          2491 -230 rmoveto
          -241 0 -120 148 0 297 0 152 30 168 60 185 50 156 69 127 88 99 105 119 129 59 152 0 240 0 120 -149 0 -299 0 -147 -29 -168 -60 -186 -50 -158 -68 -127 -87 -98 -104 -119 -130 -59 -154 0 rrcurveto
          -1418 30 rmoveto
          -161 hlineto
          -31 0 -24 10 -17 21 -16 21 -9 22 0 22 0 7 87 412 174 816 6 31 18 27 29 25 29 24 31 12 31 0 rrcurveto
          200 hlineto
          201 0 133 -42 67 -83 66 -83 33 -98 0 -112 0 -65 -9 -73 -17 -81 rrcurveto
          -28 -136 rlineto
          -35 -161 -51 -130 -68 -99 -68 -99 -87 -73 -105 -46 -106 -46 -126 -23 -147 0 rrcurveto
          -2292 -30 rmoveto
          -30 0 -23 10 -16 21 -16 20 -8 21 0 20 0 8 1 7 2 8 159 746 79 378 0 8 -2 2 -87 1 -173 0 -30 0 -23 10 -16 20 -16 21 -8 20 0 22 0 37 18 34 37 31 rrcurveto
          28 23 29 12 30 0 rrcurveto
          760 hlineto
          30 0 23 -10 16 -21 16 -20 8 -21 0 -20 0 -40 -18 -34 -36 -29 -29 -23 -29 -12 -30 0 -171 0 -87 -1 -3 -2 -3 -3 -3 -5 -2 -7 rrcurveto
          -237 -1117 rlineto
          -7 -29 -17 -27 -28 -23 -29 -24 -29 -12 -30 0 rrcurveto
          1170 hmoveto
          -241 0 -120 148 0 297 0 152 30 168 60 185 50 156 69 127 88 99 105 119 129 59 152 0 240 0 120 -149 0 -299 0 -147 -29 -168 -60 -186 -50 -158 -68 -127 -87 -98 -104 -119 -130 -59 -154 0 rrcurveto
          3236 -215 rmoveto
          198 97 149 103 99 108 173 191 113 217 51 243 rrcurveto
          10 46 rlineto
          17 79 8 77 0 74 0 141 -30 132 -60 125 -69 141 -106 103 -141 65 rrcurveto
          -5487 -2 rlineto
          -26 0 -24 -9 -22 -18 -23 -19 -14 -22 -5 -25 -250 -1176 -125 -591 0 -6 0 -18 5 -15 11 -13 15 -19 20 -9 26 0 rrcurveto
          endchar
        </CharString>
        <CharString name="three">
          0 605 -30 rmoveto
          163 0 132 61 100 121 52 62 38 84 23 105 5 25 3 23 0 22 0 123 -49 83 -97 42 -14 7 -7 10 0 14 0 17 9 15 18 11 151 92 75 122 0 152 0 70 -23 58 -45 45 rrcurveto
          -63 64 -102 32 -139 0 -81 -1 -71 -20 -63 -38 -89 -55 -45 -61 0 -65 0 -34 22 -17 44 0 23 0 28 17 31 34 40 44 61 22 82 0 131 0 66 -52 0 -104 0 -77 -49 -71 -99 -65 rrcurveto
          -60 -39 -88 -20 -115 0 -23 0 -19 -6 -17 -13 -26 -20 -13 -28 0 -36 0 -16 4 -13 8 -10 12 -15 16 -8 21 0 236 -1 118 -66 0 -132 0 -16 -2 -16 -3 -15 -43 -176 -110 -89 -175 -2 rrcurveto
          -137 1 -95 44 -53 87 -22 37 -20 18 -19 0 -25 0 -13 -25 0 -51 0 -30 3 -22 7 -14 69 -147 121 -75 174 -3 rrcurveto
          endchar
        </CharString>
        <CharString name="two">
          0 359 120 rmoveto
          -3 hlineto
          -51 0 -26 16 0 31 0 66 27 33 55 0 26 0 43 -24 61 -48 -63 -49 -44 -25 -25 0 rrcurveto
          -20 -150 rmoveto
          108 0 93 40 78 79 91 -64 80 -32 69 0 108 1 81 24 53 47 47 43 32 57 18 70 1 5 1 6 0 6 0 35 -15 18 -30 0 -16 0 -21 -17 -26 -33 -27 -34 -24 -23 -22 -11 rrcurveto
          -23 -12 -32 -6 -41 0 -50 0 -61 18 -72 36 42 34 28 24 14 14 216 217 114 251 11 284 rrcurveto
          2 79 rlineto
          0 115 -34 82 -67 49 -52 38 -68 19 -83 0 -127 0 -104 -35 -83 -69 -71 -61 -36 -59 0 -57 1 -43 18 -21 37 0 46 0 39 21 32 42 31 42 33 28 34 15 34 14 28 7 22 0 rrcurveto
          122 0 61 -69 0 -137 -11 -284 -128 -238 -245 -193 -75 63 -75 31 -73 0 -72 0 -63 -24 -55 -48 -55 -48 -28 -65 0 -82 0 -57 23 -45 46 -35 45 -35 57 -17 69 0 rrcurveto
          endchar
        </CharString>
        <CharString name="u">
          0 1003 -30 rmoveto
          45 0 41 10 35 20 43 25 22 22 0 21 0 31 -16 15 -32 0 -11 0 -11 -5 -13 -10 -13 -10 -14 -5 -13 0 -35 0 -18 24 0 49 0 10 2 14 3 17 113 535 57 271 0 7 rrcurveto
          0 17 -5 15 -9 12 -13 17 -21 8 -27 0 -29 0 -23 -8 -19 -17 -19 -17 -12 -23 -6 -29 rrcurveto
          -117 -547 rlineto
          -19 -92 -51 -70 -83 -48 -69 -39 -61 -20 -54 -1 -112 0 -56 55 0 110 0 25 3 28 6 30 83 388 41 198 0 8 0 17 -5 15 -9 12 -13 17 -21 8 -27 0 -29 0 -23 -8 -18 -17 rrcurveto
          -19 -17 -12 -23 -6 -29 rrcurveto
          -124 -580 rlineto
          -13 -63 -7 -56 0 -49 0 -72 15 -56 29 -41 45 -65 84 -33 121 0 91 1 103 51 115 100 9 8 8 4 6 0 13 0 7 -10 2 -20 1 -13 1 -11 0 -9 0 -21 7 -19 15 -18 rrcurveto
          14 -18 17 -12 20 -5 19 -6 30 -3 41 0 rrcurveto
          endchar
        </CharString>
        <CharString name="underscore">
          0 863 -270 rmoveto
          24 0 23 9 22 18 21 17 13 21 6 25 5 25 -4 21 -14 18 -14 17 -19 9 -25 0 rrcurveto
          -640 hlineto
          -25 0 -23 -9 -21 -17 -22 -18 -13 -21 -5 -25 -6 -25 5 -21 14 -17 14 -18 19 -9 25 0 rrcurveto
          endchar
        </CharString>
        <CharString name="updownarrow">
          0 600 -340 rmoveto
          580 494 rlineto
          210 vlineto
          -370 -316 rlineto
          -60 -52 -37 -36 -13 -20 rrcurveto
          -20 hlineto
          3 17 2 24 2 30 2 30 1 30 0 29 rrcurveto
          1260 vlineto
          0 29 -1 30 -2 30 -2 30 -2 24 -3 17 rrcurveto
          20 hlineto
          7 -8 12 -13 18 -19 18 -19 24 -22 29 -25 rrcurveto
          372 -316 rlineto
          210 vlineto
          -580 492 -580 -494 rlineto
          -210 vlineto
          370 316 rlineto
          60 52 37 36 13 20 rrcurveto
          20 hlineto
          -1 -17 -2 -24 -3 -30 -3 -30 -1 -30 0 -29 rrcurveto
          -1260 vlineto
          0 -29 1 -30 3 -30 3 -30 2 -24 1 -17 rrcurveto
          -20 hlineto
          -5 8 -12 13 -19 19 -19 19 -24 22 -29 25 rrcurveto
          -372 316 rlineto
          -210 vlineto
          endchar
        </CharString>
        <CharString name="upperhalfblock">
          0 720 vmoveto
          1200 1320 -1200 hlineto
          endchar
        </CharString>
        <CharString name="upperoneeighthblock">
          0 1710 vmoveto
          1200 330 -1200 hlineto
          endchar
        </CharString>
        <CharString name="upwardsarrow">
          0 510 hmoveto
          180 1040 hlineto
          0 29 -1 30 -2 30 -2 30 -2 24 -3 17 rrcurveto
          20 hlineto
          7 -8 12 -13 18 -19 18 -19 24 -22 29 -25 rrcurveto
          372 -316 rlineto
          210 vlineto
          -578 492 -582 -494 rlineto
          -210 vlineto
          370 316 rlineto
          60 52 37 36 13 20 rrcurveto
          20 hlineto
          -1 -17 -2 -24 -3 -30 -3 -30 -1 -30 0 -29 rrcurveto
          endchar
        </CharString>
        <CharString name="v">
          0 587 -30 rmoveto
          56 1 47 30 37 57 328 482 164 291 0 101 0 24 -3 17 -5 10 -33 65 -74 32 -113 0 -85 0 -42 -22 0 -44 0 -37 19 -18 39 0 rrcurveto
          71 hlineto
          27 -1 14 -8 0 -16 0 -85 -120 -219 -241 -353 -9 -12 -10 -6 -11 0 -13 0 -7 5 -1 11 rrcurveto
          -99 745 rlineto
          -6 40 -25 20 -43 0 -27 0 -23 -8 -19 -17 -28 -25 -14 -25 0 -24 rrcurveto
          136 -921 rlineto
          11 -60 37 -30 65 0 rrcurveto
          endchar
        </CharString>
        <CharString name="w">
          0 823 -30 rmoveto
          34 0 29 11 24 23 24 22 17 26 10 30 173 478 87 293 0 108 -1 79 -77 40 -152 0 -72 0 -36 -22 0 -44 1 -37 24 -18 49 0 21 0 26 -1 31 -3 20 -1 10 -10 0 -18 rrcurveto
          0 -64 -52 -184 -104 -304 -13 -40 -13 -20 -11 0 -15 0 -8 16 -3 32 rrcurveto
          -25 349 rlineto
          -3 45 -23 22 -44 0 -43 0 -31 -22 -20 -43 rrcurveto
          -154 -339 rlineto
          -14 -34 -14 -17 -13 0 -13 0 -6 13 0 26 rrcurveto
          80 652 rlineto
          0 44 -24 22 -47 0 -22 0 -21 -6 -20 -12 -20 -13 -11 -19 -3 -26 rrcurveto
          -98 -944 rlineto
          0 -23 7 -20 14 -19 14 -19 21 -9 28 0 67 0 47 27 25 55 rrcurveto
          169 373 rlineto
          10 22 12 11 15 0 15 0 8 -10 1 -19 rrcurveto
          15 -373 rlineto
          1 -27 10 -21 19 -15 19 -15 22 -8 27 0 rrcurveto
          endchar
        </CharString>
        <CharString name="x">
          0 912 -30 rmoveto
          41 0 32 5 23 11 63 27 55 56 48 85 3 4 1 7 0 10 0 10 -2 9 -4 7 -10 21 -15 10 -20 0 -21 0 -16 -10 -12 -20 -31 -53 -30 -27 -30 0 -28 0 -20 21 -13 42 rrcurveto
          -61 191 -30 101 0 10 0 21 5 17 10 11 rrcurveto
          341 373 rlineto
          27 29 14 30 0 30 0 20 -6 17 -11 14 -17 21 -23 10 -28 0 -37 0 -30 -14 -25 -29 rrcurveto
          -273 -300 rlineto
          -4 -4 -5 -2 -6 0 -5 0 -3 4 -3 7 rrcurveto
          -54 194 rlineto
          -7 25 -12 25 -17 23 -17 23 -24 18 -29 13 -29 13 -32 6 -34 0 -25 0 -23 -5 -22 -10 -62 -31 -52 -53 -43 -74 -7 -13 -4 -13 0 -13 0 -11 4 -10 8 -9 12 -13 13 -6 14 0 rrcurveto
          21 0 17 9 11 18 36 57 31 29 26 0 26 0 16 -8 5 -17 69 -198 35 -103 0 -8 0 -20 -6 -17 -12 -13 rrcurveto
          -376 -412 rlineto
          -26 -27 -13 -26 0 -25 0 -25 5 -19 10 -14 16 -21 23 -11 30 0 38 0 32 14 25 29 207 232 104 117 2 1 2 1 2 1 3 0 6 0 4 -4 2 -8 rrcurveto
          78 -293 rlineto
          17 -60 49 -30 83 0 rrcurveto
          endchar
        </CharString>
        <CharString name="x_center">
          0 977 299 rmoveto
          25 0 23 9 21 17 26 23 14 28 0 34 0 16 -5 14 -10 12 rrcurveto
          -195 248 300 247 rlineto
          28 24 14 28 0 33 0 16 -4 15 -10 12 -14 17 -20 9 -25 0 -25 0 -23 -9 -22 -17 rrcurveto
          -299 -248 -196 248 rlineto
          -13 17 -19 9 -25 0 -25 0 -23 -9 -21 -17 -28 -23 -14 -28 0 -33 0 -17 4 -14 10 -13 rrcurveto
          196 -247 -301 -248 rlineto
          -27 -22 -14 -28 0 -33 0 -16 5 -14 10 -13 14 -18 19 -9 25 0 25 0 23 9 20 17 rrcurveto
          301 248 194 -248 rlineto
          15 -17 20 -9 26 0 rrcurveto
          endchar
        </CharString>
        <CharString name="xml_comment_begin">
          0 -2879 478 rmoveto
          -8 0 -7 3 -5 6 rrcurveto
          -70 88 rlineto
          -4 5 -2 5 0 6 0 10 5 10 10 7 rrcurveto
          107 89 rlineto
          8 6 8 3 8 0 8 0 7 -3 5 -6 rrcurveto
          70 -89 rlineto
          4 -5 1 -5 0 -6 0 -9 -4 -9 -10 -9 rrcurveto
          -107 -88 rlineto
          -8 -6 -8 -3 -8 0 rrcurveto
          1077 -508 rmoveto
          43 0 41 16 38 33 49 42 25 52 0 60 0 30 -8 26 -17 23 -24 32 -34 16 -43 0 -47 0 -42 -16 -38 -32 -51 -43 -26 -51 0 -59 0 -30 9 -27 18 -23 25 -33 35 -16 47 0 rrcurveto
          102 499 rmoveto
          21 0 21 8 19 15 19 15 12 19 7 23 132 543 66 276 0 8 0 20 -6 17 -12 16 -17 21 -22 11 -29 0 -29 0 -28 -11 -25 -21 -26 -22 -16 -25 -6 -29 -98 -541 -49 -273 0 -5 rrcurveto
          0 -16 5 -14 10 -12 13 -15 17 -8 21 0 rrcurveto
          2748 41 rmoveto
          25 0 23 9 22 18 28 23 14 27 0 32 0 17 -5 15 -10 13 -14 17 -19 9 -25 0 rrcurveto
          -2440 hlineto
          -39 -180 rlineto
          -1380 -459 rmoveto
          25 0 24 9 21 17 27 23 14 27 0 31 0 16 -5 15 -10 15 rrcurveto
          -89 113 rlineto
          -3 5 -1 5 0 6 0 10 4 9 10 9 rrcurveto
          138 117 rlineto
          11 9 13 7 17 7 17 6 14 3 12 0 rrcurveto
          541 hlineto
          39 180 rlineto
          -540 hlineto
          -13 0 -13 3 -13 7 -14 6 -11 7 -8 9 rrcurveto
          -89 114 rlineto
          -4 5 -1 6 0 6 0 9 5 9 9 8 rrcurveto
          137 113 rlineto
          28 26 14 29 0 31 0 17 -6 15 -10 12 -15 17 -19 8 -23 0 -22 0 -23 -9 -24 -17 rrcurveto
          -554 -459 rlineto
          -29 -24 -14 -27 0 -30 0 -17 5 -16 10 -15 rrcurveto
          360 -457 rlineto
          17 -17 19 -8 22 0 rrcurveto
          endchar
        </CharString>
        <CharString name="xml_comment_empty">
          0 -2879 478 rmoveto
          -8 0 -7 3 -5 6 rrcurveto
          -70 88 rlineto
          -4 5 -2 5 0 6 0 10 5 10 10 7 rrcurveto
          107 89 rlineto
          8 6 8 3 8 0 8 0 7 -3 5 -6 rrcurveto
          70 -89 rlineto
          4 -5 1 -5 0 -6 0 -9 -4 -9 -10 -9 rrcurveto
          -107 -88 rlineto
          -8 -6 -8 -3 -8 0 rrcurveto
          1077 -508 rmoveto
          43 0 41 16 38 33 49 42 25 52 0 60 0 30 -8 26 -17 23 -24 32 -34 16 -43 0 -47 0 -42 -16 -38 -32 -51 -43 -26 -51 0 -59 0 -30 9 -27 18 -23 25 -33 35 -16 47 0 rrcurveto
          -970 81 rmoveto
          25 0 24 9 21 17 27 23 14 27 0 31 0 16 -5 15 -10 15 rrcurveto
          -89 113 rlineto
          -3 5 -1 5 0 6 0 10 4 9 10 9 rrcurveto
          138 117 rlineto
          11 9 13 7 17 7 17 6 14 3 12 0 rrcurveto
          541 hlineto
          39 180 rlineto
          -540 hlineto
          -13 0 -13 3 -13 7 -14 6 -11 7 -8 9 rrcurveto
          -89 114 rlineto
          -4 5 -1 6 0 6 0 9 5 9 9 8 rrcurveto
          137 113 rlineto
          28 26 14 29 0 31 0 17 -6 15 -10 12 -15 17 -19 8 -23 0 -22 0 -23 -9 -24 -17 rrcurveto
          -554 -459 rlineto
          -29 -24 -14 -27 0 -30 0 -17 5 -16 10 -15 rrcurveto
          360 -457 rlineto
          17 -17 19 -8 22 0 rrcurveto
          4285 459 rmoveto
          -5 0 -8 6 -12 12 -12 12 -6 15 0 18 0 8 1 9 2 10 7 31 13 23 21 15 21 14 12 7 5 0 rrcurveto
          -2905 hlineto
          -39 -180 rlineto
          -308 -41 rmoveto
          21 0 21 8 19 15 19 15 12 19 7 23 132 543 66 276 0 8 0 20 -6 17 -12 16 -17 21 -22 11 -29 0 -29 0 -28 -11 -25 -21 -26 -22 -16 -25 -6 -29 -98 -541 -49 -273 0 -5 rrcurveto
          0 -16 5 -14 10 -12 13 -15 17 -8 21 0 rrcurveto
          endchar
        </CharString>
        <CharString name="y">
          0 423 -480 rmoveto
          129 0 115 39 99 78 99 78 67 107 33 135 161 695 81 351 0 9 0 45 -23 23 -45 0 -26 0 -24 -10 -23 -20 -23 -20 -16 -24 -7 -27 rrcurveto
          -131 -572 rlineto
          -9 -39 -35 -50 -63 -59 -13 -12 -15 -12 -19 -12 -27 -17 -25 -14 -25 -10 -24 -10 -23 -5 -22 0 -97 0 -48 62 0 124 0 127 42 208 85 290 2 9 1 8 0 9 -1 17 -6 16 -11 15 rrcurveto
          -16 20 -21 10 -25 0 -39 0 -27 -19 -15 -38 -99 -321 -49 -242 0 -163 0 -83 11 -63 23 -45 36 -72 70 -36 104 0 23 0 24 1 25 3 61 7 62 28 63 47 47 37 28 18 9 0 rrcurveto
          9 0 5 -4 0 -7 rrcurveto
          -1 -6 rlineto
          -18 -84 -30 -78 -42 -71 -75 -131 -105 -66 -134 0 -56 0 -43 9 -29 18 -30 18 -29 30 -27 42 -12 15 -18 8 -23 0 -33 0 -26 -10 -20 -20 -20 -20 -10 -25 0 -30 0 -19 4 -14 8 -10 rrcurveto
          79 -111 109 -55 139 0 rrcurveto
          endchar
        </CharString>
        <CharString name="z">
          0 976 hmoveto
          26 0 23 8 20 15 31 25 15 35 0 46 0 45 -9 40 -18 34 -37 69 -39 34 -42 0 -30 0 -15 -14 0 -27 0 -9 5 -12 9 -16 23 -30 12 -24 0 -17 0 -15 -6 -7 -11 0 rrcurveto
          -416 hlineto
          -23 0 -11 11 0 22 0 15 5 13 11 10 rrcurveto
          669 601 rlineto
          35 32 18 31 0 30 0 26 -7 22 -13 18 -20 26 -29 13 -37 0 rrcurveto
          -631 hlineto
          -79 0 -40 -31 0 -62 0 -59 40 -30 80 -1 rrcurveto
          387 hlineto
          22 0 11 -11 0 -22 0 -13 -6 -11 -12 -11 rrcurveto
          -667 -581 rlineto
          -35 -32 -18 -38 0 -43 0 -24 7 -22 15 -20 19 -26 29 -13 38 0 rrcurveto
          endchar
        </CharString>
        <CharString name="zero">
          0 460 643 rmoveto
          14 76 rlineto
          46 177 56 132 66 89 65 88 74 44 81 0 66 0 48 -16 29 -33 29 -33 16 -52 4 -69 -113 -42 -110 -59 -107 -75 -107 -75 -88 -76 -69 -76 rrcurveto
          170 -492 rmoveto
          -39 0 -32 7 -25 15 -25 14 -17 18 -11 23 -11 22 -6 23 0 24 0 164 193 185 385 207 -35 -231 -54 -175 -72 -118 -72 -119 -84 -59 -95 0 rrcurveto
          -49 -181 rmoveto
          137 0 120 59 102 118 85 101 67 123 48 145 48 145 30 143 11 142 45 21 37 19 27 17 27 17 14 19 0 21 0 11 -5 9 -11 6 -11 6 -13 3 -15 0 -30 0 -31 -2 -32 -4 rrcurveto
          -7 117 -29 86 -53 55 -53 55 -77 28 -99 0 -142 0 -121 -56 -100 -111 -89 -109 -71 -141 -51 -173 -52 -173 -26 -158 0 -141 1 -265 106 -133 213 0 rrcurveto
          endchar
        </CharString>
</ttFont>
